<?xml version="1.0" encoding="UTF-8"?>
<svg xmlns="http://www.w3.org/2000/svg" width="640" height="420" viewBox="0 0 640 420" role="img" aria-labelledby="title-bar_race">
  <title id="title-bar_race">Bar race chart preview</title>
  <defs>
    <linearGradient id="bg-bar_race" x1="0" x2="1" y1="0" y2="1">
      <stop offset="0" stop-color="#f8fafc"/>
      <stop offset="1" stop-color="#eef6f8"/>
    </linearGradient>
    <linearGradient id="accent-bar_race" x1="0" x2="1" y1="0" y2="0">
      <stop offset="0" stop-color="#2563eb"/>
      <stop offset="0.52" stop-color="#14b8a6"/>
      <stop offset="1" stop-color="#f59e0b"/>
    </linearGradient>
    <filter id="shadow-bar_race" x="-20%" y="-20%" width="140%" height="140%">
      <feDropShadow dx="0" dy="10" stdDeviation="14" flood-color="#0f172a" flood-opacity="0.12"/>
    </filter>
  </defs>
  <rect width="640" height="420" rx="30" fill="url(#bg-bar_race)"/>
  <rect x="34" y="28" width="572" height="348" rx="26" fill="#ffffff" filter="url(#shadow-bar_race)"/>
  <text x="58" y="68" font-family="Inter, ui-sans-serif, system-ui, sans-serif" font-size="22" font-weight="720" fill="#0f172a">Bar race</text>
  <text x="58" y="94" font-family="Inter, ui-sans-serif, system-ui, sans-serif" font-size="13" fill="#64748b">Cartesian</text>
  <g transform="translate(58 112)">
    <text x="48" y="40" font-size="11" fill="#64748b">Item 1</text><rect x="106" y="26" width="218.92786965705454" height="18" rx="8" fill="#2563eb" opacity="0.9"/><text x="48" y="68" font-size="11" fill="#64748b">Item 2</text><rect x="106" y="54" width="378.33994111046195" height="18" rx="8" fill="#14b8a6" opacity="0.9"/><text x="48" y="96" font-size="11" fill="#64748b">Item 3</text><rect x="106" y="82" width="396.5759240742773" height="18" rx="8" fill="#f59e0b" opacity="0.9"/><text x="48" y="124" font-size="11" fill="#64748b">Item 4</text><rect x="106" y="110" width="126.11876878887415" height="18" rx="8" fill="#ef4444" opacity="0.9"/><text x="48" y="152" font-size="11" fill="#64748b">Item 5</text><rect x="106" y="138" width="309.7173331398517" height="18" rx="8" fill="#8b5cf6" opacity="0.45"/><text x="48" y="180" font-size="11" fill="#64748b">Item 6</text><rect x="106" y="166" width="390.0436440296471" height="18" rx="8" fill="#22c55e" opacity="0.45"/><text x="48" y="208" font-size="11" fill="#64748b">Item 7</text><rect x="106" y="194" width="222.67748075537384" height="18" rx="8" fill="#0ea5e9" opacity="0.45"/>
  </g>
</svg>
