<?xml version="1.0" encoding="UTF-8"?>
<svg xmlns="http://www.w3.org/2000/svg" width="640" height="420" viewBox="0 0 640 420" role="img" aria-labelledby="title-bar_horizontal">
  <title id="title-bar_horizontal">Horizontal bar chart preview</title>
  <defs>
    <linearGradient id="bg-bar_horizontal" x1="0" x2="1" y1="0" y2="1">
      <stop offset="0" stop-color="#f8fafc"/>
      <stop offset="1" stop-color="#eef6f8"/>
    </linearGradient>
    <linearGradient id="accent-bar_horizontal" x1="0" x2="1" y1="0" y2="0">
      <stop offset="0" stop-color="#2563eb"/>
      <stop offset="0.52" stop-color="#14b8a6"/>
      <stop offset="1" stop-color="#f59e0b"/>
    </linearGradient>
    <filter id="shadow-bar_horizontal" x="-20%" y="-20%" width="140%" height="140%">
      <feDropShadow dx="0" dy="10" stdDeviation="14" flood-color="#0f172a" flood-opacity="0.12"/>
    </filter>
  </defs>
  <rect width="640" height="420" rx="30" fill="url(#bg-bar_horizontal)"/>
  <rect x="34" y="28" width="572" height="348" rx="26" fill="#ffffff" filter="url(#shadow-bar_horizontal)"/>
  <text x="58" y="68" font-family="Inter, ui-sans-serif, system-ui, sans-serif" font-size="22" font-weight="720" fill="#0f172a">Horizontal bar</text>
  <text x="58" y="94" font-family="Inter, ui-sans-serif, system-ui, sans-serif" font-size="13" fill="#64748b">Cartesian</text>
  <g transform="translate(58 112)">
    <text x="48" y="40" font-size="11" fill="#64748b">Item 1</text><rect x="106" y="26" width="156.49631079286337" height="18" rx="8" fill="#2563eb" opacity="0.9"/><text x="48" y="68" font-size="11" fill="#64748b">Item 2</text><rect x="106" y="54" width="127.82152329571545" height="18" rx="8" fill="#14b8a6" opacity="0.9"/><text x="48" y="96" font-size="11" fill="#64748b">Item 3</text><rect x="106" y="82" width="147.1628331579268" height="18" rx="8" fill="#f59e0b" opacity="0.9"/><text x="48" y="124" font-size="11" fill="#64748b">Item 4</text><rect x="106" y="110" width="120.96123049966991" height="18" rx="8" fill="#ef4444" opacity="0.9"/><text x="48" y="152" font-size="11" fill="#64748b">Item 5</text><rect x="106" y="138" width="258.29649545252323" height="18" rx="8" fill="#8b5cf6" opacity="0.9"/><text x="48" y="180" font-size="11" fill="#64748b">Item 6</text><rect x="106" y="166" width="360.19214362837374" height="18" rx="8" fill="#22c55e" opacity="0.9"/><text x="48" y="208" font-size="11" fill="#64748b">Item 7</text><rect x="106" y="194" width="173.9720511995256" height="18" rx="8" fill="#0ea5e9" opacity="0.9"/>
  </g>
</svg>
