<?xml version="1.0" encoding="UTF-8"?>
<svg xmlns="http://www.w3.org/2000/svg" width="640" height="420" viewBox="0 0 640 420" role="img" aria-labelledby="title-bar_background">
  <title id="title-bar_background">Bar with background chart preview</title>
  <defs>
    <linearGradient id="bg-bar_background" x1="0" x2="1" y1="0" y2="1">
      <stop offset="0" stop-color="#f8fafc"/>
      <stop offset="1" stop-color="#eef6f8"/>
    </linearGradient>
    <linearGradient id="accent-bar_background" x1="0" x2="1" y1="0" y2="0">
      <stop offset="0" stop-color="#2563eb"/>
      <stop offset="0.52" stop-color="#14b8a6"/>
      <stop offset="1" stop-color="#f59e0b"/>
    </linearGradient>
    <filter id="shadow-bar_background" x="-20%" y="-20%" width="140%" height="140%">
      <feDropShadow dx="0" dy="10" stdDeviation="14" flood-color="#0f172a" flood-opacity="0.12"/>
    </filter>
  </defs>
  <rect width="640" height="420" rx="30" fill="url(#bg-bar_background)"/>
  <rect x="34" y="28" width="572" height="348" rx="26" fill="#ffffff" filter="url(#shadow-bar_background)"/>
  <text x="58" y="68" font-family="Inter, ui-sans-serif, system-ui, sans-serif" font-size="22" font-weight="720" fill="#0f172a">Bar with background</text>
  <text x="58" y="94" font-family="Inter, ui-sans-serif, system-ui, sans-serif" font-size="13" fill="#64748b">Cartesian</text>
  <g transform="translate(58 112)">
    <g><line x1="48" y1="24" x2="462" y2="24" stroke="#dbe4ef" stroke-width="1"/><line x1="48" y1="72" x2="462" y2="72" stroke="#dbe4ef" stroke-width="1"/><line x1="48" y1="120" x2="462" y2="120" stroke="#dbe4ef" stroke-width="1"/><line x1="48" y1="168" x2="462" y2="168" stroke="#dbe4ef" stroke-width="1"/><line x1="48" y1="216" x2="462" y2="216" stroke="#dbe4ef" stroke-width="1"/><line x1="48" y1="216" x2="462" y2="216" stroke="#94a3b8"/><line x1="48" y1="24" x2="48" y2="216" stroke="#94a3b8"/></g><rect x="72" y="58" width="28" height="158" rx="8" fill="#e2e8f0"/><rect x="72" y="45.03757767379284" width="30" height="170.96242232620716" rx="8" fill="#2563eb"/><rect x="126" y="58" width="28" height="158" rx="8" fill="#e2e8f0"/><rect x="126" y="45.872225718572736" width="30" height="170.12777428142726" rx="8" fill="#14b8a6"/><rect x="180" y="58" width="28" height="158" rx="8" fill="#e2e8f0"/><rect x="180" y="98.40896297618747" width="30" height="117.59103702381253" rx="8" fill="#f59e0b"/><rect x="234" y="58" width="28" height="158" rx="8" fill="#e2e8f0"/><rect x="234" y="130.99269413761795" width="30" height="85.00730586238205" rx="8" fill="#ef4444"/><rect x="288" y="58" width="28" height="158" rx="8" fill="#e2e8f0"/><rect x="288" y="38.104174204170704" width="30" height="177.8958257958293" rx="8" fill="#8b5cf6"/><rect x="342" y="58" width="28" height="158" rx="8" fill="#e2e8f0"/><rect x="342" y="46.46195293404162" width="30" height="169.53804706595838" rx="8" fill="#22c55e"/><rect x="396" y="58" width="28" height="158" rx="8" fill="#e2e8f0"/><rect x="396" y="66.10229131951928" width="30" height="149.89770868048072" rx="8" fill="#0ea5e9"/>
  </g>
</svg>
