<?xml version="1.0" encoding="UTF-8"?>
<svg xmlns="http://www.w3.org/2000/svg" width="640" height="420" viewBox="0 0 640 420" role="img" aria-labelledby="title-bar_waterfall">
  <title id="title-bar_waterfall">Waterfall chart preview</title>
  <defs>
    <linearGradient id="bg-bar_waterfall" x1="0" x2="1" y1="0" y2="1">
      <stop offset="0" stop-color="#f8fafc"/>
      <stop offset="1" stop-color="#eef6f8"/>
    </linearGradient>
    <linearGradient id="accent-bar_waterfall" x1="0" x2="1" y1="0" y2="0">
      <stop offset="0" stop-color="#2563eb"/>
      <stop offset="0.52" stop-color="#14b8a6"/>
      <stop offset="1" stop-color="#f59e0b"/>
    </linearGradient>
    <filter id="shadow-bar_waterfall" x="-20%" y="-20%" width="140%" height="140%">
      <feDropShadow dx="0" dy="10" stdDeviation="14" flood-color="#0f172a" flood-opacity="0.12"/>
    </filter>
  </defs>
  <rect width="640" height="420" rx="30" fill="url(#bg-bar_waterfall)"/>
  <rect x="34" y="28" width="572" height="348" rx="26" fill="#ffffff" filter="url(#shadow-bar_waterfall)"/>
  <text x="58" y="68" font-family="Inter, ui-sans-serif, system-ui, sans-serif" font-size="22" font-weight="720" fill="#0f172a">Waterfall</text>
  <text x="58" y="94" font-family="Inter, ui-sans-serif, system-ui, sans-serif" font-size="13" fill="#64748b">Cartesian</text>
  <g transform="translate(58 112)">
    <g><line x1="48" y1="24" x2="462" y2="24" stroke="#dbe4ef" stroke-width="1"/><line x1="48" y1="72" x2="462" y2="72" stroke="#dbe4ef" stroke-width="1"/><line x1="48" y1="120" x2="462" y2="120" stroke="#dbe4ef" stroke-width="1"/><line x1="48" y1="168" x2="462" y2="168" stroke="#dbe4ef" stroke-width="1"/><line x1="48" y1="216" x2="462" y2="216" stroke="#dbe4ef" stroke-width="1"/><line x1="48" y1="216" x2="462" y2="216" stroke="#94a3b8"/><line x1="48" y1="24" x2="48" y2="216" stroke="#94a3b8"/></g><rect x="72" y="146" width="32" height="31.66249039806425" rx="6" fill="#ef4444"/><line x1="104" y1="177.66249039806425" x2="126" y2="177.66249039806425" stroke="#94a3b8" stroke-dasharray="3 3"/><rect x="126" y="141.6790264214389" width="32" height="35.98346397662536" rx="6" fill="#14b8a6"/><line x1="158" y1="141.6790264214389" x2="180" y2="141.6790264214389" stroke="#94a3b8" stroke-dasharray="3 3"/><rect x="180" y="105.49003222370519" width="32" height="36.188994197733706" rx="6" fill="#14b8a6"/><line x1="212" y1="105.49003222370519" x2="234" y2="105.49003222370519" stroke="#94a3b8" stroke-dasharray="3 3"/><rect x="234" y="67.10974765438584" width="32" height="38.38028456931934" rx="6" fill="#14b8a6"/><line x1="266" y1="67.10974765438584" x2="288" y2="67.10974765438584" stroke="#94a3b8" stroke-dasharray="3 3"/><rect x="288" y="67.10974765438584" width="32" height="18.01395184770226" rx="6" fill="#ef4444"/><line x1="320" y1="85.1236995020881" x2="342" y2="85.1236995020881" stroke="#94a3b8" stroke-dasharray="3 3"/><rect x="342" y="73.50969423251223" width="32" height="11.61400526957587" rx="6" fill="#14b8a6"/><line x1="374" y1="73.50969423251223" x2="396" y2="73.50969423251223" stroke="#94a3b8" stroke-dasharray="3 3"/><rect x="396" y="73.50969423251223" width="32" height="27.065357352979476" rx="6" fill="#ef4444"/><line x1="428" y1="100.5750515854917" x2="450" y2="100.5750515854917" stroke="#94a3b8" stroke-dasharray="3 3"/>
  </g>
</svg>
