<?xml version="1.0" encoding="UTF-8"?>
<svg xmlns="http://www.w3.org/2000/svg" width="640" height="420" viewBox="0 0 640 420" role="img" aria-labelledby="title-bar_grouped">
  <title id="title-bar_grouped">Grouped bar chart preview</title>
  <defs>
    <linearGradient id="bg-bar_grouped" x1="0" x2="1" y1="0" y2="1">
      <stop offset="0" stop-color="#f8fafc"/>
      <stop offset="1" stop-color="#eef6f8"/>
    </linearGradient>
    <linearGradient id="accent-bar_grouped" x1="0" x2="1" y1="0" y2="0">
      <stop offset="0" stop-color="#2563eb"/>
      <stop offset="0.52" stop-color="#14b8a6"/>
      <stop offset="1" stop-color="#f59e0b"/>
    </linearGradient>
    <filter id="shadow-bar_grouped" x="-20%" y="-20%" width="140%" height="140%">
      <feDropShadow dx="0" dy="10" stdDeviation="14" flood-color="#0f172a" flood-opacity="0.12"/>
    </filter>
  </defs>
  <rect width="640" height="420" rx="30" fill="url(#bg-bar_grouped)"/>
  <rect x="34" y="28" width="572" height="348" rx="26" fill="#ffffff" filter="url(#shadow-bar_grouped)"/>
  <text x="58" y="68" font-family="Inter, ui-sans-serif, system-ui, sans-serif" font-size="22" font-weight="720" fill="#0f172a">Grouped bar</text>
  <text x="58" y="94" font-family="Inter, ui-sans-serif, system-ui, sans-serif" font-size="13" fill="#64748b">Cartesian</text>
  <g transform="translate(58 112)">
    <g><line x1="48" y1="24" x2="462" y2="24" stroke="#dbe4ef" stroke-width="1"/><line x1="48" y1="72" x2="462" y2="72" stroke="#dbe4ef" stroke-width="1"/><line x1="48" y1="120" x2="462" y2="120" stroke="#dbe4ef" stroke-width="1"/><line x1="48" y1="168" x2="462" y2="168" stroke="#dbe4ef" stroke-width="1"/><line x1="48" y1="216" x2="462" y2="216" stroke="#dbe4ef" stroke-width="1"/><line x1="48" y1="216" x2="462" y2="216" stroke="#94a3b8"/><line x1="48" y1="24" x2="48" y2="216" stroke="#94a3b8"/></g><rect x="64" y="59.27344812452793" width="18" height="156.72655187547207" rx="5" fill="#2563eb"/><rect x="85" y="164.91871285391971" width="18" height="51.081287146080285" rx="5" fill="#14b8a6"/><rect x="118" y="82.77712040022016" width="18" height="133.22287959977984" rx="5" fill="#2563eb"/><rect x="139" y="100.83885140391067" width="18" height="115.16114859608933" rx="5" fill="#14b8a6"/><rect x="172" y="157.63521897047758" width="18" height="58.36478102952242" rx="5" fill="#2563eb"/><rect x="193" y="79.31795433303341" width="18" height="136.6820456669666" rx="5" fill="#14b8a6"/><rect x="226" y="134.51132592186332" width="18" height="81.48867407813668" rx="5" fill="#2563eb"/><rect x="247" y="136.08093839744106" width="18" height="79.91906160255894" rx="5" fill="#14b8a6"/><rect x="280" y="141.11111661791801" width="18" height="74.88888338208199" rx="5" fill="#2563eb"/><rect x="301" y="132.9719263049774" width="18" height="83.02807369502261" rx="5" fill="#14b8a6"/><rect x="334" y="175.63488960638642" width="18" height="40.36511039361358" rx="5" fill="#2563eb"/><rect x="355" y="99.26942081796005" width="18" height="116.73057918203995" rx="5" fill="#14b8a6"/><rect x="388" y="74.23949594050646" width="18" height="141.76050405949354" rx="5" fill="#2563eb"/><rect x="409" y="128.93119687354192" width="18" height="87.06880312645808" rx="5" fill="#14b8a6"/>
  </g>
</svg>
