<?xml version="1.0" encoding="UTF-8"?>
<svg xmlns="http://www.w3.org/2000/svg" width="640" height="420" viewBox="0 0 640 420" role="img" aria-labelledby="title-bar3d_basic">
  <title id="title-bar3d_basic">3D bar chart preview</title>
  <defs>
    <linearGradient id="bg-bar3d_basic" x1="0" x2="1" y1="0" y2="1">
      <stop offset="0" stop-color="#f8fafc"/>
      <stop offset="1" stop-color="#eef6f8"/>
    </linearGradient>
    <linearGradient id="accent-bar3d_basic" x1="0" x2="1" y1="0" y2="0">
      <stop offset="0" stop-color="#2563eb"/>
      <stop offset="0.52" stop-color="#14b8a6"/>
      <stop offset="1" stop-color="#f59e0b"/>
    </linearGradient>
    <filter id="shadow-bar3d_basic" x="-20%" y="-20%" width="140%" height="140%">
      <feDropShadow dx="0" dy="10" stdDeviation="14" flood-color="#0f172a" flood-opacity="0.12"/>
    </filter>
  </defs>
  <rect width="640" height="420" rx="30" fill="url(#bg-bar3d_basic)"/>
  <rect x="34" y="28" width="572" height="348" rx="26" fill="#ffffff" filter="url(#shadow-bar3d_basic)"/>
  <text x="58" y="68" font-family="Inter, ui-sans-serif, system-ui, sans-serif" font-size="22" font-weight="720" fill="#0f172a">3D bar</text>
  <text x="58" y="94" font-family="Inter, ui-sans-serif, system-ui, sans-serif" font-size="13" fill="#64748b">3D and GL</text>
  <g transform="translate(58 112)">
    <polygon points="86,90.56483102636412 104,80.56483102636412 124,90.56483102636412 106,100.56483102636412" fill="#2563eb"/><polygon points="86,90.56483102636412 106,100.56483102636412 106,198 86,188" fill="#2563eb" opacity=".72"/><polygon points="106,100.56483102636412 124,90.56483102636412 124,188 106,198" fill="#2563eb" opacity=".5"/><polygon points="136,131.0623130686581 154,121.06231306865811 174,131.0623130686581 156,141.0623130686581" fill="#14b8a6"/><polygon points="136,131.0623130686581 156,141.0623130686581 156,198 136,188" fill="#14b8a6" opacity=".72"/><polygon points="156,141.0623130686581 174,131.0623130686581 174,188 156,198" fill="#14b8a6" opacity=".5"/><polygon points="186,166.35876248171553 204,156.35876248171553 224,166.35876248171553 206,176.35876248171553" fill="#f59e0b"/><polygon points="186,166.35876248171553 206,176.35876248171553 206,198 186,188" fill="#f59e0b" opacity=".72"/><polygon points="206,176.35876248171553 224,166.35876248171553 224,188 206,198" fill="#f59e0b" opacity=".5"/><polygon points="236,142.8180318782106 254,132.8180318782106 274,142.8180318782106 256,152.8180318782106" fill="#ef4444"/><polygon points="236,142.8180318782106 256,152.8180318782106 256,198 236,188" fill="#ef4444" opacity=".72"/><polygon points="256,152.8180318782106 274,142.8180318782106 274,188 256,198" fill="#ef4444" opacity=".5"/><polygon points="286,102.21023284131661 304,92.21023284131661 324,102.21023284131661 306,112.21023284131661" fill="#8b5cf6"/><polygon points="286,102.21023284131661 306,112.21023284131661 306,198 286,188" fill="#8b5cf6" opacity=".72"/><polygon points="306,112.21023284131661 324,102.21023284131661 324,188 306,198" fill="#8b5cf6" opacity=".5"/><polygon points="336,137.51834686659276 354,127.51834686659276 374,137.51834686659276 356,147.51834686659276" fill="#22c55e"/><polygon points="336,137.51834686659276 356,147.51834686659276 356,198 336,188" fill="#22c55e" opacity=".72"/><polygon points="356,147.51834686659276 374,137.51834686659276 374,188 356,198" fill="#22c55e" opacity=".5"/><polygon points="386,94.0162696572952 404,84.0162696572952 424,94.0162696572952 406,104.0162696572952" fill="#0ea5e9"/><polygon points="386,94.0162696572952 406,104.0162696572952 406,198 386,188" fill="#0ea5e9" opacity=".72"/><polygon points="406,104.0162696572952 424,94.0162696572952 424,188 406,198" fill="#0ea5e9" opacity=".5"/><polygon points="108,146.94946362357587 126,136.94946362357587 146,146.94946362357587 128,156.94946362357587" fill="#14b8a6"/><polygon points="108,146.94946362357587 128,156.94946362357587 128,180 108,170" fill="#14b8a6" opacity=".72"/><polygon points="128,156.94946362357587 146,146.94946362357587 146,170 128,180" fill="#14b8a6" opacity=".5"/><polygon points="158,133.63618695409968 176,123.63618695409968 196,133.63618695409968 178,143.63618695409968" fill="#f59e0b"/><polygon points="158,133.63618695409968 178,143.63618695409968 178,180 158,170" fill="#f59e0b" opacity=".72"/><polygon points="178,143.63618695409968 196,133.63618695409968 196,170 178,180" fill="#f59e0b" opacity=".5"/><polygon points="208,73.78792711347342 226,63.787927113473415 246,73.78792711347342 228,83.78792711347342" fill="#ef4444"/><polygon points="208,73.78792711347342 228,83.78792711347342 228,180 208,170" fill="#ef4444" opacity=".72"/><polygon points="228,83.78792711347342 246,73.78792711347342 246,170 228,180" fill="#ef4444" opacity=".5"/><polygon points="258,109.07670867210254 276,99.07670867210254 296,109.07670867210254 278,119.07670867210254" fill="#8b5cf6"/><polygon points="258,109.07670867210254 278,119.07670867210254 278,180 258,170" fill="#8b5cf6" opacity=".72"/><polygon points="278,119.07670867210254 296,109.07670867210254 296,170 278,180" fill="#8b5cf6" opacity=".5"/><polygon points="308,136.20058581698686 326,126.20058581698686 346,136.20058581698686 328,146.20058581698686" fill="#22c55e"/><polygon points="308,136.20058581698686 328,146.20058581698686 328,180 308,170" fill="#22c55e" opacity=".72"/><polygon points="328,146.20058581698686 346,136.20058581698686 346,170 328,180" fill="#22c55e" opacity=".5"/><polygon points="358,141.80517438659444 376,131.80517438659444 396,141.80517438659444 378,151.80517438659444" fill="#0ea5e9"/><polygon points="358,141.80517438659444 378,151.80517438659444 378,180 358,170" fill="#0ea5e9" opacity=".72"/><polygon points="378,151.80517438659444 396,141.80517438659444 396,170 378,180" fill="#0ea5e9" opacity=".5"/><polygon points="408,97.59400045312941 426,87.59400045312941 446,97.59400045312941 428,107.59400045312941" fill="#f97316"/><polygon points="408,97.59400045312941 428,107.59400045312941 428,180 408,170" fill="#f97316" opacity=".72"/><polygon points="428,107.59400045312941 446,97.59400045312941 446,170 428,180" fill="#f97316" opacity=".5"/><polygon points="130,105.30239956779405 148,95.30239956779405 168,105.30239956779405 150,115.30239956779405" fill="#f59e0b"/><polygon points="130,105.30239956779405 150,115.30239956779405 150,162 130,152" fill="#f59e0b" opacity=".72"/><polygon points="150,115.30239956779405 168,105.30239956779405 168,152 150,162" fill="#f59e0b" opacity=".5"/><polygon points="180,68.338736734353 198,58.338736734353006 218,68.338736734353 200,78.338736734353" fill="#ef4444"/><polygon points="180,68.338736734353 200,78.338736734353 200,162 180,152" fill="#ef4444" opacity=".72"/><polygon points="200,78.338736734353 218,68.338736734353 218,152 200,162" fill="#ef4444" opacity=".5"/><polygon points="230,107.4609032724984 248,97.4609032724984 268,107.4609032724984 250,117.4609032724984" fill="#8b5cf6"/><polygon points="230,107.4609032724984 250,117.4609032724984 250,162 230,152" fill="#8b5cf6" opacity=".72"/><polygon points="250,117.4609032724984 268,107.4609032724984 268,152 250,162" fill="#8b5cf6" opacity=".5"/><polygon points="280,129.71780973300338 298,119.71780973300338 318,129.71780973300338 300,139.71780973300338" fill="#22c55e"/><polygon points="280,129.71780973300338 300,139.71780973300338 300,162 280,152" fill="#22c55e" opacity=".72"/><polygon points="300,139.71780973300338 318,129.71780973300338 318,152 300,162" fill="#22c55e" opacity=".5"/><polygon points="330,54.94398178299889 348,44.94398178299889 368,54.94398178299889 350,64.94398178299889" fill="#0ea5e9"/><polygon points="330,54.94398178299889 350,64.94398178299889 350,162 330,152" fill="#0ea5e9" opacity=".72"/><polygon points="350,64.94398178299889 368,54.94398178299889 368,152 350,162" fill="#0ea5e9" opacity=".5"/><polygon points="380,46.97550056222826 398,36.97550056222826 418,46.97550056222826 400,56.97550056222826" fill="#f97316"/><polygon points="380,46.97550056222826 400,56.97550056222826 400,162 380,152" fill="#f97316" opacity=".72"/><polygon points="400,56.97550056222826 418,46.97550056222826 418,152 400,162" fill="#f97316" opacity=".5"/><polygon points="430,90.77149733388796 448,80.77149733388796 468,90.77149733388796 450,100.77149733388796" fill="#2563eb"/><polygon points="430,90.77149733388796 450,100.77149733388796 450,162 430,152" fill="#2563eb" opacity=".72"/><polygon points="450,100.77149733388796 468,90.77149733388796 468,152 450,162" fill="#2563eb" opacity=".5"/><polygon points="152,70.29784419946373 170,60.297844199463725 190,70.29784419946373 172,80.29784419946373" fill="#ef4444"/><polygon points="152,70.29784419946373 172,80.29784419946373 172,144 152,134" fill="#ef4444" opacity=".72"/><polygon points="172,80.29784419946373 190,70.29784419946373 190,134 172,144" fill="#ef4444" opacity=".5"/><polygon points="202,34.81426669238135 220,24.814266692381352 240,34.81426669238135 222,44.81426669238135" fill="#8b5cf6"/><polygon points="202,34.81426669238135 222,44.81426669238135 222,144 202,134" fill="#8b5cf6" opacity=".72"/><polygon points="222,44.81426669238135 240,34.81426669238135 240,134 222,144" fill="#8b5cf6" opacity=".5"/><polygon points="252,70.96429040562361 270,60.964290405623615 290,70.96429040562361 272,80.96429040562361" fill="#22c55e"/><polygon points="252,70.96429040562361 272,80.96429040562361 272,144 252,134" fill="#22c55e" opacity=".72"/><polygon points="272,80.96429040562361 290,70.96429040562361 290,134 272,144" fill="#22c55e" opacity=".5"/><polygon points="302,37.18557498278096 320,27.185574982780963 340,37.18557498278096 322,47.18557498278096" fill="#0ea5e9"/><polygon points="302,37.18557498278096 322,47.18557498278096 322,144 302,134" fill="#0ea5e9" opacity=".72"/><polygon points="322,47.18557498278096 340,37.18557498278096 340,134 322,144" fill="#0ea5e9" opacity=".5"/><polygon points="352,30.89636781811714 370,20.89636781811714 390,30.89636781811714 372,40.89636781811714" fill="#f97316"/><polygon points="352,30.89636781811714 372,40.89636781811714 372,144 352,134" fill="#f97316" opacity=".72"/><polygon points="372,40.89636781811714 390,30.89636781811714 390,134 372,144" fill="#f97316" opacity=".5"/><polygon points="402,96.3406057707034 420,86.3406057707034 440,96.3406057707034 422,106.3406057707034" fill="#2563eb"/><polygon points="402,96.3406057707034 422,106.3406057707034 422,144 402,134" fill="#2563eb" opacity=".72"/><polygon points="422,106.3406057707034 440,96.3406057707034 440,134 422,144" fill="#2563eb" opacity=".5"/><polygon points="452,46.51863442081958 470,36.51863442081958 490,46.51863442081958 472,56.51863442081958" fill="#14b8a6"/><polygon points="452,46.51863442081958 472,56.51863442081958 472,144 452,134" fill="#14b8a6" opacity=".72"/><polygon points="472,56.51863442081958 490,46.51863442081958 490,134 472,144" fill="#14b8a6" opacity=".5"/>
  </g>
</svg>
