<?xml version="1.0" encoding="UTF-8"?>
<svg xmlns="http://www.w3.org/2000/svg" width="640" height="420" viewBox="0 0 640 420" role="img" aria-labelledby="title-boxplot_basic">
  <title id="title-boxplot_basic">Boxplot chart preview</title>
  <defs>
    <linearGradient id="bg-boxplot_basic" x1="0" x2="1" y1="0" y2="1">
      <stop offset="0" stop-color="#f8fafc"/>
      <stop offset="1" stop-color="#eef6f8"/>
    </linearGradient>
    <linearGradient id="accent-boxplot_basic" x1="0" x2="1" y1="0" y2="0">
      <stop offset="0" stop-color="#2563eb"/>
      <stop offset="0.52" stop-color="#14b8a6"/>
      <stop offset="1" stop-color="#f59e0b"/>
    </linearGradient>
    <filter id="shadow-boxplot_basic" x="-20%" y="-20%" width="140%" height="140%">
      <feDropShadow dx="0" dy="10" stdDeviation="14" flood-color="#0f172a" flood-opacity="0.12"/>
    </filter>
  </defs>
  <rect width="640" height="420" rx="30" fill="url(#bg-boxplot_basic)"/>
  <rect x="34" y="28" width="572" height="348" rx="26" fill="#ffffff" filter="url(#shadow-boxplot_basic)"/>
  <text x="58" y="68" font-family="Inter, ui-sans-serif, system-ui, sans-serif" font-size="22" font-weight="720" fill="#0f172a">Boxplot</text>
  <text x="58" y="94" font-family="Inter, ui-sans-serif, system-ui, sans-serif" font-size="13" fill="#64748b">Statistical and finance</text>
  <g transform="translate(58 112)">
    <g><line x1="48" y1="24" x2="462" y2="24" stroke="#dbe4ef" stroke-width="1"/><line x1="48" y1="72" x2="462" y2="72" stroke="#dbe4ef" stroke-width="1"/><line x1="48" y1="120" x2="462" y2="120" stroke="#dbe4ef" stroke-width="1"/><line x1="48" y1="168" x2="462" y2="168" stroke="#dbe4ef" stroke-width="1"/><line x1="48" y1="216" x2="462" y2="216" stroke="#dbe4ef" stroke-width="1"/><line x1="48" y1="216" x2="462" y2="216" stroke="#94a3b8"/><line x1="48" y1="24" x2="48" y2="216" stroke="#94a3b8"/></g><line x1="90" y1="40.44612667383626" x2="90" y2="173.72217559814453" stroke="#0f172a"/><rect x="70" y="62.44612667383626" width="40" height="83.27604892430827" fill="#bfdbfe" stroke="#2563eb" stroke-width="3"/><line x1="68" y1="104.0841511359904" x2="112" y2="104.0841511359904" stroke="#ef4444" stroke-width="3"/><line x1="162" y1="36.41883358871564" x2="162" y2="179.98430756293237" stroke="#0f172a"/><rect x="142" y="58.41883358871564" width="40" height="93.56547397421673" fill="#bfdbfe" stroke="#2563eb" stroke-width="3"/><line x1="140" y1="105.20157057582401" x2="184" y2="105.20157057582401" stroke="#ef4444" stroke-width="3"/><line x1="234" y1="43.29985441127792" x2="234" y2="158.177777107805" stroke="#0f172a"/><rect x="214" y="65.29985441127792" width="40" height="64.8779226965271" fill="#bfdbfe" stroke="#2563eb" stroke-width="3"/><line x1="212" y1="97.73881575954147" x2="256" y2="97.73881575954147" stroke="#ef4444" stroke-width="3"/><line x1="306" y1="63.24429812980816" x2="306" y2="165.70029634423554" stroke="#0f172a"/><rect x="286" y="85.24429812980816" width="40" height="52.45599821442738" fill="#bfdbfe" stroke="#2563eb" stroke-width="3"/><line x1="284" y1="111.47229723702185" x2="328" y2="111.47229723702185" stroke="#ef4444" stroke-width="3"/><line x1="378" y1="53.06122585432604" x2="378" y2="169.49336152523756" stroke="#0f172a"/><rect x="358" y="75.06122585432604" width="40" height="66.43213567091152" fill="#bfdbfe" stroke="#2563eb" stroke-width="3"/><line x1="356" y1="108.2772936897818" x2="400" y2="108.2772936897818" stroke="#ef4444" stroke-width="3"/>
  </g>
</svg>
