<?xml version="1.0" encoding="UTF-8"?>
<svg xmlns="http://www.w3.org/2000/svg" width="640" height="420" viewBox="0 0 640 420" role="img" aria-labelledby="title-brush_select">
  <title id="title-brush_select">Brush selection chart preview</title>
  <defs>
    <linearGradient id="bg-brush_select" x1="0" x2="1" y1="0" y2="1">
      <stop offset="0" stop-color="#f8fafc"/>
      <stop offset="1" stop-color="#eef6f8"/>
    </linearGradient>
    <linearGradient id="accent-brush_select" x1="0" x2="1" y1="0" y2="0">
      <stop offset="0" stop-color="#2563eb"/>
      <stop offset="0.52" stop-color="#14b8a6"/>
      <stop offset="1" stop-color="#f59e0b"/>
    </linearGradient>
    <filter id="shadow-brush_select" x="-20%" y="-20%" width="140%" height="140%">
      <feDropShadow dx="0" dy="10" stdDeviation="14" flood-color="#0f172a" flood-opacity="0.12"/>
    </filter>
  </defs>
  <rect width="640" height="420" rx="30" fill="url(#bg-brush_select)"/>
  <rect x="34" y="28" width="572" height="348" rx="26" fill="#ffffff" filter="url(#shadow-brush_select)"/>
  <text x="58" y="68" font-family="Inter, ui-sans-serif, system-ui, sans-serif" font-size="22" font-weight="720" fill="#0f172a">Brush selection</text>
  <text x="58" y="94" font-family="Inter, ui-sans-serif, system-ui, sans-serif" font-size="13" fill="#64748b">Data pipeline and interaction</text>
  <g transform="translate(58 112)">
    <g><line x1="48" y1="24" x2="462" y2="24" stroke="#dbe4ef" stroke-width="1"/><line x1="48" y1="72" x2="462" y2="72" stroke="#dbe4ef" stroke-width="1"/><line x1="48" y1="120" x2="462" y2="120" stroke="#dbe4ef" stroke-width="1"/><line x1="48" y1="168" x2="462" y2="168" stroke="#dbe4ef" stroke-width="1"/><line x1="48" y1="216" x2="462" y2="216" stroke="#dbe4ef" stroke-width="1"/><line x1="48" y1="216" x2="462" y2="216" stroke="#94a3b8"/><line x1="48" y1="24" x2="48" y2="216" stroke="#94a3b8"/></g><circle cx="246.42888274462894" cy="44.1173395793885" r="6" fill="#2563eb" opacity=".78"/><circle cx="193.83151165535673" cy="117.34077328909189" r="6" fill="#14b8a6" opacity=".78"/><circle cx="408.80821162322536" cy="168.71697694435716" r="6" fill="#f59e0b" opacity=".78"/><circle cx="285.1643017786555" cy="116.71859052311629" r="6" fill="#ef4444" opacity=".78"/><circle cx="147.96862483071163" cy="146.11978054977953" r="6" fill="#8b5cf6" opacity=".78"/><circle cx="382.08283249801025" cy="125.45592255983502" r="6" fill="#22c55e" opacity=".78"/><circle cx="347.34109208220616" cy="164.15134386718273" r="6" fill="#0ea5e9" opacity=".78"/><circle cx="362.36971613718197" cy="171.7055074935779" r="6" fill="#f97316" opacity=".78"/><circle cx="314.02254531206563" cy="69.16200249455869" r="6" fill="#2563eb" opacity=".78"/><circle cx="90.09736757120118" cy="177.02806529123336" r="6" fill="#14b8a6" opacity=".78"/><circle cx="305.5162351191975" cy="186.2400909923017" r="6" fill="#f59e0b" opacity=".78"/><circle cx="73.62324348418042" cy="115.05770306568593" r="6" fill="#ef4444" opacity=".78"/><circle cx="380.80216533737257" cy="197.2904340941459" r="6" fill="#8b5cf6" opacity=".78"/><circle cx="79.36828475212678" cy="115.39192972425371" r="6" fill="#22c55e" opacity=".78"/><circle cx="406.7688557305373" cy="138.07182229310274" r="6" fill="#0ea5e9" opacity=".78"/><circle cx="387.6598119507544" cy="169.55002999212593" r="6" fill="#f97316" opacity=".78"/><circle cx="357.5376828131266" cy="188.78722180239856" r="6" fill="#2563eb" opacity=".78"/><circle cx="437.42012398829684" cy="83.34354781080037" r="6" fill="#14b8a6" opacity=".78"/><circle cx="140.71104879537597" cy="80.32046889141202" r="6" fill="#f59e0b" opacity=".78"/><circle cx="124.98204986331984" cy="43.502629111520946" r="6" fill="#ef4444" opacity=".78"/><circle cx="211.07562865363434" cy="83.71319859661162" r="6" fill="#8b5cf6" opacity=".78"/><circle cx="240.8127035475336" cy="151.90197396371514" r="6" fill="#22c55e" opacity=".78"/><circle cx="82.79194532567635" cy="59.97575780749321" r="6" fill="#0ea5e9" opacity=".78"/><circle cx="168.42669199360535" cy="164.23014809843153" r="6" fill="#f97316" opacity=".78"/><circle cx="439.60152303101495" cy="196.82585272751749" r="6" fill="#2563eb" opacity=".78"/><circle cx="330.27002626797184" cy="77.4460038067773" r="6" fill="#14b8a6" opacity=".78"/><circle cx="357.08286871621385" cy="146.44868071004748" r="6" fill="#f59e0b" opacity=".78"/><circle cx="363.8559858086519" cy="195.86596021335572" r="6" fill="#ef4444" opacity=".78"/><circle cx="161.48753162520006" cy="111.87229646928608" r="6" fill="#8b5cf6" opacity=".78"/><circle cx="319.9341858080588" cy="135.22589292470366" r="6" fill="#22c55e" opacity=".78"/><circle cx="88.18749099457636" cy="43.05196266621351" r="6" fill="#0ea5e9" opacity=".78"/><circle cx="304.974097720813" cy="55.56138305272907" r="6" fill="#f97316" opacity=".78"/><rect x="158" y="64" width="176" height="108" rx="8" fill="#2563eb" opacity=".12" stroke="#2563eb" stroke-dasharray="5 4"/>
  </g>
</svg>
