<?xml version="1.0" encoding="UTF-8"?>
<svg xmlns="http://www.w3.org/2000/svg" width="640" height="420" viewBox="0 0 640 420" role="img" aria-labelledby="title-calendar_range">
  <title id="title-calendar_range">Calendar range chart preview</title>
  <defs>
    <linearGradient id="bg-calendar_range" x1="0" x2="1" y1="0" y2="1">
      <stop offset="0" stop-color="#f8fafc"/>
      <stop offset="1" stop-color="#eef6f8"/>
    </linearGradient>
    <linearGradient id="accent-calendar_range" x1="0" x2="1" y1="0" y2="0">
      <stop offset="0" stop-color="#2563eb"/>
      <stop offset="0.52" stop-color="#14b8a6"/>
      <stop offset="1" stop-color="#f59e0b"/>
    </linearGradient>
    <filter id="shadow-calendar_range" x="-20%" y="-20%" width="140%" height="140%">
      <feDropShadow dx="0" dy="10" stdDeviation="14" flood-color="#0f172a" flood-opacity="0.12"/>
    </filter>
  </defs>
  <rect width="640" height="420" rx="30" fill="url(#bg-calendar_range)"/>
  <rect x="34" y="28" width="572" height="348" rx="26" fill="#ffffff" filter="url(#shadow-calendar_range)"/>
  <text x="58" y="68" font-family="Inter, ui-sans-serif, system-ui, sans-serif" font-size="22" font-weight="720" fill="#0f172a">Calendar range</text>
  <text x="58" y="94" font-family="Inter, ui-sans-serif, system-ui, sans-serif" font-size="13" fill="#64748b">Geographic and calendar</text>
  <g transform="translate(58 112)">
    <rect x="58" y="32" width="24" height="22" rx="5" fill="#e2e8f0" opacity="0.7"/><rect x="90" y="32" width="24" height="22" rx="5" fill="#e2e8f0" opacity="0.7"/><rect x="122" y="32" width="24" height="22" rx="5" fill="#e2e8f0" opacity="0.7"/><rect x="154" y="32" width="24" height="22" rx="5" fill="#e2e8f0" opacity="0.7"/><rect x="186" y="32" width="24" height="22" rx="5" fill="#e2e8f0" opacity="0.7"/><rect x="218" y="32" width="24" height="22" rx="5" fill="#e2e8f0" opacity="0.7"/><rect x="250" y="32" width="24" height="22" rx="5" fill="#e2e8f0" opacity="0.7"/><rect x="282" y="32" width="24" height="22" rx="5" fill="#e2e8f0" opacity="0.7"/><rect x="314" y="32" width="24" height="22" rx="5" fill="#e2e8f0" opacity="0.7"/><rect x="346" y="32" width="24" height="22" rx="5" fill="#e2e8f0" opacity="0.7"/><rect x="378" y="32" width="24" height="22" rx="5" fill="#e2e8f0" opacity="0.7"/><rect x="410" y="32" width="24" height="22" rx="5" fill="#e2e8f0" opacity="0.7"/><rect x="58" y="62" width="24" height="22" rx="5" fill="#e2e8f0" opacity="0.7"/><rect x="90" y="62" width="24" height="22" rx="5" fill="#e2e8f0" opacity="0.7"/><rect x="122" y="62" width="24" height="22" rx="5" fill="#e2e8f0" opacity="0.7"/><rect x="154" y="62" width="24" height="22" rx="5" fill="#e2e8f0" opacity="0.7"/><rect x="186" y="62" width="24" height="22" rx="5" fill="#e2e8f0" opacity="0.7"/><rect x="218" y="62" width="24" height="22" rx="5" fill="#e2e8f0" opacity="0.7"/><rect x="250" y="62" width="24" height="22" rx="5" fill="#e2e8f0" opacity="0.7"/><rect x="282" y="62" width="24" height="22" rx="5" fill="#e2e8f0" opacity="0.7"/><rect x="314" y="62" width="24" height="22" rx="5" fill="#e2e8f0" opacity="0.7"/><rect x="346" y="62" width="24" height="22" rx="5" fill="#e2e8f0" opacity="0.7"/><rect x="378" y="62" width="24" height="22" rx="5" fill="#e2e8f0" opacity="0.7"/><rect x="410" y="62" width="24" height="22" rx="5" fill="#e2e8f0" opacity="0.7"/><rect x="58" y="92" width="24" height="22" rx="5" fill="#e2e8f0" opacity="0.7"/><rect x="90" y="92" width="24" height="22" rx="5" fill="#e2e8f0" opacity="0.7"/><rect x="122" y="92" width="24" height="22" rx="5" fill="#e2e8f0" opacity="0.7"/><rect x="154" y="92" width="24" height="22" rx="5" fill="#22c55e" opacity="0.82"/><rect x="186" y="92" width="24" height="22" rx="5" fill="#0ea5e9" opacity="0.82"/><rect x="218" y="92" width="24" height="22" rx="5" fill="#f97316" opacity="0.82"/><rect x="250" y="92" width="24" height="22" rx="5" fill="#2563eb" opacity="0.82"/><rect x="282" y="92" width="24" height="22" rx="5" fill="#14b8a6" opacity="0.82"/><rect x="314" y="92" width="24" height="22" rx="5" fill="#e2e8f0" opacity="0.7"/><rect x="346" y="92" width="24" height="22" rx="5" fill="#e2e8f0" opacity="0.7"/><rect x="378" y="92" width="24" height="22" rx="5" fill="#e2e8f0" opacity="0.7"/><rect x="410" y="92" width="24" height="22" rx="5" fill="#e2e8f0" opacity="0.7"/><rect x="58" y="122" width="24" height="22" rx="5" fill="#e2e8f0" opacity="0.7"/><rect x="90" y="122" width="24" height="22" rx="5" fill="#e2e8f0" opacity="0.7"/><rect x="122" y="122" width="24" height="22" rx="5" fill="#e2e8f0" opacity="0.7"/><rect x="154" y="122" width="24" height="22" rx="5" fill="#0ea5e9" opacity="0.82"/><rect x="186" y="122" width="24" height="22" rx="5" fill="#f97316" opacity="0.82"/><rect x="218" y="122" width="24" height="22" rx="5" fill="#2563eb" opacity="0.82"/><rect x="250" y="122" width="24" height="22" rx="5" fill="#14b8a6" opacity="0.82"/><rect x="282" y="122" width="24" height="22" rx="5" fill="#f59e0b" opacity="0.82"/><rect x="314" y="122" width="24" height="22" rx="5" fill="#e2e8f0" opacity="0.7"/><rect x="346" y="122" width="24" height="22" rx="5" fill="#e2e8f0" opacity="0.7"/><rect x="378" y="122" width="24" height="22" rx="5" fill="#e2e8f0" opacity="0.7"/><rect x="410" y="122" width="24" height="22" rx="5" fill="#e2e8f0" opacity="0.7"/><rect x="58" y="152" width="24" height="22" rx="5" fill="#e2e8f0" opacity="0.7"/><rect x="90" y="152" width="24" height="22" rx="5" fill="#e2e8f0" opacity="0.7"/><rect x="122" y="152" width="24" height="22" rx="5" fill="#e2e8f0" opacity="0.7"/><rect x="154" y="152" width="24" height="22" rx="5" fill="#f97316" opacity="0.82"/><rect x="186" y="152" width="24" height="22" rx="5" fill="#2563eb" opacity="0.82"/><rect x="218" y="152" width="24" height="22" rx="5" fill="#14b8a6" opacity="0.82"/><rect x="250" y="152" width="24" height="22" rx="5" fill="#f59e0b" opacity="0.82"/><rect x="282" y="152" width="24" height="22" rx="5" fill="#ef4444" opacity="0.82"/><rect x="314" y="152" width="24" height="22" rx="5" fill="#e2e8f0" opacity="0.7"/><rect x="346" y="152" width="24" height="22" rx="5" fill="#e2e8f0" opacity="0.7"/><rect x="378" y="152" width="24" height="22" rx="5" fill="#e2e8f0" opacity="0.7"/><rect x="410" y="152" width="24" height="22" rx="5" fill="#e2e8f0" opacity="0.7"/><rect x="58" y="182" width="24" height="22" rx="5" fill="#e2e8f0" opacity="0.7"/><rect x="90" y="182" width="24" height="22" rx="5" fill="#e2e8f0" opacity="0.7"/><rect x="122" y="182" width="24" height="22" rx="5" fill="#e2e8f0" opacity="0.7"/><rect x="154" y="182" width="24" height="22" rx="5" fill="#e2e8f0" opacity="0.7"/><rect x="186" y="182" width="24" height="22" rx="5" fill="#e2e8f0" opacity="0.7"/><rect x="218" y="182" width="24" height="22" rx="5" fill="#e2e8f0" opacity="0.7"/><rect x="250" y="182" width="24" height="22" rx="5" fill="#e2e8f0" opacity="0.7"/><rect x="282" y="182" width="24" height="22" rx="5" fill="#e2e8f0" opacity="0.7"/><rect x="314" y="182" width="24" height="22" rx="5" fill="#e2e8f0" opacity="0.7"/><rect x="346" y="182" width="24" height="22" rx="5" fill="#e2e8f0" opacity="0.7"/><rect x="378" y="182" width="24" height="22" rx="5" fill="#e2e8f0" opacity="0.7"/><rect x="410" y="182" width="24" height="22" rx="5" fill="#e2e8f0" opacity="0.7"/>
  </g>
</svg>
