<?xml version="1.0" encoding="UTF-8"?>
<svg xmlns="http://www.w3.org/2000/svg" width="640" height="420" viewBox="0 0 640 420" role="img" aria-labelledby="title-candlestick_basic">
  <title id="title-candlestick_basic">Candlestick chart preview</title>
  <defs>
    <linearGradient id="bg-candlestick_basic" x1="0" x2="1" y1="0" y2="1">
      <stop offset="0" stop-color="#f8fafc"/>
      <stop offset="1" stop-color="#eef6f8"/>
    </linearGradient>
    <linearGradient id="accent-candlestick_basic" x1="0" x2="1" y1="0" y2="0">
      <stop offset="0" stop-color="#2563eb"/>
      <stop offset="0.52" stop-color="#14b8a6"/>
      <stop offset="1" stop-color="#f59e0b"/>
    </linearGradient>
    <filter id="shadow-candlestick_basic" x="-20%" y="-20%" width="140%" height="140%">
      <feDropShadow dx="0" dy="10" stdDeviation="14" flood-color="#0f172a" flood-opacity="0.12"/>
    </filter>
  </defs>
  <rect width="640" height="420" rx="30" fill="url(#bg-candlestick_basic)"/>
  <rect x="34" y="28" width="572" height="348" rx="26" fill="#ffffff" filter="url(#shadow-candlestick_basic)"/>
  <text x="58" y="68" font-family="Inter, ui-sans-serif, system-ui, sans-serif" font-size="22" font-weight="720" fill="#0f172a">Candlestick</text>
  <text x="58" y="94" font-family="Inter, ui-sans-serif, system-ui, sans-serif" font-size="13" fill="#64748b">Statistical and finance</text>
  <g transform="translate(58 112)">
    <g><line x1="48" y1="24" x2="462" y2="24" stroke="#dbe4ef" stroke-width="1"/><line x1="48" y1="72" x2="462" y2="72" stroke="#dbe4ef" stroke-width="1"/><line x1="48" y1="120" x2="462" y2="120" stroke="#dbe4ef" stroke-width="1"/><line x1="48" y1="168" x2="462" y2="168" stroke="#dbe4ef" stroke-width="1"/><line x1="48" y1="216" x2="462" y2="216" stroke="#dbe4ef" stroke-width="1"/><line x1="48" y1="216" x2="462" y2="216" stroke="#94a3b8"/><line x1="48" y1="24" x2="48" y2="216" stroke="#94a3b8"/></g><line x1="64" y1="45.081537899561226" x2="64" y2="152.75782558275387" stroke="#0f172a"/><rect x="55" y="94.36961631570011" width="18" height="5.601623536087573" fill="#ef4444"/><line x1="96" y1="46.421756765805185" x2="96" y2="187.2401606417261" stroke="#0f172a"/><rect x="87" y="105.73240027576685" width="18" height="14.007146938703954" fill="#14b8a6"/><line x1="128" y1="61.210414425469935" x2="128" y2="175.32494294224307" stroke="#0f172a"/><rect x="119" y="93.23229789547622" width="18" height="43.481811492703855" fill="#14b8a6"/><line x1="160" y1="58.455825488083065" x2="160" y2="197.45769813051447" stroke="#0f172a"/><rect x="151" y="93.8958799727261" width="18" height="40.38276059832424" fill="#14b8a6"/><line x1="192" y1="67.71260735858232" x2="192" y2="191.06300916476175" stroke="#0f172a"/><rect x="183" y="120.58311320189387" width="18" height="2.0324106821790338" fill="#ef4444"/><line x1="224" y1="76.4113921513781" x2="224" y2="184.56197236990556" stroke="#0f172a"/><rect x="215" y="99.98742251005024" width="18" height="44.520816759206355" fill="#ef4444"/><line x1="256" y1="82.51080422941595" x2="256" y2="152.18457536725327" stroke="#0f172a"/><rect x="247" y="118.61622955463827" width="18" height="6.168179421685636" fill="#14b8a6"/><line x1="288" y1="56.377953368239105" x2="288" y2="172.54574687918648" stroke="#0f172a"/><rect x="279" y="95.69436516892165" width="18" height="27.200197682715952" fill="#ef4444"/><line x1="320" y1="78.30369354505092" x2="320" y2="163.4538284088485" stroke="#0f172a"/><rect x="311" y="146.32970223017037" width="18" height="12.39507472421974" fill="#14b8a6"/><line x1="352" y1="80.55889735277742" x2="352" y2="154.92021779483184" stroke="#0f172a"/><rect x="343" y="135.53264536708593" width="18" height="3.956403716467321" fill="#14b8a6"/><line x1="384" y1="85.3979960391298" x2="384" y2="155.83893464086577" stroke="#0f172a"/><rect x="375" y="139.5779651524499" width="18" height="15.072458417154849" fill="#ef4444"/><line x1="416" y1="42.91603517066687" x2="416" y2="173.30485762050375" stroke="#0f172a"/><rect x="407" y="81.07763193827122" width="18" height="29.86207823548466" fill="#ef4444"/>
  </g>
</svg>
