<?xml version="1.0" encoding="UTF-8"?>
<svg xmlns="http://www.w3.org/2000/svg" width="640" height="420" viewBox="0 0 640 420" role="img" aria-labelledby="title-dataset_encoded">
  <title id="title-dataset_encoded">Encoded dataset chart preview</title>
  <defs>
    <linearGradient id="bg-dataset_encoded" x1="0" x2="1" y1="0" y2="1">
      <stop offset="0" stop-color="#f8fafc"/>
      <stop offset="1" stop-color="#eef6f8"/>
    </linearGradient>
    <linearGradient id="accent-dataset_encoded" x1="0" x2="1" y1="0" y2="0">
      <stop offset="0" stop-color="#2563eb"/>
      <stop offset="0.52" stop-color="#14b8a6"/>
      <stop offset="1" stop-color="#f59e0b"/>
    </linearGradient>
    <filter id="shadow-dataset_encoded" x="-20%" y="-20%" width="140%" height="140%">
      <feDropShadow dx="0" dy="10" stdDeviation="14" flood-color="#0f172a" flood-opacity="0.12"/>
    </filter>
  </defs>
  <rect width="640" height="420" rx="30" fill="url(#bg-dataset_encoded)"/>
  <rect x="34" y="28" width="572" height="348" rx="26" fill="#ffffff" filter="url(#shadow-dataset_encoded)"/>
  <text x="58" y="68" font-family="Inter, ui-sans-serif, system-ui, sans-serif" font-size="22" font-weight="720" fill="#0f172a">Encoded dataset</text>
  <text x="58" y="94" font-family="Inter, ui-sans-serif, system-ui, sans-serif" font-size="13" fill="#64748b">Data pipeline and interaction</text>
  <g transform="translate(58 112)">
    <g><line x1="48" y1="24" x2="462" y2="24" stroke="#dbe4ef" stroke-width="1"/><line x1="48" y1="72" x2="462" y2="72" stroke="#dbe4ef" stroke-width="1"/><line x1="48" y1="120" x2="462" y2="120" stroke="#dbe4ef" stroke-width="1"/><line x1="48" y1="168" x2="462" y2="168" stroke="#dbe4ef" stroke-width="1"/><line x1="48" y1="216" x2="462" y2="216" stroke="#dbe4ef" stroke-width="1"/><line x1="48" y1="216" x2="462" y2="216" stroke="#94a3b8"/><line x1="48" y1="24" x2="48" y2="216" stroke="#94a3b8"/></g><rect x="64" y="136.3192989435047" width="18" height="79.68070105649531" rx="5" fill="#2563eb"/><rect x="85" y="77.68363203760237" width="18" height="138.31636796239763" rx="5" fill="#14b8a6"/><rect x="118" y="57.799905160441995" width="18" height="158.200094839558" rx="5" fill="#2563eb"/><rect x="139" y="101.57494230568409" width="18" height="114.42505769431591" rx="5" fill="#14b8a6"/><rect x="172" y="104.95333650521934" width="18" height="111.04666349478066" rx="5" fill="#2563eb"/><rect x="193" y="124.77501069102436" width="18" height="91.22498930897564" rx="5" fill="#14b8a6"/><rect x="226" y="163.67600034363568" width="18" height="52.32399965636432" rx="5" fill="#2563eb"/><rect x="247" y="71.63184731639922" width="18" height="144.36815268360078" rx="5" fill="#14b8a6"/><rect x="280" y="72.02202079258859" width="18" height="143.9779792074114" rx="5" fill="#2563eb"/><rect x="301" y="163.01232455205172" width="18" height="52.98767544794828" rx="5" fill="#14b8a6"/><rect x="334" y="136.2445747796446" width="18" height="79.75542522035539" rx="5" fill="#2563eb"/><rect x="355" y="132.4646869339049" width="18" height="83.53531306609511" rx="5" fill="#14b8a6"/><rect x="388" y="107.32856111042202" width="18" height="108.67143888957798" rx="5" fill="#2563eb"/><rect x="409" y="107.11632109154016" width="18" height="108.88367890845984" rx="5" fill="#14b8a6"/><g><line x1="48" y1="24" x2="462" y2="24" stroke="#dbe4ef" stroke-width="1"/><line x1="48" y1="72" x2="462" y2="72" stroke="#dbe4ef" stroke-width="1"/><line x1="48" y1="120" x2="462" y2="120" stroke="#dbe4ef" stroke-width="1"/><line x1="48" y1="168" x2="462" y2="168" stroke="#dbe4ef" stroke-width="1"/><line x1="48" y1="216" x2="462" y2="216" stroke="#dbe4ef" stroke-width="1"/><line x1="48" y1="216" x2="462" y2="216" stroke="#94a3b8"/><line x1="48" y1="24" x2="48" y2="216" stroke="#94a3b8"/></g><path d="M 48 93.72720734775066 L 99.75 188.13867141492665 L 151.5 166.36508752033114 L 203.25 139.63293593935668 L 255 101.02261442691088 L 306.75 111.60711056925356 L 358.5 118.04844352975488 L 410.25 173.79452197812498 L 462 131.02379521727562" fill="none" stroke="#2563eb" stroke-width="4" stroke-linecap="round" stroke-linejoin="round"/><circle cx="48" cy="93.72720734775066" r="4" fill="#fff" stroke="#2563eb" stroke-width="3"/><circle cx="99.75" cy="188.13867141492665" r="4" fill="#fff" stroke="#2563eb" stroke-width="3"/><circle cx="151.5" cy="166.36508752033114" r="4" fill="#fff" stroke="#2563eb" stroke-width="3"/><circle cx="203.25" cy="139.63293593935668" r="4" fill="#fff" stroke="#2563eb" stroke-width="3"/><circle cx="255" cy="101.02261442691088" r="4" fill="#fff" stroke="#2563eb" stroke-width="3"/><circle cx="306.75" cy="111.60711056925356" r="4" fill="#fff" stroke="#2563eb" stroke-width="3"/><circle cx="358.5" cy="118.04844352975488" r="4" fill="#fff" stroke="#2563eb" stroke-width="3"/><circle cx="410.25" cy="173.79452197812498" r="4" fill="#fff" stroke="#2563eb" stroke-width="3"/><circle cx="462" cy="131.02379521727562" r="4" fill="#fff" stroke="#2563eb" stroke-width="3"/>
  </g>
</svg>
