<?xml version="1.0" encoding="UTF-8"?>
<svg xmlns="http://www.w3.org/2000/svg" width="640" height="420" viewBox="0 0 640 420" role="img" aria-labelledby="title-flow_field">
  <title id="title-flow_field">Flow field chart preview</title>
  <defs>
    <linearGradient id="bg-flow_field" x1="0" x2="1" y1="0" y2="1">
      <stop offset="0" stop-color="#f8fafc"/>
      <stop offset="1" stop-color="#eef6f8"/>
    </linearGradient>
    <linearGradient id="accent-flow_field" x1="0" x2="1" y1="0" y2="0">
      <stop offset="0" stop-color="#2563eb"/>
      <stop offset="0.52" stop-color="#14b8a6"/>
      <stop offset="1" stop-color="#f59e0b"/>
    </linearGradient>
    <filter id="shadow-flow_field" x="-20%" y="-20%" width="140%" height="140%">
      <feDropShadow dx="0" dy="10" stdDeviation="14" flood-color="#0f172a" flood-opacity="0.12"/>
    </filter>
  </defs>
  <rect width="640" height="420" rx="30" fill="url(#bg-flow_field)"/>
  <rect x="34" y="28" width="572" height="348" rx="26" fill="#ffffff" filter="url(#shadow-flow_field)"/>
  <text x="58" y="68" font-family="Inter, ui-sans-serif, system-ui, sans-serif" font-size="22" font-weight="720" fill="#0f172a">Flow field</text>
  <text x="58" y="94" font-family="Inter, ui-sans-serif, system-ui, sans-serif" font-size="13" fill="#64748b">3D and GL</text>
  <g transform="translate(58 112)">
    <line x1="70" y1="44" x2="90.2519683829937" y2="50.44023906881556" stroke="#2563eb" stroke-width="3" stroke-linecap="round"/><line x1="114" y1="44" x2="132.2223623661922" y2="29.632312153692126" stroke="#14b8a6" stroke-width="3" stroke-linecap="round"/><line x1="158" y1="44" x2="160.04087161979783" y2="65.05126338432673" stroke="#f59e0b" stroke-width="3" stroke-linecap="round"/><line x1="202" y1="44" x2="225.4376812974894" y2="44.10858162521942" stroke="#ef4444" stroke-width="3" stroke-linecap="round"/><line x1="246" y1="44" x2="225.20930741888208" y2="28.58730370835424" stroke="#8b5cf6" stroke-width="3" stroke-linecap="round"/><line x1="290" y1="44" x2="264.5817625310625" y2="37.44219674278876" stroke="#22c55e" stroke-width="3" stroke-linecap="round"/><line x1="334" y1="44" x2="346.481559421379" y2="70.53928047923819" stroke="#0ea5e9" stroke-width="3" stroke-linecap="round"/><line x1="378" y1="44" x2="402.14428182766414" y2="60.88332287588301" stroke="#f97316" stroke-width="3" stroke-linecap="round"/><line x1="422" y1="44" x2="405.5898810871619" y2="30.520822833594394" stroke="#2563eb" stroke-width="3" stroke-linecap="round"/><line x1="70" y1="74" x2="59.05041762630842" y2="59.96367104860741" stroke="#14b8a6" stroke-width="3" stroke-linecap="round"/><line x1="114" y1="74" x2="101.0188888820402" y2="54.83897298076238" stroke="#f59e0b" stroke-width="3" stroke-linecap="round"/><line x1="158" y1="74" x2="171.3572306255802" y2="61.37677922516168" stroke="#ef4444" stroke-width="3" stroke-linecap="round"/><line x1="202" y1="74" x2="182.56209141908235" y2="83.10358908186572" stroke="#8b5cf6" stroke-width="3" stroke-linecap="round"/><line x1="246" y1="74" x2="225.26637188966114" y2="66.96793202764972" stroke="#22c55e" stroke-width="3" stroke-linecap="round"/><line x1="290" y1="74" x2="271.2760938742841" y2="78.69437541600097" stroke="#0ea5e9" stroke-width="3" stroke-linecap="round"/><line x1="334" y1="74" x2="314.20222182827496" y2="67.09487689638996" stroke="#f97316" stroke-width="3" stroke-linecap="round"/><line x1="378" y1="74" x2="404.04596113744105" y2="72.04607453730767" stroke="#2563eb" stroke-width="3" stroke-linecap="round"/><line x1="422" y1="74" x2="427.01661756573685" y2="46.048809942391664" stroke="#14b8a6" stroke-width="3" stroke-linecap="round"/><line x1="70" y1="104" x2="80.92123014141765" y2="118.05618880734892" stroke="#f59e0b" stroke-width="3" stroke-linecap="round"/><line x1="114" y1="104" x2="139.34005115157407" y2="108.36008386356411" stroke="#ef4444" stroke-width="3" stroke-linecap="round"/><line x1="158" y1="104" x2="181.70881469351616" y2="86.83261210219749" stroke="#8b5cf6" stroke-width="3" stroke-linecap="round"/><line x1="202" y1="104" x2="182.64478105922495" y2="108.40042131856113" stroke="#22c55e" stroke-width="3" stroke-linecap="round"/><line x1="246" y1="104" x2="269.0036255913664" y2="89.46116863090933" stroke="#0ea5e9" stroke-width="3" stroke-linecap="round"/><line x1="290" y1="104" x2="269.72071781931874" y2="119.14717075962032" stroke="#f97316" stroke-width="3" stroke-linecap="round"/><line x1="334" y1="104" x2="321.0698698051519" y2="81.45797138525126" stroke="#2563eb" stroke-width="3" stroke-linecap="round"/><line x1="378" y1="104" x2="364.85939010601396" y2="114.21521039684708" stroke="#14b8a6" stroke-width="3" stroke-linecap="round"/><line x1="422" y1="104" x2="407.1246107045158" y2="95.0293562072707" stroke="#f59e0b" stroke-width="3" stroke-linecap="round"/><line x1="70" y1="134" x2="95.56553401857411" y2="134.14055410657372" stroke="#ef4444" stroke-width="3" stroke-linecap="round"/><line x1="114" y1="134" x2="128.36253271122638" y2="126.54441102416692" stroke="#8b5cf6" stroke-width="3" stroke-linecap="round"/><line x1="158" y1="134" x2="132.67075300187594" y2="120.68645039488055" stroke="#22c55e" stroke-width="3" stroke-linecap="round"/><line x1="202" y1="134" x2="189.6525015076567" y2="114.1251489037004" stroke="#0ea5e9" stroke-width="3" stroke-linecap="round"/><line x1="246" y1="134" x2="262.5028799967181" y2="136.12337220057898" stroke="#f97316" stroke-width="3" stroke-linecap="round"/><line x1="290" y1="134" x2="290.5873848611798" y2="114.15344387330114" stroke="#2563eb" stroke-width="3" stroke-linecap="round"/><line x1="334" y1="134" x2="315.33593097604376" y2="150.60200469949527" stroke="#14b8a6" stroke-width="3" stroke-linecap="round"/><line x1="378" y1="134" x2="361.22373618863156" y2="149.9240668257204" stroke="#f59e0b" stroke-width="3" stroke-linecap="round"/><line x1="422" y1="134" x2="412.3515530250408" y2="117.9869142491746" stroke="#ef4444" stroke-width="3" stroke-linecap="round"/><line x1="70" y1="164" x2="87.79012485033955" y2="172.4402583927726" stroke="#8b5cf6" stroke-width="3" stroke-linecap="round"/><line x1="114" y1="164" x2="112.59533710261218" y2="184.61638865571666" stroke="#22c55e" stroke-width="3" stroke-linecap="round"/><line x1="158" y1="164" x2="175.37581309743388" y2="150.65437336485246" stroke="#0ea5e9" stroke-width="3" stroke-linecap="round"/><line x1="202" y1="164" x2="217.92415003755832" y2="152.04661603670684" stroke="#f97316" stroke-width="3" stroke-linecap="round"/><line x1="246" y1="164" x2="271.84522504594446" y2="171.95301741930788" stroke="#2563eb" stroke-width="3" stroke-linecap="round"/><line x1="290" y1="164" x2="316.9427288785159" y2="162.17312995380914" stroke="#14b8a6" stroke-width="3" stroke-linecap="round"/><line x1="334" y1="164" x2="311.251743132067" y2="163.75107691649848" stroke="#f59e0b" stroke-width="3" stroke-linecap="round"/><line x1="378" y1="164" x2="377.6470142687348" y2="147.14106234310375" stroke="#ef4444" stroke-width="3" stroke-linecap="round"/><line x1="422" y1="164" x2="408.77465318303297" y2="149.96893350276494" stroke="#8b5cf6" stroke-width="3" stroke-linecap="round"/><line x1="70" y1="194" x2="49.355549341160426" y2="191.31064138823686" stroke="#22c55e" stroke-width="3" stroke-linecap="round"/><line x1="114" y1="194" x2="132.06079602647603" y2="181.64620772515048" stroke="#0ea5e9" stroke-width="3" stroke-linecap="round"/><line x1="158" y1="194" x2="167.67362131827798" y2="208.3244349995357" stroke="#f97316" stroke-width="3" stroke-linecap="round"/><line x1="202" y1="194" x2="225.79069516389367" y2="209.76575583465848" stroke="#2563eb" stroke-width="3" stroke-linecap="round"/><line x1="246" y1="194" x2="225.94350053598924" y2="216.11769613425062" stroke="#14b8a6" stroke-width="3" stroke-linecap="round"/><line x1="290" y1="194" x2="263.50295307812934" y2="180.6489309738636" stroke="#f59e0b" stroke-width="3" stroke-linecap="round"/><line x1="334" y1="194" x2="317.6793560514049" y2="204.13462636219052" stroke="#ef4444" stroke-width="3" stroke-linecap="round"/><line x1="378" y1="194" x2="369.7123958762509" y2="178.24160854376905" stroke="#8b5cf6" stroke-width="3" stroke-linecap="round"/><line x1="422" y1="194" x2="397.0901197621584" y2="184.59530911655474" stroke="#22c55e" stroke-width="3" stroke-linecap="round"/>
  </g>
</svg>
