<?xml version="1.0" encoding="UTF-8"?>
<svg xmlns="http://www.w3.org/2000/svg" width="640" height="420" viewBox="0 0 640 420" role="img" aria-labelledby="title-gantt_basic">
  <title id="title-gantt_basic">Gantt chart preview</title>
  <defs>
    <linearGradient id="bg-gantt_basic" x1="0" x2="1" y1="0" y2="1">
      <stop offset="0" stop-color="#f8fafc"/>
      <stop offset="1" stop-color="#eef6f8"/>
    </linearGradient>
    <linearGradient id="accent-gantt_basic" x1="0" x2="1" y1="0" y2="0">
      <stop offset="0" stop-color="#2563eb"/>
      <stop offset="0.52" stop-color="#14b8a6"/>
      <stop offset="1" stop-color="#f59e0b"/>
    </linearGradient>
    <filter id="shadow-gantt_basic" x="-20%" y="-20%" width="140%" height="140%">
      <feDropShadow dx="0" dy="10" stdDeviation="14" flood-color="#0f172a" flood-opacity="0.12"/>
    </filter>
  </defs>
  <rect width="640" height="420" rx="30" fill="url(#bg-gantt_basic)"/>
  <rect x="34" y="28" width="572" height="348" rx="26" fill="#ffffff" filter="url(#shadow-gantt_basic)"/>
  <text x="58" y="68" font-family="Inter, ui-sans-serif, system-ui, sans-serif" font-size="22" font-weight="720" fill="#0f172a">Gantt</text>
  <text x="58" y="94" font-family="Inter, ui-sans-serif, system-ui, sans-serif" font-size="13" fill="#64748b">Geographic and calendar</text>
  <g transform="translate(58 112)">
    <line x1="60" y1="118" x2="454" y2="118" stroke="#94a3b8" stroke-width="3"/><rect x="74" y="50" width="58.091727095190436" height="20" rx="8" fill="#2563eb" opacity=".82"/><rect x="126" y="86" width="65.28923941589892" height="20" rx="8" fill="#14b8a6" opacity=".82"/><rect x="178" y="122" width="64.48486670432612" height="20" rx="8" fill="#f59e0b" opacity=".82"/><rect x="230" y="158" width="95.99713599588722" height="20" rx="8" fill="#ef4444" opacity=".82"/><rect x="282" y="50" width="66.03967173071578" height="20" rx="8" fill="#8b5cf6" opacity=".82"/><rect x="334" y="86" width="67.8336872421205" height="20" rx="8" fill="#22c55e" opacity=".82"/><rect x="386" y="122" width="51.5028081885539" height="20" rx="8" fill="#0ea5e9" opacity=".82"/><rect x="438" y="158" width="45.0461702356115" height="20" rx="8" fill="#f97316" opacity=".82"/>
  </g>
</svg>
