<?xml version="1.0" encoding="UTF-8"?>
<svg xmlns="http://www.w3.org/2000/svg" width="640" height="420" viewBox="0 0 640 420" role="img" aria-labelledby="title-geo_lines">
  <title id="title-geo_lines">Geo lines chart preview</title>
  <defs>
    <linearGradient id="bg-geo_lines" x1="0" x2="1" y1="0" y2="1">
      <stop offset="0" stop-color="#f8fafc"/>
      <stop offset="1" stop-color="#eef6f8"/>
    </linearGradient>
    <linearGradient id="accent-geo_lines" x1="0" x2="1" y1="0" y2="0">
      <stop offset="0" stop-color="#2563eb"/>
      <stop offset="0.52" stop-color="#14b8a6"/>
      <stop offset="1" stop-color="#f59e0b"/>
    </linearGradient>
    <filter id="shadow-geo_lines" x="-20%" y="-20%" width="140%" height="140%">
      <feDropShadow dx="0" dy="10" stdDeviation="14" flood-color="#0f172a" flood-opacity="0.12"/>
    </filter>
  </defs>
  <rect width="640" height="420" rx="30" fill="url(#bg-geo_lines)"/>
  <rect x="34" y="28" width="572" height="348" rx="26" fill="#ffffff" filter="url(#shadow-geo_lines)"/>
  <text x="58" y="68" font-family="Inter, ui-sans-serif, system-ui, sans-serif" font-size="22" font-weight="720" fill="#0f172a">Geo lines</text>
  <text x="58" y="94" font-family="Inter, ui-sans-serif, system-ui, sans-serif" font-size="13" fill="#64748b">Geographic and calendar</text>
  <g transform="translate(58 112)">
    <path d="M 92 86 L 156 42 L 248 58 L 294 104 L 262 164 L 180 188 L 114 154 Z" fill="#bfdbfe" stroke="#fff" stroke-width="3"/><path d="M 286 70 L 380 44 L 440 92 L 410 174 L 326 162 Z" fill="#99f6e4" stroke="#fff" stroke-width="3"/><path d="M 172 194 L 286 176 L 382 210 L 320 244 L 214 232 Z" fill="#fde68a" stroke="#fff" stroke-width="3"/><path d="M 170 120 C 230 46 324 48 380 120" fill="none" stroke="#2563eb" stroke-width="4" stroke-linecap="round"/><path d="M 202 182 C 260 236 326 234 386 150" fill="none" stroke="#ef4444" stroke-width="4" stroke-linecap="round"/>
  </g>
</svg>
