<?xml version="1.0" encoding="UTF-8"?>
<svg xmlns="http://www.w3.org/2000/svg" width="640" height="420" viewBox="0 0 640 420" role="img" aria-labelledby="title-globe_bars">
  <title id="title-globe_bars">Bars on globe chart preview</title>
  <defs>
    <linearGradient id="bg-globe_bars" x1="0" x2="1" y1="0" y2="1">
      <stop offset="0" stop-color="#f8fafc"/>
      <stop offset="1" stop-color="#eef6f8"/>
    </linearGradient>
    <linearGradient id="accent-globe_bars" x1="0" x2="1" y1="0" y2="0">
      <stop offset="0" stop-color="#2563eb"/>
      <stop offset="0.52" stop-color="#14b8a6"/>
      <stop offset="1" stop-color="#f59e0b"/>
    </linearGradient>
    <filter id="shadow-globe_bars" x="-20%" y="-20%" width="140%" height="140%">
      <feDropShadow dx="0" dy="10" stdDeviation="14" flood-color="#0f172a" flood-opacity="0.12"/>
    </filter>
  </defs>
  <rect width="640" height="420" rx="30" fill="url(#bg-globe_bars)"/>
  <rect x="34" y="28" width="572" height="348" rx="26" fill="#ffffff" filter="url(#shadow-globe_bars)"/>
  <text x="58" y="68" font-family="Inter, ui-sans-serif, system-ui, sans-serif" font-size="22" font-weight="720" fill="#0f172a">Bars on globe</text>
  <text x="58" y="94" font-family="Inter, ui-sans-serif, system-ui, sans-serif" font-size="13" fill="#64748b">3D and GL</text>
  <g transform="translate(58 112)">
    <circle cx="250" cy="126" r="102" fill="#dbeafe" stroke="#2563eb" stroke-width="4"/><ellipse cx="250" cy="126" rx="102" ry="34" fill="none" stroke="#60a5fa"/><path d="M 172 92 C 222 42 288 56 332 92 C 286 118 226 118 172 92 Z" fill="#14b8a6" opacity=".58"/><path d="M 208 160 C 260 138 318 144 356 176 C 308 206 244 202 208 160 Z" fill="#f59e0b" opacity=".5"/><line x1="292.9168824682366" y1="57.86650888687538" x2="292.9168824682366" y2="31.25167681715058" stroke="#ef4444" stroke-width="5" stroke-linecap="round"/><line x1="169.39143849120592" y1="144.5819130789731" x2="169.39143849120592" y2="97.42071487691814" stroke="#ef4444" stroke-width="5" stroke-linecap="round"/><line x1="290.4635270907928" y1="55.955351716495244" x2="290.4635270907928" y2="13.168556159018664" stroke="#ef4444" stroke-width="5" stroke-linecap="round"/><line x1="239.75082204715335" y1="197.9764431145175" x2="239.75082204715335" y2="176.45755063585403" stroke="#ef4444" stroke-width="5" stroke-linecap="round"/><line x1="300.4795294930284" y1="74.17507688751652" x2="300.4795294930284" y2="48.580948399884846" stroke="#ef4444" stroke-width="5" stroke-linecap="round"/><line x1="291.8532380742435" y1="170.48199848275803" x2="291.8532380742435" y2="111.02484616315164" stroke="#ef4444" stroke-width="5" stroke-linecap="round"/><line x1="283.0319589057918" y1="205.0795496246808" x2="283.0319589057918" y2="172.8288064562746" stroke="#ef4444" stroke-width="5" stroke-linecap="round"/><line x1="223.69226914331267" y1="169.78706292613862" x2="223.69226914331267" y2="147.45936099385364" stroke="#ef4444" stroke-width="5" stroke-linecap="round"/><line x1="195.37111276806533" y1="76.32879151271482" x2="195.37111276806533" y2="21.12236781285901" stroke="#ef4444" stroke-width="5" stroke-linecap="round"/><line x1="182.3112729763595" y1="178.47644930334155" x2="182.3112729763595" y2="158.1737496857657" stroke="#ef4444" stroke-width="5" stroke-linecap="round"/>
  </g>
</svg>
