<?xml version="1.0" encoding="UTF-8"?>
<svg xmlns="http://www.w3.org/2000/svg" width="640" height="420" viewBox="0 0 640 420" role="img" aria-labelledby="title-globe_flights">
  <title id="title-globe_flights">Globe flight lines chart preview</title>
  <defs>
    <linearGradient id="bg-globe_flights" x1="0" x2="1" y1="0" y2="1">
      <stop offset="0" stop-color="#f8fafc"/>
      <stop offset="1" stop-color="#eef6f8"/>
    </linearGradient>
    <linearGradient id="accent-globe_flights" x1="0" x2="1" y1="0" y2="0">
      <stop offset="0" stop-color="#2563eb"/>
      <stop offset="0.52" stop-color="#14b8a6"/>
      <stop offset="1" stop-color="#f59e0b"/>
    </linearGradient>
    <filter id="shadow-globe_flights" x="-20%" y="-20%" width="140%" height="140%">
      <feDropShadow dx="0" dy="10" stdDeviation="14" flood-color="#0f172a" flood-opacity="0.12"/>
    </filter>
  </defs>
  <rect width="640" height="420" rx="30" fill="url(#bg-globe_flights)"/>
  <rect x="34" y="28" width="572" height="348" rx="26" fill="#ffffff" filter="url(#shadow-globe_flights)"/>
  <text x="58" y="68" font-family="Inter, ui-sans-serif, system-ui, sans-serif" font-size="22" font-weight="720" fill="#0f172a">Globe flight lines</text>
  <text x="58" y="94" font-family="Inter, ui-sans-serif, system-ui, sans-serif" font-size="13" fill="#64748b">3D and GL</text>
  <g transform="translate(58 112)">
    <circle cx="250" cy="126" r="102" fill="#dbeafe" stroke="#2563eb" stroke-width="4"/><ellipse cx="250" cy="126" rx="102" ry="34" fill="none" stroke="#60a5fa"/><path d="M 172 92 C 222 42 288 56 332 92 C 286 118 226 118 172 92 Z" fill="#14b8a6" opacity=".58"/><path d="M 208 160 C 260 138 318 144 356 176 C 308 206 244 202 208 160 Z" fill="#f59e0b" opacity=".5"/><path d="M 174 118 C 230 30 304 28 360 110" fill="none" stroke="#ef4444" stroke-width="4"/><path d="M 184 164 C 252 90 316 98 344 164" fill="none" stroke="#8b5cf6" stroke-width="4"/>
  </g>
</svg>
