<?xml version="1.0" encoding="UTF-8"?>
<svg xmlns="http://www.w3.org/2000/svg" width="640" height="420" viewBox="0 0 640 420" role="img" aria-labelledby="title-graph_force">
  <title id="title-graph_force">Force graph chart preview</title>
  <defs>
    <linearGradient id="bg-graph_force" x1="0" x2="1" y1="0" y2="1">
      <stop offset="0" stop-color="#f8fafc"/>
      <stop offset="1" stop-color="#eef6f8"/>
    </linearGradient>
    <linearGradient id="accent-graph_force" x1="0" x2="1" y1="0" y2="0">
      <stop offset="0" stop-color="#2563eb"/>
      <stop offset="0.52" stop-color="#14b8a6"/>
      <stop offset="1" stop-color="#f59e0b"/>
    </linearGradient>
    <filter id="shadow-graph_force" x="-20%" y="-20%" width="140%" height="140%">
      <feDropShadow dx="0" dy="10" stdDeviation="14" flood-color="#0f172a" flood-opacity="0.12"/>
    </filter>
  </defs>
  <rect width="640" height="420" rx="30" fill="url(#bg-graph_force)"/>
  <rect x="34" y="28" width="572" height="348" rx="26" fill="#ffffff" filter="url(#shadow-graph_force)"/>
  <text x="58" y="68" font-family="Inter, ui-sans-serif, system-ui, sans-serif" font-size="22" font-weight="720" fill="#0f172a">Force graph</text>
  <text x="58" y="94" font-family="Inter, ui-sans-serif, system-ui, sans-serif" font-size="13" fill="#64748b">Relationships and hierarchy</text>
  <g transform="translate(58 112)">
    <line x1="181.03860485553741" y1="99.00513709103689" x2="103.08751082234085" y2="66.60733383195475" stroke="#94a3b8" opacity=".55"/><line x1="181.03860485553741" y1="99.00513709103689" x2="178.15511549077928" y2="168.93770007463172" stroke="#94a3b8" opacity=".55"/><line x1="149.89602711237967" y1="179.3961722687818" x2="365.5544988550246" y2="168.23488527489826" stroke="#94a3b8" opacity=".55"/><line x1="149.89602711237967" y1="179.3961722687818" x2="319.7994852177799" y2="156.1976179066114" stroke="#94a3b8" opacity=".55"/><line x1="365.5544988550246" y1="168.23488527489826" x2="317.7421589214355" y2="160.67090657586232" stroke="#94a3b8" opacity=".55"/><line x1="103.08751082234085" y1="66.60733383195475" x2="362.95637971907854" y2="81.10750498762354" stroke="#94a3b8" opacity=".55"/><line x1="103.08751082234085" y1="66.60733383195475" x2="268.6965634971857" y2="50.80913190310821" stroke="#94a3b8" opacity=".55"/><line x1="362.95637971907854" y1="81.10750498762354" x2="178.15511549077928" y2="168.93770007463172" stroke="#94a3b8" opacity=".55"/><line x1="317.7421589214355" y1="160.67090657586232" x2="319.7994852177799" y2="156.1976179066114" stroke="#94a3b8" opacity=".55"/><line x1="178.15511549077928" y1="168.93770007463172" x2="268.6965634971857" y2="50.80913190310821" stroke="#94a3b8" opacity=".55"/><circle cx="181.03860485553741" cy="99.00513709103689" r="9" fill="#2563eb"/><circle cx="149.89602711237967" cy="179.3961722687818" r="13" fill="#14b8a6"/><circle cx="365.5544988550246" cy="168.23488527489826" r="17" fill="#f59e0b"/><circle cx="103.08751082234085" cy="66.60733383195475" r="9" fill="#ef4444"/><circle cx="362.95637971907854" cy="81.10750498762354" r="13" fill="#8b5cf6"/><circle cx="317.7421589214355" cy="160.67090657586232" r="17" fill="#22c55e"/><circle cx="319.7994852177799" cy="156.1976179066114" r="9" fill="#0ea5e9"/><circle cx="178.15511549077928" cy="168.93770007463172" r="13" fill="#f97316"/><circle cx="268.6965634971857" cy="50.80913190310821" r="17" fill="#2563eb"/>
  </g>
</svg>
