<?xml version="1.0" encoding="UTF-8"?>
<svg xmlns="http://www.w3.org/2000/svg" width="640" height="420" viewBox="0 0 640 420" role="img" aria-labelledby="title-graph3d_basic">
  <title id="title-graph3d_basic">3D graph chart preview</title>
  <defs>
    <linearGradient id="bg-graph3d_basic" x1="0" x2="1" y1="0" y2="1">
      <stop offset="0" stop-color="#f8fafc"/>
      <stop offset="1" stop-color="#eef6f8"/>
    </linearGradient>
    <linearGradient id="accent-graph3d_basic" x1="0" x2="1" y1="0" y2="0">
      <stop offset="0" stop-color="#2563eb"/>
      <stop offset="0.52" stop-color="#14b8a6"/>
      <stop offset="1" stop-color="#f59e0b"/>
    </linearGradient>
    <filter id="shadow-graph3d_basic" x="-20%" y="-20%" width="140%" height="140%">
      <feDropShadow dx="0" dy="10" stdDeviation="14" flood-color="#0f172a" flood-opacity="0.12"/>
    </filter>
  </defs>
  <rect width="640" height="420" rx="30" fill="url(#bg-graph3d_basic)"/>
  <rect x="34" y="28" width="572" height="348" rx="26" fill="#ffffff" filter="url(#shadow-graph3d_basic)"/>
  <text x="58" y="68" font-family="Inter, ui-sans-serif, system-ui, sans-serif" font-size="22" font-weight="720" fill="#0f172a">3D graph</text>
  <text x="58" y="94" font-family="Inter, ui-sans-serif, system-ui, sans-serif" font-size="13" fill="#64748b">3D and GL</text>
  <g transform="translate(58 112)">
    <line x1="405.55500738509" y1="161.46538884425536" x2="330.9950790666044" y2="129.12322520790622" stroke="#94a3b8" opacity=".55"/><line x1="405.55500738509" y1="161.46538884425536" x2="132.55884704366326" y2="184.56923218024895" stroke="#94a3b8" opacity=".55"/><line x1="330.9950790666044" y1="129.12322520790622" x2="247.80637901462615" y2="173.64621567586437" stroke="#94a3b8" opacity=".55"/><line x1="330.9950790666044" y1="129.12322520790622" x2="110.43416232056916" y2="189.14987807208672" stroke="#94a3b8" opacity=".55"/><line x1="131.1414909567684" y1="32.248962838668376" x2="388.0011797249317" y2="58.97237636661157" stroke="#94a3b8" opacity=".55"/><line x1="131.1414909567684" y1="32.248962838668376" x2="262.7311160340905" y2="82.58987764408812" stroke="#94a3b8" opacity=".55"/><line x1="388.0011797249317" y1="58.97237636661157" x2="400.65276852063835" y2="41.89246315555647" stroke="#94a3b8" opacity=".55"/><line x1="247.80637901462615" y1="173.64621567586437" x2="132.55884704366326" y2="184.56923218024895" stroke="#94a3b8" opacity=".55"/><line x1="132.55884704366326" y1="184.56923218024895" x2="110.43416232056916" y2="189.14987807208672" stroke="#94a3b8" opacity=".55"/><line x1="400.65276852063835" y1="41.89246315555647" x2="262.7311160340905" y2="82.58987764408812" stroke="#94a3b8" opacity=".55"/><circle cx="405.55500738509" cy="161.46538884425536" r="9" fill="#2563eb"/><circle cx="330.9950790666044" cy="129.12322520790622" r="13" fill="#14b8a6"/><circle cx="131.1414909567684" cy="32.248962838668376" r="17" fill="#f59e0b"/><circle cx="388.0011797249317" cy="58.97237636661157" r="9" fill="#ef4444"/><circle cx="247.80637901462615" cy="173.64621567586437" r="13" fill="#8b5cf6"/><circle cx="132.55884704366326" cy="184.56923218024895" r="17" fill="#22c55e"/><circle cx="400.65276852063835" cy="41.89246315555647" r="9" fill="#0ea5e9"/><circle cx="262.7311160340905" cy="82.58987764408812" r="13" fill="#f97316"/><circle cx="110.43416232056916" cy="189.14987807208672" r="17" fill="#2563eb"/><path d="M 120 188 L 250 42 L 410 174" fill="none" stroke="#0f172a" stroke-dasharray="4 5" opacity=".25"/>
  </g>
</svg>
