<?xml version="1.0" encoding="UTF-8"?>
<svg xmlns="http://www.w3.org/2000/svg" width="640" height="420" viewBox="0 0 640 420" role="img" aria-labelledby="title-heatmap_calendar">
  <title id="title-heatmap_calendar">Calendar heatmap chart preview</title>
  <defs>
    <linearGradient id="bg-heatmap_calendar" x1="0" x2="1" y1="0" y2="1">
      <stop offset="0" stop-color="#f8fafc"/>
      <stop offset="1" stop-color="#eef6f8"/>
    </linearGradient>
    <linearGradient id="accent-heatmap_calendar" x1="0" x2="1" y1="0" y2="0">
      <stop offset="0" stop-color="#2563eb"/>
      <stop offset="0.52" stop-color="#14b8a6"/>
      <stop offset="1" stop-color="#f59e0b"/>
    </linearGradient>
    <filter id="shadow-heatmap_calendar" x="-20%" y="-20%" width="140%" height="140%">
      <feDropShadow dx="0" dy="10" stdDeviation="14" flood-color="#0f172a" flood-opacity="0.12"/>
    </filter>
  </defs>
  <rect width="640" height="420" rx="30" fill="url(#bg-heatmap_calendar)"/>
  <rect x="34" y="28" width="572" height="348" rx="26" fill="#ffffff" filter="url(#shadow-heatmap_calendar)"/>
  <text x="58" y="68" font-family="Inter, ui-sans-serif, system-ui, sans-serif" font-size="22" font-weight="720" fill="#0f172a">Calendar heatmap</text>
  <text x="58" y="94" font-family="Inter, ui-sans-serif, system-ui, sans-serif" font-size="13" fill="#64748b">Statistical and finance</text>
  <g transform="translate(58 112)">
    <rect x="50" y="24" width="24" height="20" rx="5" fill="#dbeafe" opacity="0.9"/><rect x="82" y="24" width="24" height="20" rx="5" fill="#1d4ed8" opacity="0.9"/><rect x="114" y="24" width="24" height="20" rx="5" fill="#dbeafe" opacity="0.9"/><rect x="146" y="24" width="24" height="20" rx="5" fill="#dbeafe" opacity="0.9"/><rect x="178" y="24" width="24" height="20" rx="5" fill="#60a5fa" opacity="0.9"/><rect x="210" y="24" width="24" height="20" rx="5" fill="#60a5fa" opacity="0.9"/><rect x="242" y="24" width="24" height="20" rx="5" fill="#1d4ed8" opacity="0.9"/><rect x="274" y="24" width="24" height="20" rx="5" fill="#60a5fa" opacity="0.9"/><rect x="306" y="24" width="24" height="20" rx="5" fill="#60a5fa" opacity="0.9"/><rect x="338" y="24" width="24" height="20" rx="5" fill="#60a5fa" opacity="0.9"/><rect x="370" y="24" width="24" height="20" rx="5" fill="#1d4ed8" opacity="0.9"/><rect x="402" y="24" width="24" height="20" rx="5" fill="#1d4ed8" opacity="0.9"/><rect x="434" y="24" width="24" height="20" rx="5" fill="#60a5fa" opacity="0.9"/><rect x="466" y="24" width="24" height="20" rx="5" fill="#60a5fa" opacity="0.9"/><rect x="498" y="24" width="24" height="20" rx="5" fill="#60a5fa" opacity="0.9"/><rect x="530" y="24" width="24" height="20" rx="5" fill="#60a5fa" opacity="0.9"/><rect x="562" y="24" width="24" height="20" rx="5" fill="#1d4ed8" opacity="0.9"/><rect x="594" y="24" width="24" height="20" rx="5" fill="#60a5fa" opacity="0.9"/><rect x="50" y="52" width="24" height="20" rx="5" fill="#1d4ed8" opacity="0.9"/><rect x="82" y="52" width="24" height="20" rx="5" fill="#60a5fa" opacity="0.9"/><rect x="114" y="52" width="24" height="20" rx="5" fill="#dbeafe" opacity="0.9"/><rect x="146" y="52" width="24" height="20" rx="5" fill="#60a5fa" opacity="0.9"/><rect x="178" y="52" width="24" height="20" rx="5" fill="#1d4ed8" opacity="0.9"/><rect x="210" y="52" width="24" height="20" rx="5" fill="#1d4ed8" opacity="0.9"/><rect x="242" y="52" width="24" height="20" rx="5" fill="#1d4ed8" opacity="0.9"/><rect x="274" y="52" width="24" height="20" rx="5" fill="#1d4ed8" opacity="0.9"/><rect x="306" y="52" width="24" height="20" rx="5" fill="#dbeafe" opacity="0.9"/><rect x="338" y="52" width="24" height="20" rx="5" fill="#dbeafe" opacity="0.9"/><rect x="370" y="52" width="24" height="20" rx="5" fill="#dbeafe" opacity="0.9"/><rect x="402" y="52" width="24" height="20" rx="5" fill="#dbeafe" opacity="0.9"/><rect x="434" y="52" width="24" height="20" rx="5" fill="#1d4ed8" opacity="0.9"/><rect x="466" y="52" width="24" height="20" rx="5" fill="#1d4ed8" opacity="0.9"/><rect x="498" y="52" width="24" height="20" rx="5" fill="#60a5fa" opacity="0.9"/><rect x="530" y="52" width="24" height="20" rx="5" fill="#dbeafe" opacity="0.9"/><rect x="562" y="52" width="24" height="20" rx="5" fill="#1d4ed8" opacity="0.9"/><rect x="594" y="52" width="24" height="20" rx="5" fill="#dbeafe" opacity="0.9"/><rect x="50" y="80" width="24" height="20" rx="5" fill="#1d4ed8" opacity="0.9"/><rect x="82" y="80" width="24" height="20" rx="5" fill="#dbeafe" opacity="0.9"/><rect x="114" y="80" width="24" height="20" rx="5" fill="#1d4ed8" opacity="0.9"/><rect x="146" y="80" width="24" height="20" rx="5" fill="#1d4ed8" opacity="0.9"/><rect x="178" y="80" width="24" height="20" rx="5" fill="#1d4ed8" opacity="0.9"/><rect x="210" y="80" width="24" height="20" rx="5" fill="#dbeafe" opacity="0.9"/><rect x="242" y="80" width="24" height="20" rx="5" fill="#60a5fa" opacity="0.9"/><rect x="274" y="80" width="24" height="20" rx="5" fill="#60a5fa" opacity="0.9"/><rect x="306" y="80" width="24" height="20" rx="5" fill="#60a5fa" opacity="0.9"/><rect x="338" y="80" width="24" height="20" rx="5" fill="#1d4ed8" opacity="0.9"/><rect x="370" y="80" width="24" height="20" rx="5" fill="#60a5fa" opacity="0.9"/><rect x="402" y="80" width="24" height="20" rx="5" fill="#1d4ed8" opacity="0.9"/><rect x="434" y="80" width="24" height="20" rx="5" fill="#1d4ed8" opacity="0.9"/><rect x="466" y="80" width="24" height="20" rx="5" fill="#60a5fa" opacity="0.9"/><rect x="498" y="80" width="24" height="20" rx="5" fill="#dbeafe" opacity="0.9"/><rect x="530" y="80" width="24" height="20" rx="5" fill="#60a5fa" opacity="0.9"/><rect x="562" y="80" width="24" height="20" rx="5" fill="#60a5fa" opacity="0.9"/><rect x="594" y="80" width="24" height="20" rx="5" fill="#dbeafe" opacity="0.9"/><rect x="50" y="108" width="24" height="20" rx="5" fill="#dbeafe" opacity="0.9"/><rect x="82" y="108" width="24" height="20" rx="5" fill="#dbeafe" opacity="0.9"/><rect x="114" y="108" width="24" height="20" rx="5" fill="#60a5fa" opacity="0.9"/><rect x="146" y="108" width="24" height="20" rx="5" fill="#60a5fa" opacity="0.9"/><rect x="178" y="108" width="24" height="20" rx="5" fill="#dbeafe" opacity="0.9"/><rect x="210" y="108" width="24" height="20" rx="5" fill="#dbeafe" opacity="0.9"/><rect x="242" y="108" width="24" height="20" rx="5" fill="#dbeafe" opacity="0.9"/><rect x="274" y="108" width="24" height="20" rx="5" fill="#dbeafe" opacity="0.9"/><rect x="306" y="108" width="24" height="20" rx="5" fill="#dbeafe" opacity="0.9"/><rect x="338" y="108" width="24" height="20" rx="5" fill="#dbeafe" opacity="0.9"/><rect x="370" y="108" width="24" height="20" rx="5" fill="#60a5fa" opacity="0.9"/><rect x="402" y="108" width="24" height="20" rx="5" fill="#60a5fa" opacity="0.9"/><rect x="434" y="108" width="24" height="20" rx="5" fill="#dbeafe" opacity="0.9"/><rect x="466" y="108" width="24" height="20" rx="5" fill="#1d4ed8" opacity="0.9"/><rect x="498" y="108" width="24" height="20" rx="5" fill="#1d4ed8" opacity="0.9"/><rect x="530" y="108" width="24" height="20" rx="5" fill="#dbeafe" opacity="0.9"/><rect x="562" y="108" width="24" height="20" rx="5" fill="#60a5fa" opacity="0.9"/><rect x="594" y="108" width="24" height="20" rx="5" fill="#60a5fa" opacity="0.9"/><rect x="50" y="136" width="24" height="20" rx="5" fill="#1d4ed8" opacity="0.9"/><rect x="82" y="136" width="24" height="20" rx="5" fill="#1d4ed8" opacity="0.9"/><rect x="114" y="136" width="24" height="20" rx="5" fill="#60a5fa" opacity="0.9"/><rect x="146" y="136" width="24" height="20" rx="5" fill="#1d4ed8" opacity="0.9"/><rect x="178" y="136" width="24" height="20" rx="5" fill="#1d4ed8" opacity="0.9"/><rect x="210" y="136" width="24" height="20" rx="5" fill="#1d4ed8" opacity="0.9"/><rect x="242" y="136" width="24" height="20" rx="5" fill="#60a5fa" opacity="0.9"/><rect x="274" y="136" width="24" height="20" rx="5" fill="#dbeafe" opacity="0.9"/><rect x="306" y="136" width="24" height="20" rx="5" fill="#60a5fa" opacity="0.9"/><rect x="338" y="136" width="24" height="20" rx="5" fill="#60a5fa" opacity="0.9"/><rect x="370" y="136" width="24" height="20" rx="5" fill="#60a5fa" opacity="0.9"/><rect x="402" y="136" width="24" height="20" rx="5" fill="#dbeafe" opacity="0.9"/><rect x="434" y="136" width="24" height="20" rx="5" fill="#60a5fa" opacity="0.9"/><rect x="466" y="136" width="24" height="20" rx="5" fill="#60a5fa" opacity="0.9"/><rect x="498" y="136" width="24" height="20" rx="5" fill="#60a5fa" opacity="0.9"/><rect x="530" y="136" width="24" height="20" rx="5" fill="#dbeafe" opacity="0.9"/><rect x="562" y="136" width="24" height="20" rx="5" fill="#60a5fa" opacity="0.9"/><rect x="594" y="136" width="24" height="20" rx="5" fill="#60a5fa" opacity="0.9"/><rect x="50" y="164" width="24" height="20" rx="5" fill="#1d4ed8" opacity="0.9"/><rect x="82" y="164" width="24" height="20" rx="5" fill="#1d4ed8" opacity="0.9"/><rect x="114" y="164" width="24" height="20" rx="5" fill="#60a5fa" opacity="0.9"/><rect x="146" y="164" width="24" height="20" rx="5" fill="#60a5fa" opacity="0.9"/><rect x="178" y="164" width="24" height="20" rx="5" fill="#1d4ed8" opacity="0.9"/><rect x="210" y="164" width="24" height="20" rx="5" fill="#1d4ed8" opacity="0.9"/><rect x="242" y="164" width="24" height="20" rx="5" fill="#60a5fa" opacity="0.9"/><rect x="274" y="164" width="24" height="20" rx="5" fill="#dbeafe" opacity="0.9"/><rect x="306" y="164" width="24" height="20" rx="5" fill="#1d4ed8" opacity="0.9"/><rect x="338" y="164" width="24" height="20" rx="5" fill="#1d4ed8" opacity="0.9"/><rect x="370" y="164" width="24" height="20" rx="5" fill="#60a5fa" opacity="0.9"/><rect x="402" y="164" width="24" height="20" rx="5" fill="#60a5fa" opacity="0.9"/><rect x="434" y="164" width="24" height="20" rx="5" fill="#dbeafe" opacity="0.9"/><rect x="466" y="164" width="24" height="20" rx="5" fill="#dbeafe" opacity="0.9"/><rect x="498" y="164" width="24" height="20" rx="5" fill="#1d4ed8" opacity="0.9"/><rect x="530" y="164" width="24" height="20" rx="5" fill="#60a5fa" opacity="0.9"/><rect x="562" y="164" width="24" height="20" rx="5" fill="#1d4ed8" opacity="0.9"/><rect x="594" y="164" width="24" height="20" rx="5" fill="#dbeafe" opacity="0.9"/><rect x="50" y="192" width="24" height="20" rx="5" fill="#60a5fa" opacity="0.9"/><rect x="82" y="192" width="24" height="20" rx="5" fill="#60a5fa" opacity="0.9"/><rect x="114" y="192" width="24" height="20" rx="5" fill="#60a5fa" opacity="0.9"/><rect x="146" y="192" width="24" height="20" rx="5" fill="#60a5fa" opacity="0.9"/><rect x="178" y="192" width="24" height="20" rx="5" fill="#dbeafe" opacity="0.9"/><rect x="210" y="192" width="24" height="20" rx="5" fill="#60a5fa" opacity="0.9"/><rect x="242" y="192" width="24" height="20" rx="5" fill="#dbeafe" opacity="0.9"/><rect x="274" y="192" width="24" height="20" rx="5" fill="#1d4ed8" opacity="0.9"/><rect x="306" y="192" width="24" height="20" rx="5" fill="#dbeafe" opacity="0.9"/><rect x="338" y="192" width="24" height="20" rx="5" fill="#dbeafe" opacity="0.9"/><rect x="370" y="192" width="24" height="20" rx="5" fill="#60a5fa" opacity="0.9"/><rect x="402" y="192" width="24" height="20" rx="5" fill="#1d4ed8" opacity="0.9"/><rect x="434" y="192" width="24" height="20" rx="5" fill="#60a5fa" opacity="0.9"/><rect x="466" y="192" width="24" height="20" rx="5" fill="#dbeafe" opacity="0.9"/><rect x="498" y="192" width="24" height="20" rx="5" fill="#dbeafe" opacity="0.9"/><rect x="530" y="192" width="24" height="20" rx="5" fill="#dbeafe" opacity="0.9"/><rect x="562" y="192" width="24" height="20" rx="5" fill="#1d4ed8" opacity="0.9"/><rect x="594" y="192" width="24" height="20" rx="5" fill="#60a5fa" opacity="0.9"/>
  </g>
</svg>
