<?xml version="1.0" encoding="UTF-8"?>
<svg xmlns="http://www.w3.org/2000/svg" width="640" height="420" viewBox="0 0 640 420" role="img" aria-labelledby="title-histogram">
  <title id="title-histogram">Histogram chart preview</title>
  <defs>
    <linearGradient id="bg-histogram" x1="0" x2="1" y1="0" y2="1">
      <stop offset="0" stop-color="#f8fafc"/>
      <stop offset="1" stop-color="#eef6f8"/>
    </linearGradient>
    <linearGradient id="accent-histogram" x1="0" x2="1" y1="0" y2="0">
      <stop offset="0" stop-color="#2563eb"/>
      <stop offset="0.52" stop-color="#14b8a6"/>
      <stop offset="1" stop-color="#f59e0b"/>
    </linearGradient>
    <filter id="shadow-histogram" x="-20%" y="-20%" width="140%" height="140%">
      <feDropShadow dx="0" dy="10" stdDeviation="14" flood-color="#0f172a" flood-opacity="0.12"/>
    </filter>
  </defs>
  <rect width="640" height="420" rx="30" fill="url(#bg-histogram)"/>
  <rect x="34" y="28" width="572" height="348" rx="26" fill="#ffffff" filter="url(#shadow-histogram)"/>
  <text x="58" y="68" font-family="Inter, ui-sans-serif, system-ui, sans-serif" font-size="22" font-weight="720" fill="#0f172a">Histogram</text>
  <text x="58" y="94" font-family="Inter, ui-sans-serif, system-ui, sans-serif" font-size="13" fill="#64748b">Statistical and finance</text>
  <g transform="translate(58 112)">
    <g><line x1="48" y1="24" x2="462" y2="24" stroke="#dbe4ef" stroke-width="1"/><line x1="48" y1="72" x2="462" y2="72" stroke="#dbe4ef" stroke-width="1"/><line x1="48" y1="120" x2="462" y2="120" stroke="#dbe4ef" stroke-width="1"/><line x1="48" y1="168" x2="462" y2="168" stroke="#dbe4ef" stroke-width="1"/><line x1="48" y1="216" x2="462" y2="216" stroke="#dbe4ef" stroke-width="1"/><line x1="48" y1="216" x2="462" y2="216" stroke="#94a3b8"/><line x1="48" y1="24" x2="48" y2="216" stroke="#94a3b8"/></g><rect x="58" y="192.52273995056748" width="20" height="23.477260049432516" fill="#2563eb" opacity=".74"/><rect x="82" y="165.13469231467286" width="20" height="50.86530768532714" fill="#2563eb" opacity=".74"/><rect x="106" y="132.26024094298907" width="20" height="83.73975905701094" fill="#2563eb" opacity=".74"/><rect x="130" y="101.7203555965294" width="20" height="114.2796444034706" fill="#2563eb" opacity=".74"/><rect x="154" y="89.70421228728192" width="20" height="126.29578771271808" fill="#2563eb" opacity=".74"/><rect x="178" y="68.03284416400035" width="20" height="147.96715583599965" fill="#2563eb" opacity=".74"/><rect x="202" y="47.090545261711725" width="20" height="168.90945473828828" fill="#2563eb" opacity=".74"/><rect x="226" y="60.467806815123765" width="20" height="155.53219318487623" fill="#2563eb" opacity=".74"/><rect x="250" y="40.90862572933605" width="20" height="175.09137427066395" fill="#2563eb" opacity=".74"/><rect x="274" y="60.836165731274434" width="20" height="155.16383426872557" fill="#2563eb" opacity=".74"/><rect x="298" y="66.59843555610763" width="20" height="149.40156444389237" fill="#2563eb" opacity=".74"/><rect x="322" y="85.9626592479919" width="20" height="130.0373407520081" fill="#2563eb" opacity=".74"/><rect x="346" y="96.74430025848194" width="20" height="119.25569974151806" fill="#2563eb" opacity=".74"/><rect x="370" y="126.27134530600586" width="20" height="89.72865469399414" fill="#2563eb" opacity=".74"/><rect x="394" y="166.1132633468468" width="20" height="49.88673665315321" fill="#2563eb" opacity=".74"/><rect x="418" y="182.71028042864054" width="20" height="33.28971957135947" fill="#2563eb" opacity=".74"/>
  </g>
</svg>
