<?xml version="1.0" encoding="UTF-8"?>
<svg xmlns="http://www.w3.org/2000/svg" width="640" height="420" viewBox="0 0 640 420" role="img" aria-labelledby="title-large_scatter_gl">
  <title id="title-large_scatter_gl">Large scatter acceleration chart preview</title>
  <defs>
    <linearGradient id="bg-large_scatter_gl" x1="0" x2="1" y1="0" y2="1">
      <stop offset="0" stop-color="#f8fafc"/>
      <stop offset="1" stop-color="#eef6f8"/>
    </linearGradient>
    <linearGradient id="accent-large_scatter_gl" x1="0" x2="1" y1="0" y2="0">
      <stop offset="0" stop-color="#2563eb"/>
      <stop offset="0.52" stop-color="#14b8a6"/>
      <stop offset="1" stop-color="#f59e0b"/>
    </linearGradient>
    <filter id="shadow-large_scatter_gl" x="-20%" y="-20%" width="140%" height="140%">
      <feDropShadow dx="0" dy="10" stdDeviation="14" flood-color="#0f172a" flood-opacity="0.12"/>
    </filter>
  </defs>
  <rect width="640" height="420" rx="30" fill="url(#bg-large_scatter_gl)"/>
  <rect x="34" y="28" width="572" height="348" rx="26" fill="#ffffff" filter="url(#shadow-large_scatter_gl)"/>
  <text x="58" y="68" font-family="Inter, ui-sans-serif, system-ui, sans-serif" font-size="22" font-weight="720" fill="#0f172a">Large scatter acceleration</text>
  <text x="58" y="94" font-family="Inter, ui-sans-serif, system-ui, sans-serif" font-size="13" fill="#64748b">3D and GL</text>
  <g transform="translate(58 112)">
    <path d="M 74 206 L 420 206 L 486 162 M 74 206 L 136 62 M 136 62 L 486 62 L 486 162" fill="none" stroke="#94a3b8" stroke-width="2" opacity=".65"/><path d="M 74 158 L 420 158 L 486 114 M 106 110 L 454 110" fill="none" stroke="#dbe4ef" stroke-width="1"/><circle cx="156.1222052462399" cy="133.49155402742326" r="4.862960818456486" fill="#2563eb" opacity="0.7957219836115836"/><circle cx="211.22051665745676" cy="173.76269218325615" r="5.1320596965495495" fill="#14b8a6" opacity="0.4565608079731464"/><circle cx="191.58464144915342" cy="80.29181846417487" r="4.963816482247784" fill="#f59e0b" opacity="0.7968042701482773"/><circle cx="202.96185258962214" cy="119.79662858322263" r="5.9535643226001405" fill="#ef4444" opacity="0.7069757084548474"/><circle cx="356.4722334109247" cy="87.6529374551028" r="4.573718426423147" fill="#8b5cf6" opacity="0.7385939446091652"/><circle cx="239.30704186670482" cy="153.7009536102414" r="4.6483976463321595" fill="#22c55e" opacity="0.7964291431009769"/><circle cx="400.4602779150009" cy="87.99881923384964" r="4.995428873272612" fill="#0ea5e9" opacity="0.5181024205684661"/><circle cx="359.7747040260583" cy="148.42966582998633" r="3.088859243551269" fill="#f97316" opacity="0.8785292051732541"/><circle cx="283.0835688151419" cy="148.56843551062047" r="5.4451011583674696" fill="#2563eb" opacity="0.876706345975399"/><circle cx="288.72928380034864" cy="76.71471790969372" r="5.685835115844384" fill="#14b8a6" opacity="0.5623429723083972"/><circle cx="413.24030328541994" cy="161.49785272218287" r="4.280795355560258" fill="#f59e0b" opacity="0.6598351031541825"/><circle cx="310.4474573675543" cy="127.9605478681624" r="5.423563315579667" fill="#ef4444" opacity="0.6870840065181255"/><circle cx="120.82098807021976" cy="112.52726328186691" r="5.543493901984766" fill="#8b5cf6" opacity="0.4666583088040352"/><circle cx="322.30953860096633" cy="73.76361032575369" r="5.806899570906534" fill="#22c55e" opacity="0.44679985418915746"/><circle cx="270.4623457342386" cy="62.33301682956517" r="3.610617223056033" fill="#0ea5e9" opacity="0.689773313999176"/><circle cx="262.11588531918824" cy="170.05690775439143" r="3.921082910755649" fill="#f97316" opacity="0.4250595460832119"/><circle cx="269.4262209124863" cy="156.48465148173273" r="3.762039357470348" fill="#2563eb" opacity="0.6648927041888237"/><circle cx="255.52830553613603" cy="153.87952172756195" r="6.004001289838925" fill="#14b8a6" opacity="0.4996410973370075"/><circle cx="261.6034865602851" cy="132.02692508138716" r="3.8586035822052507" fill="#f59e0b" opacity="0.8505317991971969"/><circle cx="189.63646371103823" cy="112.77114417031407" r="4.130957213649526" fill="#ef4444" opacity="0.7772190074622631"/><circle cx="277.6429502032697" cy="150.68684644810855" r="5.1331380375195295" fill="#8b5cf6" opacity="0.8376961532235145"/><circle cx="372.64928699843585" cy="134.79160860925913" r="5.811933363461867" fill="#22c55e" opacity="0.7580517603456973"/><circle cx="149.20526018738747" cy="38.70570662803948" r="4.493971351953223" fill="#0ea5e9" opacity="0.8695690548419952"/><circle cx="223.71137149818242" cy="51.165421422570944" r="4.301358221331611" fill="#f97316" opacity="0.5706693242490292"/><circle cx="393.3418119288981" cy="147.29611014388502" r="5.740948267327621" fill="#2563eb" opacity="0.6311990270018577"/><circle cx="288.84438850544393" cy="71.55129308998585" r="5.220371695095674" fill="#14b8a6" opacity="0.43656065180897713"/><circle cx="224.99865416437387" cy="159.72400624491274" r="5.493945263745263" fill="#f59e0b" opacity="0.5891873270273209"/><circle cx="193.01349076069891" cy="161.93666944280267" r="4.091590743372216" fill="#ef4444" opacity="0.76486118003726"/><circle cx="379.64539520069957" cy="47.01572015695274" r="4.833886184589938" fill="#8b5cf6" opacity="0.6013754466176033"/><circle cx="238.31871869973838" cy="183.15726291388273" r="3.186375000560656" fill="#22c55e" opacity="0.4770403303205967"/><circle cx="126.02910916507244" cy="60.28998433239758" r="5.856257861526682" fill="#0ea5e9" opacity="0.5965326118469239"/><circle cx="158.31140670366585" cy="148.04158378764987" r="3.0845924018416553" fill="#f97316" opacity="0.7615890084207058"/><circle cx="281.05324225500226" cy="95.71496970020235" r="3.337125739501789" fill="#2563eb" opacity="0.44404328316450115"/><circle cx="444.43558934889734" cy="97.18047145009041" r="2.946884808177128" fill="#14b8a6" opacity="0.8187071044743061"/><circle cx="240.7815189883113" cy="178.0903169158846" r="5.511649501742795" fill="#f59e0b" opacity="0.4535946553945541"/><circle cx="362.59440765716136" cy="123.32162563875318" r="6.099433631310239" fill="#ef4444" opacity="0.47499099299311637"/><circle cx="315.5668484531343" cy="87.05416761152446" r="5.765098694758489" fill="#8b5cf6" opacity="0.5848641577363014"/><circle cx="197.84151534549892" cy="134.3891376927495" r="3.7312254587654023" fill="#22c55e" opacity="0.5481210328638553"/><circle cx="379.30523055791855" cy="67.91519564576447" r="3.836368353338912" fill="#0ea5e9" opacity="0.7672069537639618"/><circle cx="309.19748507626355" cy="181.1280218027532" r="4.7038176788482815" fill="#f97316" opacity="0.48154906734824177"/><circle cx="418.8146622814238" cy="89.10963835380971" r="5.133994625555351" fill="#2563eb" opacity="0.889343441426754"/><circle cx="104.59121470712125" cy="179.37374626100063" r="6.07360410564579" fill="#14b8a6" opacity="0.44918592408299446"/><circle cx="103.33904392272234" cy="154.28332779742777" r="4.964670397760346" fill="#f59e0b" opacity="0.45904675304889675"/><circle cx="225.92633354105055" cy="64.9467647112906" r="2.926580604026094" fill="#ef4444" opacity="0.730088915079832"/><circle cx="282.1770853511989" cy="144.99872201494873" r="5.274260919587686" fill="#8b5cf6" opacity="0.812830255329609"/><circle cx="234.27260857634246" cy="79.17204739898443" r="3.5256107146386055" fill="#22c55e" opacity="0.7531493367254734"/><circle cx="188.4362122565508" cy="104.06693627126515" r="6.101319428952411" fill="#0ea5e9" opacity="0.7556350493431091"/><circle cx="143.1823507566005" cy="57.023612421005964" r="5.57019127891399" fill="#f97316" opacity="0.6917799697816371"/><circle cx="146.91147239878774" cy="169.50477430783212" r="5.743102777050808" fill="#2563eb" opacity="0.5105174705386162"/><circle cx="420.1318212207407" cy="37.89405697584152" r="4.968718064064159" fill="#14b8a6" opacity="0.8086025793850422"/><circle cx="162.08944185823202" cy="55.11675959266722" r="2.834087053360417" fill="#f59e0b" opacity="0.5383365887403488"/><circle cx="368.0876375529915" cy="82.98908861353993" r="3.1232513880822808" fill="#ef4444" opacity="0.47013541504740713"/><circle cx="144.2771312855184" cy="79.70216657035053" r="3.736983210640028" fill="#8b5cf6" opacity="0.5074417081475258"/><circle cx="151.19818003289402" cy="83.34705648571253" r="5.926781744742765" fill="#22c55e" opacity="0.6714807106554508"/><circle cx="143.85589215159416" cy="142.88705191202462" r="4.646252689929678" fill="#0ea5e9" opacity="0.8133598673343658"/><circle cx="184.6099978853017" cy="106.48348259553313" r="4.27299542860128" fill="#f97316" opacity="0.47101218447089194"/><circle cx="217.66032299771905" cy="91.58128576539457" r="2.804123045550659" fill="#2563eb" opacity="0.8884833392500877"/><circle cx="152.4092155303806" cy="65.66059304773808" r="4.078540159994736" fill="#14b8a6" opacity="0.7750625391304493"/><circle cx="361.48217568546534" cy="111.06058300472796" r="2.8291035701055076" fill="#f59e0b" opacity="0.5417571312189102"/><circle cx="335.6879388336092" cy="161.78184929862618" r="3.817790710041299" fill="#ef4444" opacity="0.5926109616458416"/><circle cx="364.6992616467178" cy="92.67353448085487" r="4.557000919478014" fill="#8b5cf6" opacity="0.488366484940052"/><circle cx="328.7356613557786" cy="119.91147940605879" r="4.570114525640383" fill="#22c55e" opacity="0.6399706234037876"/><circle cx="373.02935813367367" cy="60.173638271167874" r="2.994434737833217" fill="#0ea5e9" opacity="0.6294243764877319"/><circle cx="239.35567060299218" cy="152.41900927945971" r="4.979637354472652" fill="#f97316" opacity="0.855476180166006"/><circle cx="179.40911446884274" cy="126.67633092962205" r="3.784853282617405" fill="#2563eb" opacity="0.8816590163111686"/><circle cx="297.30645427666605" cy="132.7487939298153" r="4.92750887000002" fill="#14b8a6" opacity="0.46417127206921577"/><circle cx="298.9979582950473" cy="122.24101873673499" r="3.1870490495581176" fill="#f59e0b" opacity="0.717101349234581"/><circle cx="150.8681065235287" cy="147.81454871967435" r="4.31666829646565" fill="#ef4444" opacity="0.5924960236251354"/><circle cx="434.30700182542205" cy="106.07810894958675" r="3.9661743976641444" fill="#8b5cf6" opacity="0.7727725544571876"/><circle cx="327.53373418562114" cy="137.0188806131482" r="3.7691100338939574" fill="#22c55e" opacity="0.7929745437204838"/>
  </g>
</svg>
