<?xml version="1.0" encoding="UTF-8"?>
<svg xmlns="http://www.w3.org/2000/svg" width="640" height="420" viewBox="0 0 640 420" role="img" aria-labelledby="title-line_area">
  <title id="title-line_area">Area line chart preview</title>
  <defs>
    <linearGradient id="bg-line_area" x1="0" x2="1" y1="0" y2="1">
      <stop offset="0" stop-color="#f8fafc"/>
      <stop offset="1" stop-color="#eef6f8"/>
    </linearGradient>
    <linearGradient id="accent-line_area" x1="0" x2="1" y1="0" y2="0">
      <stop offset="0" stop-color="#2563eb"/>
      <stop offset="0.52" stop-color="#14b8a6"/>
      <stop offset="1" stop-color="#f59e0b"/>
    </linearGradient>
    <filter id="shadow-line_area" x="-20%" y="-20%" width="140%" height="140%">
      <feDropShadow dx="0" dy="10" stdDeviation="14" flood-color="#0f172a" flood-opacity="0.12"/>
    </filter>
  </defs>
  <rect width="640" height="420" rx="30" fill="url(#bg-line_area)"/>
  <rect x="34" y="28" width="572" height="348" rx="26" fill="#ffffff" filter="url(#shadow-line_area)"/>
  <text x="58" y="68" font-family="Inter, ui-sans-serif, system-ui, sans-serif" font-size="22" font-weight="720" fill="#0f172a">Area line</text>
  <text x="58" y="94" font-family="Inter, ui-sans-serif, system-ui, sans-serif" font-size="13" fill="#64748b">Cartesian</text>
  <g transform="translate(58 112)">
    <g><line x1="48" y1="24" x2="462" y2="24" stroke="#dbe4ef" stroke-width="1"/><line x1="48" y1="72" x2="462" y2="72" stroke="#dbe4ef" stroke-width="1"/><line x1="48" y1="120" x2="462" y2="120" stroke="#dbe4ef" stroke-width="1"/><line x1="48" y1="168" x2="462" y2="168" stroke="#dbe4ef" stroke-width="1"/><line x1="48" y1="216" x2="462" y2="216" stroke="#dbe4ef" stroke-width="1"/><line x1="48" y1="216" x2="462" y2="216" stroke="#94a3b8"/><line x1="48" y1="24" x2="48" y2="216" stroke="#94a3b8"/></g><path d="M 48 63.488157872110605 L 99.75 174.31023164652288 L 151.5 182.65958523750305 L 203.25 98.44561150856316 L 255 89.8244478367269 L 306.75 203.36358459107578 L 358.5 102.96961715072393 L 410.25 170.31596549786627 L 462 106.79849259927869 L 462 216 L 48 216 Z" fill="url(#accent-line_area)" opacity=".18"/><path d="M 48 63.488157872110605 L 99.75 174.31023164652288 L 151.5 182.65958523750305 L 203.25 98.44561150856316 L 255 89.8244478367269 L 306.75 203.36358459107578 L 358.5 102.96961715072393 L 410.25 170.31596549786627 L 462 106.79849259927869" fill="none" stroke="#2563eb" stroke-width="4" stroke-linecap="round" stroke-linejoin="round"/><circle cx="48" cy="63.488157872110605" r="4" fill="#fff" stroke="#2563eb" stroke-width="3"/><circle cx="99.75" cy="174.31023164652288" r="4" fill="#fff" stroke="#2563eb" stroke-width="3"/><circle cx="151.5" cy="182.65958523750305" r="4" fill="#fff" stroke="#2563eb" stroke-width="3"/><circle cx="203.25" cy="98.44561150856316" r="4" fill="#fff" stroke="#2563eb" stroke-width="3"/><circle cx="255" cy="89.8244478367269" r="4" fill="#fff" stroke="#2563eb" stroke-width="3"/><circle cx="306.75" cy="203.36358459107578" r="4" fill="#fff" stroke="#2563eb" stroke-width="3"/><circle cx="358.5" cy="102.96961715072393" r="4" fill="#fff" stroke="#2563eb" stroke-width="3"/><circle cx="410.25" cy="170.31596549786627" r="4" fill="#fff" stroke="#2563eb" stroke-width="3"/><circle cx="462" cy="106.79849259927869" r="4" fill="#fff" stroke="#2563eb" stroke-width="3"/>
  </g>
</svg>
