<?xml version="1.0" encoding="UTF-8"?>
<svg xmlns="http://www.w3.org/2000/svg" width="640" height="420" viewBox="0 0 640 420" role="img" aria-labelledby="title-line_step">
  <title id="title-line_step">Step line chart preview</title>
  <defs>
    <linearGradient id="bg-line_step" x1="0" x2="1" y1="0" y2="1">
      <stop offset="0" stop-color="#f8fafc"/>
      <stop offset="1" stop-color="#eef6f8"/>
    </linearGradient>
    <linearGradient id="accent-line_step" x1="0" x2="1" y1="0" y2="0">
      <stop offset="0" stop-color="#2563eb"/>
      <stop offset="0.52" stop-color="#14b8a6"/>
      <stop offset="1" stop-color="#f59e0b"/>
    </linearGradient>
    <filter id="shadow-line_step" x="-20%" y="-20%" width="140%" height="140%">
      <feDropShadow dx="0" dy="10" stdDeviation="14" flood-color="#0f172a" flood-opacity="0.12"/>
    </filter>
  </defs>
  <rect width="640" height="420" rx="30" fill="url(#bg-line_step)"/>
  <rect x="34" y="28" width="572" height="348" rx="26" fill="#ffffff" filter="url(#shadow-line_step)"/>
  <text x="58" y="68" font-family="Inter, ui-sans-serif, system-ui, sans-serif" font-size="22" font-weight="720" fill="#0f172a">Step line</text>
  <text x="58" y="94" font-family="Inter, ui-sans-serif, system-ui, sans-serif" font-size="13" fill="#64748b">Cartesian</text>
  <g transform="translate(58 112)">
    <g><line x1="48" y1="24" x2="462" y2="24" stroke="#dbe4ef" stroke-width="1"/><line x1="48" y1="72" x2="462" y2="72" stroke="#dbe4ef" stroke-width="1"/><line x1="48" y1="120" x2="462" y2="120" stroke="#dbe4ef" stroke-width="1"/><line x1="48" y1="168" x2="462" y2="168" stroke="#dbe4ef" stroke-width="1"/><line x1="48" y1="216" x2="462" y2="216" stroke="#dbe4ef" stroke-width="1"/><line x1="48" y1="216" x2="462" y2="216" stroke="#94a3b8"/><line x1="48" y1="24" x2="48" y2="216" stroke="#94a3b8"/></g><path d="M 48 116.58520142175257 L 76.75 116.58520142175257 L 76.75 90.72469944134355 L 99.75 90.72469944134355 L 128.5 90.72469944134355 L 128.5 134.66575910709798 L 151.5 134.66575910709798 L 180.25 134.66575910709798 L 180.25 55.005899012088776 L 203.25 55.005899012088776 L 232 55.005899012088776 L 232 82.38125381059945 L 255 82.38125381059945 L 283.75 82.38125381059945 L 283.75 100.82724478468299 L 306.75 100.82724478468299 L 335.5 100.82724478468299 L 335.5 121.95338119380176 L 358.5 121.95338119380176 L 387.25 121.95338119380176 L 387.25 120.15976961702108 L 410.25 120.15976961702108 L 439 120.15976961702108 L 439 144.8499287609011 L 462 144.8499287609011" fill="none" stroke="#2563eb" stroke-width="4" stroke-linecap="round" stroke-linejoin="round"/><circle cx="48" cy="116.58520142175257" r="4" fill="#fff" stroke="#2563eb" stroke-width="3"/><circle cx="99.75" cy="90.72469944134355" r="4" fill="#fff" stroke="#2563eb" stroke-width="3"/><circle cx="151.5" cy="134.66575910709798" r="4" fill="#fff" stroke="#2563eb" stroke-width="3"/><circle cx="203.25" cy="55.005899012088776" r="4" fill="#fff" stroke="#2563eb" stroke-width="3"/><circle cx="255" cy="82.38125381059945" r="4" fill="#fff" stroke="#2563eb" stroke-width="3"/><circle cx="306.75" cy="100.82724478468299" r="4" fill="#fff" stroke="#2563eb" stroke-width="3"/><circle cx="358.5" cy="121.95338119380176" r="4" fill="#fff" stroke="#2563eb" stroke-width="3"/><circle cx="410.25" cy="120.15976961702108" r="4" fill="#fff" stroke="#2563eb" stroke-width="3"/><circle cx="462" cy="144.8499287609011" r="4" fill="#fff" stroke="#2563eb" stroke-width="3"/>
  </g>
</svg>
