<?xml version="1.0" encoding="UTF-8"?>
<svg xmlns="http://www.w3.org/2000/svg" width="640" height="420" viewBox="0 0 640 420" role="img" aria-labelledby="title-line3d_basic">
  <title id="title-line3d_basic">3D line chart preview</title>
  <defs>
    <linearGradient id="bg-line3d_basic" x1="0" x2="1" y1="0" y2="1">
      <stop offset="0" stop-color="#f8fafc"/>
      <stop offset="1" stop-color="#eef6f8"/>
    </linearGradient>
    <linearGradient id="accent-line3d_basic" x1="0" x2="1" y1="0" y2="0">
      <stop offset="0" stop-color="#2563eb"/>
      <stop offset="0.52" stop-color="#14b8a6"/>
      <stop offset="1" stop-color="#f59e0b"/>
    </linearGradient>
    <filter id="shadow-line3d_basic" x="-20%" y="-20%" width="140%" height="140%">
      <feDropShadow dx="0" dy="10" stdDeviation="14" flood-color="#0f172a" flood-opacity="0.12"/>
    </filter>
  </defs>
  <rect width="640" height="420" rx="30" fill="url(#bg-line3d_basic)"/>
  <rect x="34" y="28" width="572" height="348" rx="26" fill="#ffffff" filter="url(#shadow-line3d_basic)"/>
  <text x="58" y="68" font-family="Inter, ui-sans-serif, system-ui, sans-serif" font-size="22" font-weight="720" fill="#0f172a">3D line</text>
  <text x="58" y="94" font-family="Inter, ui-sans-serif, system-ui, sans-serif" font-size="13" fill="#64748b">3D and GL</text>
  <g transform="translate(58 112)">
    <path d="M 74 206 L 420 206 L 486 162 M 74 206 L 136 62 M 136 62 L 486 62 L 486 162" fill="none" stroke="#94a3b8" stroke-width="2" opacity=".65"/><path d="M 74 158 L 420 158 L 486 114 M 106 110 L 454 110" fill="none" stroke="#dbe4ef" stroke-width="1"/><path d="M 82 164 L 122.2 118.85583353529383 L 162.4 99.73404264612627 L 202.6 116.11828472023004 L 242.8 154.92608856718869 L 283 188.82351821960697 L 323.2 193.59746327670376 L 363.4 163.54446488625604 L 403.6 115.09559228128731 L 443.8 76.37355209237987 L 484 69.31908882593271" fill="none" stroke="#2563eb" stroke-width="5" stroke-linecap="round" stroke-linejoin="round"/><circle cx="82" cy="164" r="5" fill="#fff" stroke="#2563eb" stroke-width="3"/><circle cx="122.2" cy="118.85583353529383" r="5.35" fill="#fff" stroke="#14b8a6" stroke-width="3"/><circle cx="162.4" cy="99.73404264612627" r="5.7" fill="#fff" stroke="#f59e0b" stroke-width="3"/><circle cx="202.6" cy="116.11828472023004" r="6.05" fill="#fff" stroke="#ef4444" stroke-width="3"/><circle cx="242.8" cy="154.92608856718869" r="6.4" fill="#fff" stroke="#8b5cf6" stroke-width="3"/><circle cx="283" cy="188.82351821960697" r="6.75" fill="#fff" stroke="#22c55e" stroke-width="3"/><circle cx="323.2" cy="193.59746327670376" r="7.1" fill="#fff" stroke="#0ea5e9" stroke-width="3"/><circle cx="363.4" cy="163.54446488625604" r="7.449999999999999" fill="#fff" stroke="#f97316" stroke-width="3"/><circle cx="403.6" cy="115.09559228128731" r="7.8" fill="#fff" stroke="#2563eb" stroke-width="3"/><circle cx="443.8" cy="76.37355209237987" r="8.15" fill="#fff" stroke="#14b8a6" stroke-width="3"/><circle cx="484" cy="69.31908882593271" r="8.5" fill="#fff" stroke="#f59e0b" stroke-width="3"/>
  </g>
</svg>
