<?xml version="1.0" encoding="UTF-8"?>
<svg xmlns="http://www.w3.org/2000/svg" width="640" height="420" viewBox="0 0 640 420" role="img" aria-labelledby="title-line_large">
  <title id="title-line_large">Large line chart preview</title>
  <defs>
    <linearGradient id="bg-line_large" x1="0" x2="1" y1="0" y2="1">
      <stop offset="0" stop-color="#f8fafc"/>
      <stop offset="1" stop-color="#eef6f8"/>
    </linearGradient>
    <linearGradient id="accent-line_large" x1="0" x2="1" y1="0" y2="0">
      <stop offset="0" stop-color="#2563eb"/>
      <stop offset="0.52" stop-color="#14b8a6"/>
      <stop offset="1" stop-color="#f59e0b"/>
    </linearGradient>
    <filter id="shadow-line_large" x="-20%" y="-20%" width="140%" height="140%">
      <feDropShadow dx="0" dy="10" stdDeviation="14" flood-color="#0f172a" flood-opacity="0.12"/>
    </filter>
  </defs>
  <rect width="640" height="420" rx="30" fill="url(#bg-line_large)"/>
  <rect x="34" y="28" width="572" height="348" rx="26" fill="#ffffff" filter="url(#shadow-line_large)"/>
  <text x="58" y="68" font-family="Inter, ui-sans-serif, system-ui, sans-serif" font-size="22" font-weight="720" fill="#0f172a">Large line</text>
  <text x="58" y="94" font-family="Inter, ui-sans-serif, system-ui, sans-serif" font-size="13" fill="#64748b">Cartesian</text>
  <g transform="translate(58 112)">
    <g><line x1="48" y1="24" x2="462" y2="24" stroke="#dbe4ef" stroke-width="1"/><line x1="48" y1="72" x2="462" y2="72" stroke="#dbe4ef" stroke-width="1"/><line x1="48" y1="120" x2="462" y2="120" stroke="#dbe4ef" stroke-width="1"/><line x1="48" y1="168" x2="462" y2="168" stroke="#dbe4ef" stroke-width="1"/><line x1="48" y1="216" x2="462" y2="216" stroke="#dbe4ef" stroke-width="1"/><line x1="48" y1="216" x2="462" y2="216" stroke="#94a3b8"/><line x1="48" y1="24" x2="48" y2="216" stroke="#94a3b8"/></g><path d="M 48 150.83697950094938 L 67.71428571428572 71.63197451271117 L 87.42857142857143 136.70392729714513 L 107.14285714285714 116.91243723593652 L 126.85714285714286 102.91830398142338 L 146.57142857142858 134.262835489586 L 166.28571428571428 58.571459870785475 L 186 87.56957593373954 L 205.71428571428572 152.70926455408335 L 225.42857142857144 80.91004232503474 L 245.14285714285717 136.52923518791795 L 264.8571428571429 89.52932586334646 L 284.57142857142856 133.4608435034752 L 304.2857142857143 178.86077878065407 L 324 162.12802496179938 L 343.7142857142857 83.07769585959613 L 363.42857142857144 90.02885099500418 L 383.14285714285717 117.53061606921256 L 402.8571428571429 141.040762770921 L 422.5714285714286 103.97942400537431 L 442.28571428571433 115.07070241868496 L 462 73.27161832340062" fill="none" stroke="#2563eb" stroke-width="4" stroke-linecap="round" stroke-linejoin="round"/><circle cx="48" cy="150.83697950094938" r="4" fill="#fff" stroke="#2563eb" stroke-width="3"/><circle cx="67.71428571428572" cy="71.63197451271117" r="4" fill="#fff" stroke="#2563eb" stroke-width="3"/><circle cx="87.42857142857143" cy="136.70392729714513" r="4" fill="#fff" stroke="#2563eb" stroke-width="3"/><circle cx="107.14285714285714" cy="116.91243723593652" r="4" fill="#fff" stroke="#2563eb" stroke-width="3"/><circle cx="126.85714285714286" cy="102.91830398142338" r="4" fill="#fff" stroke="#2563eb" stroke-width="3"/><circle cx="146.57142857142858" cy="134.262835489586" r="4" fill="#fff" stroke="#2563eb" stroke-width="3"/><circle cx="166.28571428571428" cy="58.571459870785475" r="4" fill="#fff" stroke="#2563eb" stroke-width="3"/><circle cx="186" cy="87.56957593373954" r="4" fill="#fff" stroke="#2563eb" stroke-width="3"/><circle cx="205.71428571428572" cy="152.70926455408335" r="4" fill="#fff" stroke="#2563eb" stroke-width="3"/><circle cx="225.42857142857144" cy="80.91004232503474" r="4" fill="#fff" stroke="#2563eb" stroke-width="3"/><circle cx="245.14285714285717" cy="136.52923518791795" r="4" fill="#fff" stroke="#2563eb" stroke-width="3"/><circle cx="264.8571428571429" cy="89.52932586334646" r="4" fill="#fff" stroke="#2563eb" stroke-width="3"/><circle cx="284.57142857142856" cy="133.4608435034752" r="4" fill="#fff" stroke="#2563eb" stroke-width="3"/><circle cx="304.2857142857143" cy="178.86077878065407" r="4" fill="#fff" stroke="#2563eb" stroke-width="3"/><circle cx="324" cy="162.12802496179938" r="4" fill="#fff" stroke="#2563eb" stroke-width="3"/><circle cx="343.7142857142857" cy="83.07769585959613" r="4" fill="#fff" stroke="#2563eb" stroke-width="3"/><circle cx="363.42857142857144" cy="90.02885099500418" r="4" fill="#fff" stroke="#2563eb" stroke-width="3"/><circle cx="383.14285714285717" cy="117.53061606921256" r="4" fill="#fff" stroke="#2563eb" stroke-width="3"/><circle cx="402.8571428571429" cy="141.040762770921" r="4" fill="#fff" stroke="#2563eb" stroke-width="3"/><circle cx="422.5714285714286" cy="103.97942400537431" r="4" fill="#fff" stroke="#2563eb" stroke-width="3"/><circle cx="442.28571428571433" cy="115.07070241868496" r="4" fill="#fff" stroke="#2563eb" stroke-width="3"/><circle cx="462" cy="73.27161832340062" r="4" fill="#fff" stroke="#2563eb" stroke-width="3"/>
  </g>
</svg>
