<?xml version="1.0" encoding="UTF-8"?>
<svg xmlns="http://www.w3.org/2000/svg" width="640" height="420" viewBox="0 0 640 420" role="img" aria-labelledby="title-line_log">
  <title id="title-line_log">Log line chart preview</title>
  <defs>
    <linearGradient id="bg-line_log" x1="0" x2="1" y1="0" y2="1">
      <stop offset="0" stop-color="#f8fafc"/>
      <stop offset="1" stop-color="#eef6f8"/>
    </linearGradient>
    <linearGradient id="accent-line_log" x1="0" x2="1" y1="0" y2="0">
      <stop offset="0" stop-color="#2563eb"/>
      <stop offset="0.52" stop-color="#14b8a6"/>
      <stop offset="1" stop-color="#f59e0b"/>
    </linearGradient>
    <filter id="shadow-line_log" x="-20%" y="-20%" width="140%" height="140%">
      <feDropShadow dx="0" dy="10" stdDeviation="14" flood-color="#0f172a" flood-opacity="0.12"/>
    </filter>
  </defs>
  <rect width="640" height="420" rx="30" fill="url(#bg-line_log)"/>
  <rect x="34" y="28" width="572" height="348" rx="26" fill="#ffffff" filter="url(#shadow-line_log)"/>
  <text x="58" y="68" font-family="Inter, ui-sans-serif, system-ui, sans-serif" font-size="22" font-weight="720" fill="#0f172a">Log line</text>
  <text x="58" y="94" font-family="Inter, ui-sans-serif, system-ui, sans-serif" font-size="13" fill="#64748b">Cartesian</text>
  <g transform="translate(58 112)">
    <g><line x1="48" y1="24" x2="462" y2="24" stroke="#dbe4ef" stroke-width="1"/><line x1="48" y1="72" x2="462" y2="72" stroke="#dbe4ef" stroke-width="1"/><line x1="48" y1="120" x2="462" y2="120" stroke="#dbe4ef" stroke-width="1"/><line x1="48" y1="168" x2="462" y2="168" stroke="#dbe4ef" stroke-width="1"/><line x1="48" y1="216" x2="462" y2="216" stroke="#dbe4ef" stroke-width="1"/><line x1="48" y1="216" x2="462" y2="216" stroke="#94a3b8"/><line x1="48" y1="24" x2="48" y2="216" stroke="#94a3b8"/></g><path d="M 48 90.35712065733969 L 99.75 114.59031509235501 L 151.5 128.55725896917284 L 203.25 143.813819155097 L 255 125.6572945881635 L 306.75 192.60251958295703 L 358.5 81.23697829060256 L 410.25 129.6173219755292 L 462 157.18947447277606" fill="none" stroke="#2563eb" stroke-width="4" stroke-linecap="round" stroke-linejoin="round"/><circle cx="48" cy="90.35712065733969" r="4" fill="#fff" stroke="#2563eb" stroke-width="3"/><circle cx="99.75" cy="114.59031509235501" r="4" fill="#fff" stroke="#2563eb" stroke-width="3"/><circle cx="151.5" cy="128.55725896917284" r="4" fill="#fff" stroke="#2563eb" stroke-width="3"/><circle cx="203.25" cy="143.813819155097" r="4" fill="#fff" stroke="#2563eb" stroke-width="3"/><circle cx="255" cy="125.6572945881635" r="4" fill="#fff" stroke="#2563eb" stroke-width="3"/><circle cx="306.75" cy="192.60251958295703" r="4" fill="#fff" stroke="#2563eb" stroke-width="3"/><circle cx="358.5" cy="81.23697829060256" r="4" fill="#fff" stroke="#2563eb" stroke-width="3"/><circle cx="410.25" cy="129.6173219755292" r="4" fill="#fff" stroke="#2563eb" stroke-width="3"/><circle cx="462" cy="157.18947447277606" r="4" fill="#fff" stroke="#2563eb" stroke-width="3"/>
  </g>
</svg>
