<?xml version="1.0" encoding="UTF-8"?>
<svg xmlns="http://www.w3.org/2000/svg" width="640" height="420" viewBox="0 0 640 420" role="img" aria-labelledby="title-line_time">
  <title id="title-line_time">Time series chart preview</title>
  <defs>
    <linearGradient id="bg-line_time" x1="0" x2="1" y1="0" y2="1">
      <stop offset="0" stop-color="#f8fafc"/>
      <stop offset="1" stop-color="#eef6f8"/>
    </linearGradient>
    <linearGradient id="accent-line_time" x1="0" x2="1" y1="0" y2="0">
      <stop offset="0" stop-color="#2563eb"/>
      <stop offset="0.52" stop-color="#14b8a6"/>
      <stop offset="1" stop-color="#f59e0b"/>
    </linearGradient>
    <filter id="shadow-line_time" x="-20%" y="-20%" width="140%" height="140%">
      <feDropShadow dx="0" dy="10" stdDeviation="14" flood-color="#0f172a" flood-opacity="0.12"/>
    </filter>
  </defs>
  <rect width="640" height="420" rx="30" fill="url(#bg-line_time)"/>
  <rect x="34" y="28" width="572" height="348" rx="26" fill="#ffffff" filter="url(#shadow-line_time)"/>
  <text x="58" y="68" font-family="Inter, ui-sans-serif, system-ui, sans-serif" font-size="22" font-weight="720" fill="#0f172a">Time series</text>
  <text x="58" y="94" font-family="Inter, ui-sans-serif, system-ui, sans-serif" font-size="13" fill="#64748b">Cartesian</text>
  <g transform="translate(58 112)">
    <g><line x1="48" y1="24" x2="462" y2="24" stroke="#dbe4ef" stroke-width="1"/><line x1="48" y1="72" x2="462" y2="72" stroke="#dbe4ef" stroke-width="1"/><line x1="48" y1="120" x2="462" y2="120" stroke="#dbe4ef" stroke-width="1"/><line x1="48" y1="168" x2="462" y2="168" stroke="#dbe4ef" stroke-width="1"/><line x1="48" y1="216" x2="462" y2="216" stroke="#dbe4ef" stroke-width="1"/><line x1="48" y1="216" x2="462" y2="216" stroke="#94a3b8"/><line x1="48" y1="24" x2="48" y2="216" stroke="#94a3b8"/></g><path d="M 48 81.0843961648643 L 99.75 72.85447749309242 L 151.5 183.47734639793634 L 203.25 122.34118173457682 L 255 143.85490322485566 L 306.75 167.11850961111486 L 358.5 109.53859770298004 L 410.25 122.66970959492028 L 462 202.69164141640067" fill="none" stroke="#2563eb" stroke-width="4" stroke-linecap="round" stroke-linejoin="round"/><circle cx="48" cy="81.0843961648643" r="4" fill="#fff" stroke="#2563eb" stroke-width="3"/><circle cx="99.75" cy="72.85447749309242" r="4" fill="#fff" stroke="#2563eb" stroke-width="3"/><circle cx="151.5" cy="183.47734639793634" r="4" fill="#fff" stroke="#2563eb" stroke-width="3"/><circle cx="203.25" cy="122.34118173457682" r="4" fill="#fff" stroke="#2563eb" stroke-width="3"/><circle cx="255" cy="143.85490322485566" r="4" fill="#fff" stroke="#2563eb" stroke-width="3"/><circle cx="306.75" cy="167.11850961111486" r="4" fill="#fff" stroke="#2563eb" stroke-width="3"/><circle cx="358.5" cy="109.53859770298004" r="4" fill="#fff" stroke="#2563eb" stroke-width="3"/><circle cx="410.25" cy="122.66970959492028" r="4" fill="#fff" stroke="#2563eb" stroke-width="3"/><circle cx="462" cy="202.69164141640067" r="4" fill="#fff" stroke="#2563eb" stroke-width="3"/>
  </g>
</svg>
