<?xml version="1.0" encoding="UTF-8"?>
<svg xmlns="http://www.w3.org/2000/svg" width="640" height="420" viewBox="0 0 640 420" role="img" aria-labelledby="title-line_stacked_area">
  <title id="title-line_stacked_area">Stacked area chart preview</title>
  <defs>
    <linearGradient id="bg-line_stacked_area" x1="0" x2="1" y1="0" y2="1">
      <stop offset="0" stop-color="#f8fafc"/>
      <stop offset="1" stop-color="#eef6f8"/>
    </linearGradient>
    <linearGradient id="accent-line_stacked_area" x1="0" x2="1" y1="0" y2="0">
      <stop offset="0" stop-color="#2563eb"/>
      <stop offset="0.52" stop-color="#14b8a6"/>
      <stop offset="1" stop-color="#f59e0b"/>
    </linearGradient>
    <filter id="shadow-line_stacked_area" x="-20%" y="-20%" width="140%" height="140%">
      <feDropShadow dx="0" dy="10" stdDeviation="14" flood-color="#0f172a" flood-opacity="0.12"/>
    </filter>
  </defs>
  <rect width="640" height="420" rx="30" fill="url(#bg-line_stacked_area)"/>
  <rect x="34" y="28" width="572" height="348" rx="26" fill="#ffffff" filter="url(#shadow-line_stacked_area)"/>
  <text x="58" y="68" font-family="Inter, ui-sans-serif, system-ui, sans-serif" font-size="22" font-weight="720" fill="#0f172a">Stacked area</text>
  <text x="58" y="94" font-family="Inter, ui-sans-serif, system-ui, sans-serif" font-size="13" fill="#64748b">Cartesian</text>
  <g transform="translate(58 112)">
    <g><line x1="48" y1="24" x2="462" y2="24" stroke="#dbe4ef" stroke-width="1"/><line x1="48" y1="72" x2="462" y2="72" stroke="#dbe4ef" stroke-width="1"/><line x1="48" y1="120" x2="462" y2="120" stroke="#dbe4ef" stroke-width="1"/><line x1="48" y1="168" x2="462" y2="168" stroke="#dbe4ef" stroke-width="1"/><line x1="48" y1="216" x2="462" y2="216" stroke="#dbe4ef" stroke-width="1"/><line x1="48" y1="216" x2="462" y2="216" stroke="#94a3b8"/><line x1="48" y1="24" x2="48" y2="216" stroke="#94a3b8"/></g><path d="M 48 123.76224051788449 L 99.75 91.72618842683733 L 151.5 98.11933813989162 L 203.25 63.64545984752476 L 255 167.38085789605975 L 306.75 106.8175955992192 L 358.5 170.64294708520174 L 410.25 119.82515216805041 L 462 205.74068084731698 L 462 216 L 48 216 Z" fill="url(#accent-line_stacked_area)" opacity=".18"/><path d="M 48 174 L 100 142 L 152 156 L 204 98 L 256 126 L 308 78 L 360 94 L 414 62 L 462 88 L 462 216 L 48 216 Z" fill="#14b8a6" opacity=".18"/><path d="M 48 174 L 100 142 L 152 156 L 204 98 L 256 126 L 308 78 L 360 94 L 414 62 L 462 88" fill="none" stroke="#14b8a6" stroke-width="4" stroke-linejoin="round"/><path d="M 48 123.76224051788449 L 99.75 91.72618842683733 L 151.5 98.11933813989162 L 203.25 63.64545984752476 L 255 167.38085789605975 L 306.75 106.8175955992192 L 358.5 170.64294708520174 L 410.25 119.82515216805041 L 462 205.74068084731698" fill="none" stroke="#2563eb" stroke-width="4" stroke-linecap="round" stroke-linejoin="round"/><circle cx="48" cy="123.76224051788449" r="4" fill="#fff" stroke="#2563eb" stroke-width="3"/><circle cx="99.75" cy="91.72618842683733" r="4" fill="#fff" stroke="#2563eb" stroke-width="3"/><circle cx="151.5" cy="98.11933813989162" r="4" fill="#fff" stroke="#2563eb" stroke-width="3"/><circle cx="203.25" cy="63.64545984752476" r="4" fill="#fff" stroke="#2563eb" stroke-width="3"/><circle cx="255" cy="167.38085789605975" r="4" fill="#fff" stroke="#2563eb" stroke-width="3"/><circle cx="306.75" cy="106.8175955992192" r="4" fill="#fff" stroke="#2563eb" stroke-width="3"/><circle cx="358.5" cy="170.64294708520174" r="4" fill="#fff" stroke="#2563eb" stroke-width="3"/><circle cx="410.25" cy="119.82515216805041" r="4" fill="#fff" stroke="#2563eb" stroke-width="3"/><circle cx="462" cy="205.74068084731698" r="4" fill="#fff" stroke="#2563eb" stroke-width="3"/>
  </g>
</svg>
