<?xml version="1.0" encoding="UTF-8"?>
<svg xmlns="http://www.w3.org/2000/svg" width="640" height="420" viewBox="0 0 640 420" role="img" aria-labelledby="title-map_bubble">
  <title id="title-map_bubble">Map bubble chart preview</title>
  <defs>
    <linearGradient id="bg-map_bubble" x1="0" x2="1" y1="0" y2="1">
      <stop offset="0" stop-color="#f8fafc"/>
      <stop offset="1" stop-color="#eef6f8"/>
    </linearGradient>
    <linearGradient id="accent-map_bubble" x1="0" x2="1" y1="0" y2="0">
      <stop offset="0" stop-color="#2563eb"/>
      <stop offset="0.52" stop-color="#14b8a6"/>
      <stop offset="1" stop-color="#f59e0b"/>
    </linearGradient>
    <filter id="shadow-map_bubble" x="-20%" y="-20%" width="140%" height="140%">
      <feDropShadow dx="0" dy="10" stdDeviation="14" flood-color="#0f172a" flood-opacity="0.12"/>
    </filter>
  </defs>
  <rect width="640" height="420" rx="30" fill="url(#bg-map_bubble)"/>
  <rect x="34" y="28" width="572" height="348" rx="26" fill="#ffffff" filter="url(#shadow-map_bubble)"/>
  <text x="58" y="68" font-family="Inter, ui-sans-serif, system-ui, sans-serif" font-size="22" font-weight="720" fill="#0f172a">Map bubble</text>
  <text x="58" y="94" font-family="Inter, ui-sans-serif, system-ui, sans-serif" font-size="13" fill="#64748b">Geographic and calendar</text>
  <g transform="translate(58 112)">
    <path d="M 92 86 L 156 42 L 248 58 L 294 104 L 262 164 L 180 188 L 114 154 Z" fill="#bfdbfe" stroke="#fff" stroke-width="3"/><path d="M 286 70 L 380 44 L 440 92 L 410 174 L 326 162 Z" fill="#99f6e4" stroke="#fff" stroke-width="3"/><path d="M 172 194 L 286 176 L 382 210 L 320 244 L 214 232 Z" fill="#fde68a" stroke="#fff" stroke-width="3"/><circle cx="190" cy="114" r="24" fill="#ef4444" opacity=".55"/><circle cx="344" cy="104" r="16" fill="#2563eb" opacity=".6"/><circle cx="292" cy="208" r="28" fill="#f59e0b" opacity=".5"/>
  </g>
</svg>
