<?xml version="1.0" encoding="UTF-8"?>
<svg xmlns="http://www.w3.org/2000/svg" width="640" height="420" viewBox="0 0 640 420" role="img" aria-labelledby="title-map3d_basic">
  <title id="title-map3d_basic">3D map chart preview</title>
  <defs>
    <linearGradient id="bg-map3d_basic" x1="0" x2="1" y1="0" y2="1">
      <stop offset="0" stop-color="#f8fafc"/>
      <stop offset="1" stop-color="#eef6f8"/>
    </linearGradient>
    <linearGradient id="accent-map3d_basic" x1="0" x2="1" y1="0" y2="0">
      <stop offset="0" stop-color="#2563eb"/>
      <stop offset="0.52" stop-color="#14b8a6"/>
      <stop offset="1" stop-color="#f59e0b"/>
    </linearGradient>
    <filter id="shadow-map3d_basic" x="-20%" y="-20%" width="140%" height="140%">
      <feDropShadow dx="0" dy="10" stdDeviation="14" flood-color="#0f172a" flood-opacity="0.12"/>
    </filter>
  </defs>
  <rect width="640" height="420" rx="30" fill="url(#bg-map3d_basic)"/>
  <rect x="34" y="28" width="572" height="348" rx="26" fill="#ffffff" filter="url(#shadow-map3d_basic)"/>
  <text x="58" y="68" font-family="Inter, ui-sans-serif, system-ui, sans-serif" font-size="22" font-weight="720" fill="#0f172a">3D map</text>
  <text x="58" y="94" font-family="Inter, ui-sans-serif, system-ui, sans-serif" font-size="13" fill="#64748b">3D and GL</text>
  <g transform="translate(58 112)">
    <polygon points="86,118.12359740398824 104,108.12359740398824 124,118.12359740398824 106,128.12359740398824" fill="#2563eb"/><polygon points="86,118.12359740398824 106,128.12359740398824 106,198 86,188" fill="#2563eb" opacity=".72"/><polygon points="106,128.12359740398824 124,118.12359740398824 124,188 106,198" fill="#2563eb" opacity=".5"/><polygon points="136,158.66702786413953 154,148.66702786413953 174,158.66702786413953 156,168.66702786413953" fill="#14b8a6"/><polygon points="136,158.66702786413953 156,168.66702786413953 156,198 136,188" fill="#14b8a6" opacity=".72"/><polygon points="156,168.66702786413953 174,158.66702786413953 174,188 156,198" fill="#14b8a6" opacity=".5"/><polygon points="186,136.25371118169278 204,126.25371118169278 224,136.25371118169278 206,146.25371118169278" fill="#f59e0b"/><polygon points="186,136.25371118169278 206,146.25371118169278 206,198 186,188" fill="#f59e0b" opacity=".72"/><polygon points="206,146.25371118169278 224,136.25371118169278 224,188 206,198" fill="#f59e0b" opacity=".5"/><polygon points="236,98.30286150844768 254,88.30286150844768 274,98.30286150844768 256,108.30286150844768" fill="#ef4444"/><polygon points="236,98.30286150844768 256,108.30286150844768 256,198 236,188" fill="#ef4444" opacity=".72"/><polygon points="256,108.30286150844768 274,98.30286150844768 274,188 256,198" fill="#ef4444" opacity=".5"/><polygon points="286,142.25050320476294 304,132.25050320476294 324,142.25050320476294 306,152.25050320476294" fill="#8b5cf6"/><polygon points="286,142.25050320476294 306,152.25050320476294 306,198 286,188" fill="#8b5cf6" opacity=".72"/><polygon points="306,152.25050320476294 324,142.25050320476294 324,188 306,198" fill="#8b5cf6" opacity=".5"/><polygon points="336,146.54506236081943 354,136.54506236081943 374,146.54506236081943 356,156.54506236081943" fill="#22c55e"/><polygon points="336,146.54506236081943 356,156.54506236081943 356,198 336,188" fill="#22c55e" opacity=".72"/><polygon points="356,156.54506236081943 374,146.54506236081943 374,188 356,198" fill="#22c55e" opacity=".5"/><polygon points="386,141.62429729569703 404,131.62429729569703 424,141.62429729569703 406,151.62429729569703" fill="#0ea5e9"/><polygon points="386,141.62429729569703 406,151.62429729569703 406,198 386,188" fill="#0ea5e9" opacity=".72"/><polygon points="406,151.62429729569703 424,141.62429729569703 424,188 406,198" fill="#0ea5e9" opacity=".5"/><polygon points="108,113.15427443990484 126,103.15427443990484 146,113.15427443990484 128,123.15427443990484" fill="#14b8a6"/><polygon points="108,113.15427443990484 128,123.15427443990484 128,180 108,170" fill="#14b8a6" opacity=".72"/><polygon points="128,123.15427443990484 146,113.15427443990484 146,170 128,180" fill="#14b8a6" opacity=".5"/><polygon points="158,140.36023693718016 176,130.36023693718016 196,140.36023693718016 178,150.36023693718016" fill="#f59e0b"/><polygon points="158,140.36023693718016 178,150.36023693718016 178,180 158,170" fill="#f59e0b" opacity=".72"/><polygon points="178,150.36023693718016 196,140.36023693718016 196,170 178,180" fill="#f59e0b" opacity=".5"/><polygon points="208,125.08601414365694 226,115.08601414365694 246,125.08601414365694 228,135.08601414365694" fill="#ef4444"/><polygon points="208,125.08601414365694 228,135.08601414365694 228,180 208,170" fill="#ef4444" opacity=".72"/><polygon points="228,135.08601414365694 246,125.08601414365694 246,170 228,180" fill="#ef4444" opacity=".5"/><polygon points="258,65.39062490221113 276,55.39062490221113 296,65.39062490221113 278,75.39062490221113" fill="#8b5cf6"/><polygon points="258,65.39062490221113 278,75.39062490221113 278,180 258,170" fill="#8b5cf6" opacity=".72"/><polygon points="278,75.39062490221113 296,65.39062490221113 296,170 278,180" fill="#8b5cf6" opacity=".5"/><polygon points="308,83.61350731598213 326,73.61350731598213 346,83.61350731598213 328,93.61350731598213" fill="#22c55e"/><polygon points="308,83.61350731598213 328,93.61350731598213 328,180 308,170" fill="#22c55e" opacity=".72"/><polygon points="328,93.61350731598213 346,83.61350731598213 346,170 328,180" fill="#22c55e" opacity=".5"/><polygon points="358,68.96328949555755 376,58.96328949555755 396,68.96328949555755 378,78.96328949555755" fill="#0ea5e9"/><polygon points="358,68.96328949555755 378,78.96328949555755 378,180 358,170" fill="#0ea5e9" opacity=".72"/><polygon points="378,78.96328949555755 396,68.96328949555755 396,170 378,180" fill="#0ea5e9" opacity=".5"/><polygon points="408,145.1457472606562 426,135.1457472606562 446,145.1457472606562 428,155.1457472606562" fill="#f97316"/><polygon points="408,145.1457472606562 428,155.1457472606562 428,180 408,170" fill="#f97316" opacity=".72"/><polygon points="428,155.1457472606562 446,145.1457472606562 446,170 428,180" fill="#f97316" opacity=".5"/><polygon points="130,130.65719810966402 148,120.65719810966402 168,130.65719810966402 150,140.65719810966402" fill="#f59e0b"/><polygon points="130,130.65719810966402 150,140.65719810966402 150,162 130,152" fill="#f59e0b" opacity=".72"/><polygon points="150,140.65719810966402 168,130.65719810966402 168,152 150,162" fill="#f59e0b" opacity=".5"/><polygon points="180,124.38164284313098 198,114.38164284313098 218,124.38164284313098 200,134.38164284313098" fill="#ef4444"/><polygon points="180,124.38164284313098 200,134.38164284313098 200,162 180,152" fill="#ef4444" opacity=".72"/><polygon points="200,134.38164284313098 218,124.38164284313098 218,152 200,162" fill="#ef4444" opacity=".5"/><polygon points="230,123.7516169231385 248,113.7516169231385 268,123.7516169231385 250,133.7516169231385" fill="#8b5cf6"/><polygon points="230,123.7516169231385 250,133.7516169231385 250,162 230,152" fill="#8b5cf6" opacity=".72"/><polygon points="250,133.7516169231385 268,123.7516169231385 268,152 250,162" fill="#8b5cf6" opacity=".5"/><polygon points="280,113.85714144585654 298,103.85714144585654 318,113.85714144585654 300,123.85714144585654" fill="#22c55e"/><polygon points="280,113.85714144585654 300,123.85714144585654 300,162 280,152" fill="#22c55e" opacity=".72"/><polygon points="300,123.85714144585654 318,113.85714144585654 318,152 300,162" fill="#22c55e" opacity=".5"/><polygon points="330,114.0633186949417 348,104.0633186949417 368,114.0633186949417 350,124.0633186949417" fill="#0ea5e9"/><polygon points="330,114.0633186949417 350,124.0633186949417 350,162 330,152" fill="#0ea5e9" opacity=".72"/><polygon points="350,124.0633186949417 368,114.0633186949417 368,152 350,162" fill="#0ea5e9" opacity=".5"/><polygon points="380,75.24885216774419 398,65.24885216774419 418,75.24885216774419 400,85.24885216774419" fill="#f97316"/><polygon points="380,75.24885216774419 400,85.24885216774419 400,162 380,152" fill="#f97316" opacity=".72"/><polygon points="400,85.24885216774419 418,75.24885216774419 418,152 400,162" fill="#f97316" opacity=".5"/><polygon points="430,97.35266873240471 448,87.35266873240471 468,97.35266873240471 450,107.35266873240471" fill="#2563eb"/><polygon points="430,97.35266873240471 450,107.35266873240471 450,162 430,152" fill="#2563eb" opacity=".72"/><polygon points="450,107.35266873240471 468,97.35266873240471 468,152 450,162" fill="#2563eb" opacity=".5"/><polygon points="152,86.6199602833949 170,76.6199602833949 190,86.6199602833949 172,96.6199602833949" fill="#ef4444"/><polygon points="152,86.6199602833949 172,96.6199602833949 172,144 152,134" fill="#ef4444" opacity=".72"/><polygon points="172,96.6199602833949 190,86.6199602833949 190,134 172,144" fill="#ef4444" opacity=".5"/><polygon points="202,87.08887223619968 220,77.08887223619968 240,87.08887223619968 222,97.08887223619968" fill="#8b5cf6"/><polygon points="202,87.08887223619968 222,97.08887223619968 222,144 202,134" fill="#8b5cf6" opacity=".72"/><polygon points="222,97.08887223619968 240,87.08887223619968 240,134 222,144" fill="#8b5cf6" opacity=".5"/><polygon points="252,66.7571146027185 270,56.7571146027185 290,66.7571146027185 272,76.7571146027185" fill="#22c55e"/><polygon points="252,66.7571146027185 272,76.7571146027185 272,144 252,134" fill="#22c55e" opacity=".72"/><polygon points="272,76.7571146027185 290,66.7571146027185 290,134 272,144" fill="#22c55e" opacity=".5"/><polygon points="302,67.88224435038865 320,57.882244350388646 340,67.88224435038865 322,77.88224435038865" fill="#0ea5e9"/><polygon points="302,67.88224435038865 322,77.88224435038865 322,144 302,134" fill="#0ea5e9" opacity=".72"/><polygon points="322,77.88224435038865 340,67.88224435038865 340,134 322,144" fill="#0ea5e9" opacity=".5"/><polygon points="352,52.47548499656841 370,42.47548499656841 390,52.47548499656841 372,62.47548499656841" fill="#f97316"/><polygon points="352,52.47548499656841 372,62.47548499656841 372,144 352,134" fill="#f97316" opacity=".72"/><polygon points="372,62.47548499656841 390,52.47548499656841 390,134 372,144" fill="#f97316" opacity=".5"/><polygon points="402,58.362067370675504 420,48.362067370675504 440,58.362067370675504 422,68.3620673706755" fill="#2563eb"/><polygon points="402,58.362067370675504 422,68.3620673706755 422,144 402,134" fill="#2563eb" opacity=".72"/><polygon points="422,68.3620673706755 440,58.362067370675504 440,134 422,144" fill="#2563eb" opacity=".5"/><polygon points="452,97.88832797901705 470,87.88832797901705 490,97.88832797901705 472,107.88832797901705" fill="#14b8a6"/><polygon points="452,97.88832797901705 472,107.88832797901705 472,144 452,134" fill="#14b8a6" opacity=".72"/><polygon points="472,107.88832797901705 490,97.88832797901705 490,134 472,144" fill="#14b8a6" opacity=".5"/>
  </g>
</svg>
