<?xml version="1.0" encoding="UTF-8"?>
<svg xmlns="http://www.w3.org/2000/svg" width="640" height="420" viewBox="0 0 640 420" role="img" aria-labelledby="title-matrix_bubble">
  <title id="title-matrix_bubble">Matrix bubble chart preview</title>
  <defs>
    <linearGradient id="bg-matrix_bubble" x1="0" x2="1" y1="0" y2="1">
      <stop offset="0" stop-color="#f8fafc"/>
      <stop offset="1" stop-color="#eef6f8"/>
    </linearGradient>
    <linearGradient id="accent-matrix_bubble" x1="0" x2="1" y1="0" y2="0">
      <stop offset="0" stop-color="#2563eb"/>
      <stop offset="0.52" stop-color="#14b8a6"/>
      <stop offset="1" stop-color="#f59e0b"/>
    </linearGradient>
    <filter id="shadow-matrix_bubble" x="-20%" y="-20%" width="140%" height="140%">
      <feDropShadow dx="0" dy="10" stdDeviation="14" flood-color="#0f172a" flood-opacity="0.12"/>
    </filter>
  </defs>
  <rect width="640" height="420" rx="30" fill="url(#bg-matrix_bubble)"/>
  <rect x="34" y="28" width="572" height="348" rx="26" fill="#ffffff" filter="url(#shadow-matrix_bubble)"/>
  <text x="58" y="68" font-family="Inter, ui-sans-serif, system-ui, sans-serif" font-size="22" font-weight="720" fill="#0f172a">Matrix bubble</text>
  <text x="58" y="94" font-family="Inter, ui-sans-serif, system-ui, sans-serif" font-size="13" fill="#64748b">Statistical and finance</text>
  <g transform="translate(58 112)">
    <rect x="50" y="24" width="24" height="20" rx="5" fill="#dbeafe" opacity="0.519069649465382"/><circle cx="62" cy="34" r="5.254261992871761" fill="#14b8a6" opacity=".75"/><rect x="82" y="24" width="24" height="20" rx="5" fill="#1d4ed8" opacity="0.7499171488452703"/><circle cx="94" cy="34" r="8.33222865127027" fill="#14b8a6" opacity=".75"/><rect x="114" y="24" width="24" height="20" rx="5" fill="#1d4ed8" opacity="0.7838224572129547"/><circle cx="126" cy="34" r="8.784299429506063" fill="#14b8a6" opacity=".75"/><rect x="146" y="24" width="24" height="20" rx="5" fill="#dbeafe" opacity="0.41723317722789943"/><circle cx="158" cy="34" r="3.896442363038659" fill="#14b8a6" opacity=".75"/><rect x="178" y="24" width="24" height="20" rx="5" fill="#dbeafe" opacity="0.3959660530090332"/><circle cx="190" cy="34" r="3.6128807067871094" fill="#14b8a6" opacity=".75"/><rect x="210" y="24" width="24" height="20" rx="5" fill="#60a5fa" opacity="0.7360256446991116"/><circle cx="222" cy="34" r="8.147008595988154" fill="#14b8a6" opacity=".75"/><rect x="242" y="24" width="24" height="20" rx="5" fill="#1d4ed8" opacity="0.827883572410792"/><circle cx="254" cy="34" r="9.371780965477228" fill="#14b8a6" opacity=".75"/><rect x="274" y="24" width="24" height="20" rx="5" fill="#1d4ed8" opacity="0.8450078574474901"/><circle cx="286" cy="34" r="9.600104765966535" fill="#14b8a6" opacity=".75"/><rect x="306" y="24" width="24" height="20" rx="5" fill="#dbeafe" opacity="0.4455585671588778"/><circle cx="318" cy="34" r="4.274114228785038" fill="#14b8a6" opacity=".75"/><rect x="338" y="24" width="24" height="20" rx="5" fill="#60a5fa" opacity="0.7156409148592502"/><circle cx="350" cy="34" r="7.875212198123336" fill="#14b8a6" opacity=".75"/><rect x="370" y="24" width="24" height="20" rx="5" fill="#dbeafe" opacity="0.5354468771256506"/><circle cx="382" cy="34" r="5.472625028342009" fill="#14b8a6" opacity=".75"/><rect x="402" y="24" width="24" height="20" rx="5" fill="#60a5fa" opacity="0.6547883573453873"/><circle cx="414" cy="34" r="7.0638447646051645" fill="#14b8a6" opacity=".75"/><rect x="50" y="52" width="24" height="20" rx="5" fill="#60a5fa" opacity="0.7321511145681143"/><circle cx="62" cy="62" r="8.095348194241524" fill="#14b8a6" opacity=".75"/><rect x="82" y="52" width="24" height="20" rx="5" fill="#dbeafe" opacity="0.3756172741297632"/><circle cx="94" cy="62" r="3.34156365506351" fill="#14b8a6" opacity=".75"/><rect x="114" y="52" width="24" height="20" rx="5" fill="#1d4ed8" opacity="0.8848616278730332"/><circle cx="126" cy="62" r="10.131488371640444" fill="#14b8a6" opacity=".75"/><rect x="146" y="52" width="24" height="20" rx="5" fill="#1d4ed8" opacity="0.8427761444356292"/><circle cx="158" cy="62" r="9.570348592475057" fill="#14b8a6" opacity=".75"/><rect x="178" y="52" width="24" height="20" rx="5" fill="#1d4ed8" opacity="0.9034574994817376"/><circle cx="190" cy="62" r="10.379433326423168" fill="#14b8a6" opacity=".75"/><rect x="210" y="52" width="24" height="20" rx="5" fill="#60a5fa" opacity="0.7359656230080873"/><circle cx="222" cy="62" r="8.146208306774497" fill="#14b8a6" opacity=".75"/><rect x="242" y="52" width="24" height="20" rx="5" fill="#dbeafe" opacity="0.5202783201821148"/><circle cx="254" cy="62" r="5.270377602428198" fill="#14b8a6" opacity=".75"/><rect x="274" y="52" width="24" height="20" rx="5" fill="#1d4ed8" opacity="0.8125419184099882"/><circle cx="286" cy="62" r="9.167225578799844" fill="#14b8a6" opacity=".75"/><rect x="306" y="52" width="24" height="20" rx="5" fill="#1d4ed8" opacity="0.8783821694552898"/><circle cx="318" cy="62" r="10.045095592737198" fill="#14b8a6" opacity=".75"/><rect x="338" y="52" width="24" height="20" rx="5" fill="#60a5fa" opacity="0.6222533500287681"/><circle cx="350" cy="62" r="6.630044667050242" fill="#14b8a6" opacity=".75"/><rect x="370" y="52" width="24" height="20" rx="5" fill="#1d4ed8" opacity="0.7990974190644919"/><circle cx="382" cy="62" r="8.98796558752656" fill="#14b8a6" opacity=".75"/><rect x="402" y="52" width="24" height="20" rx="5" fill="#dbeafe" opacity="0.37310910723172125"/><circle cx="414" cy="62" r="3.3081214297562838" fill="#14b8a6" opacity=".75"/><rect x="50" y="80" width="24" height="20" rx="5" fill="#1d4ed8" opacity="0.7783556645736098"/><circle cx="62" cy="90" r="8.711408860981464" fill="#14b8a6" opacity=".75"/><rect x="82" y="80" width="24" height="20" rx="5" fill="#dbeafe" opacity="0.4042151716072112"/><circle cx="94" cy="90" r="3.7228689547628164" fill="#14b8a6" opacity=".75"/><rect x="114" y="80" width="24" height="20" rx="5" fill="#60a5fa" opacity="0.6001602769829333"/><circle cx="126" cy="90" r="6.335470359772444" fill="#14b8a6" opacity=".75"/><rect x="146" y="80" width="24" height="20" rx="5" fill="#1d4ed8" opacity="0.9266858007293194"/><circle cx="158" cy="90" r="10.68914400972426" fill="#14b8a6" opacity=".75"/><rect x="178" y="80" width="24" height="20" rx="5" fill="#1d4ed8" opacity="0.8240997541695833"/><circle cx="190" cy="90" r="9.321330055594444" fill="#14b8a6" opacity=".75"/><rect x="210" y="80" width="24" height="20" rx="5" fill="#1d4ed8" opacity="0.7849499093834311"/><circle cx="222" cy="90" r="8.799332125112414" fill="#14b8a6" opacity=".75"/><rect x="242" y="80" width="24" height="20" rx="5" fill="#1d4ed8" opacity="0.8895572393201291"/><circle cx="254" cy="90" r="10.194096524268389" fill="#14b8a6" opacity=".75"/><rect x="274" y="80" width="24" height="20" rx="5" fill="#60a5fa" opacity="0.6054201216902584"/><circle cx="286" cy="90" r="6.4056016225367785" fill="#14b8a6" opacity=".75"/><rect x="306" y="80" width="24" height="20" rx="5" fill="#1d4ed8" opacity="0.8696972610428929"/><circle cx="318" cy="90" r="9.929296813905239" fill="#14b8a6" opacity=".75"/><rect x="338" y="80" width="24" height="20" rx="5" fill="#1d4ed8" opacity="0.7750782050658017"/><circle cx="350" cy="90" r="8.667709400877357" fill="#14b8a6" opacity=".75"/><rect x="370" y="80" width="24" height="20" rx="5" fill="#1d4ed8" opacity="0.7909279373474418"/><circle cx="382" cy="90" r="8.879039164632559" fill="#14b8a6" opacity=".75"/><rect x="402" y="80" width="24" height="20" rx="5" fill="#dbeafe" opacity="0.466554034454748"/><circle cx="414" cy="90" r="4.554053792729974" fill="#14b8a6" opacity=".75"/><rect x="50" y="108" width="24" height="20" rx="5" fill="#60a5fa" opacity="0.5958415731787681"/><circle cx="62" cy="118" r="6.277887642383575" fill="#14b8a6" opacity=".75"/><rect x="82" y="108" width="24" height="20" rx="5" fill="#1d4ed8" opacity="0.9362361727748065"/><circle cx="94" cy="118" r="10.816482303664088" fill="#14b8a6" opacity=".75"/><rect x="114" y="108" width="24" height="20" rx="5" fill="#60a5fa" opacity="0.6571287686936558"/><circle cx="126" cy="118" r="7.095050249248743" fill="#14b8a6" opacity=".75"/><rect x="146" y="108" width="24" height="20" rx="5" fill="#60a5fa" opacity="0.6053505910094827"/><circle cx="158" cy="118" r="6.404674546793103" fill="#14b8a6" opacity=".75"/><rect x="178" y="108" width="24" height="20" rx="5" fill="#1d4ed8" opacity="0.9341408429667353"/><circle cx="190" cy="118" r="10.788544572889805" fill="#14b8a6" opacity=".75"/><rect x="210" y="108" width="24" height="20" rx="5" fill="#60a5fa" opacity="0.7282799888867885"/><circle cx="222" cy="118" r="8.04373318515718" fill="#14b8a6" opacity=".75"/><rect x="242" y="108" width="24" height="20" rx="5" fill="#1d4ed8" opacity="0.7901425653137266"/><circle cx="254" cy="118" r="8.868567537516356" fill="#14b8a6" opacity=".75"/><rect x="274" y="108" width="24" height="20" rx="5" fill="#60a5fa" opacity="0.5951696145813912"/><circle cx="286" cy="118" r="6.2689281944185495" fill="#14b8a6" opacity=".75"/><rect x="306" y="108" width="24" height="20" rx="5" fill="#1d4ed8" opacity="0.8443518739193677"/><circle cx="318" cy="118" r="9.591358318924904" fill="#14b8a6" opacity=".75"/><rect x="338" y="108" width="24" height="20" rx="5" fill="#dbeafe" opacity="0.5445764193776994"/><circle cx="350" cy="118" r="5.594352258369327" fill="#14b8a6" opacity=".75"/><rect x="370" y="108" width="24" height="20" rx="5" fill="#1d4ed8" opacity="0.8061054489575326"/><circle cx="382" cy="118" r="9.081405986100435" fill="#14b8a6" opacity=".75"/><rect x="402" y="108" width="24" height="20" rx="5" fill="#1d4ed8" opacity="0.8140668207313865"/><circle cx="414" cy="118" r="9.18755760975182" fill="#14b8a6" opacity=".75"/><rect x="50" y="136" width="24" height="20" rx="5" fill="#dbeafe" opacity="0.5164186948910355"/><circle cx="62" cy="146" r="5.218915931880474" fill="#14b8a6" opacity=".75"/><rect x="82" y="136" width="24" height="20" rx="5" fill="#60a5fa" opacity="0.5697542846668511"/><circle cx="94" cy="146" r="5.930057128891349" fill="#14b8a6" opacity=".75"/><rect x="114" y="136" width="24" height="20" rx="5" fill="#60a5fa" opacity="0.5923258741386235"/><circle cx="126" cy="146" r="6.231011655181646" fill="#14b8a6" opacity=".75"/><rect x="146" y="136" width="24" height="20" rx="5" fill="#1d4ed8" opacity="0.7672913759481161"/><circle cx="158" cy="146" r="8.563885012641549" fill="#14b8a6" opacity=".75"/><rect x="178" y="136" width="24" height="20" rx="5" fill="#60a5fa" opacity="0.6191908217966556"/><circle cx="190" cy="146" r="6.589210957288742" fill="#14b8a6" opacity=".75"/><rect x="210" y="136" width="24" height="20" rx="5" fill="#60a5fa" opacity="0.7442918619606644"/><circle cx="222" cy="146" r="8.257224826142192" fill="#14b8a6" opacity=".75"/><rect x="242" y="136" width="24" height="20" rx="5" fill="#dbeafe" opacity="0.3531708586029708"/><circle cx="254" cy="146" r="3.042278114706278" fill="#14b8a6" opacity=".75"/><rect x="274" y="136" width="24" height="20" rx="5" fill="#1d4ed8" opacity="0.8650568937417119"/><circle cx="286" cy="146" r="9.867425249889493" fill="#14b8a6" opacity=".75"/><rect x="306" y="136" width="24" height="20" rx="5" fill="#60a5fa" opacity="0.5676962068304419"/><circle cx="318" cy="146" r="5.902616091072559" fill="#14b8a6" opacity=".75"/><rect x="338" y="136" width="24" height="20" rx="5" fill="#1d4ed8" opacity="0.8703152250964195"/><circle cx="350" cy="146" r="9.937536334618926" fill="#14b8a6" opacity=".75"/><rect x="370" y="136" width="24" height="20" rx="5" fill="#dbeafe" opacity="0.39169440129771826"/><circle cx="382" cy="146" r="3.555925350636244" fill="#14b8a6" opacity=".75"/><rect x="402" y="136" width="24" height="20" rx="5" fill="#dbeafe" opacity="0.4649608682375401"/><circle cx="414" cy="146" r="4.532811576500535" fill="#14b8a6" opacity=".75"/><rect x="50" y="164" width="24" height="20" rx="5" fill="#60a5fa" opacity="0.7308438751846551"/><circle cx="62" cy="174" r="8.077918335795403" fill="#14b8a6" opacity=".75"/><rect x="82" y="164" width="24" height="20" rx="5" fill="#60a5fa" opacity="0.6429825218860059"/><circle cx="94" cy="174" r="6.906433625146747" fill="#14b8a6" opacity=".75"/><rect x="114" y="164" width="24" height="20" rx="5" fill="#1d4ed8" opacity="0.8238830878399312"/><circle cx="126" cy="174" r="9.318441171199083" fill="#14b8a6" opacity=".75"/><rect x="146" y="164" width="24" height="20" rx="5" fill="#60a5fa" opacity="0.7384275452699511"/><circle cx="158" cy="174" r="8.179033936932683" fill="#14b8a6" opacity=".75"/><rect x="178" y="164" width="24" height="20" rx="5" fill="#dbeafe" opacity="0.451431249268353"/><circle cx="190" cy="174" r="4.352416656911373" fill="#14b8a6" opacity=".75"/><rect x="210" y="164" width="24" height="20" rx="5" fill="#60a5fa" opacity="0.7418291889596731"/><circle cx="222" cy="174" r="8.224389186128974" fill="#14b8a6" opacity=".75"/><rect x="242" y="164" width="24" height="20" rx="5" fill="#dbeafe" opacity="0.372393883485347"/><circle cx="254" cy="174" r="3.2985851131379604" fill="#14b8a6" opacity=".75"/><rect x="274" y="164" width="24" height="20" rx="5" fill="#60a5fa" opacity="0.6705492309760301"/><circle cx="286" cy="174" r="7.27398974634707" fill="#14b8a6" opacity=".75"/><rect x="306" y="164" width="24" height="20" rx="5" fill="#60a5fa" opacity="0.7003311604261397"/><circle cx="318" cy="174" r="7.671082139015198" fill="#14b8a6" opacity=".75"/><rect x="338" y="164" width="24" height="20" rx="5" fill="#1d4ed8" opacity="0.8664491041097789"/><circle cx="350" cy="174" r="9.885988054797053" fill="#14b8a6" opacity=".75"/><rect x="370" y="164" width="24" height="20" rx="5" fill="#60a5fa" opacity="0.7366591135971248"/><circle cx="382" cy="174" r="8.155454847961664" fill="#14b8a6" opacity=".75"/><rect x="402" y="164" width="24" height="20" rx="5" fill="#dbeafe" opacity="0.45270103788934646"/><circle cx="414" cy="174" r="4.369347171857953" fill="#14b8a6" opacity=".75"/>
  </g>
</svg>
