<?xml version="1.0" encoding="UTF-8"?>
<svg xmlns="http://www.w3.org/2000/svg" width="640" height="420" viewBox="0 0 640 420" role="img" aria-labelledby="title-ohlc_bar">
  <title id="title-ohlc_bar">OHLC bar chart preview</title>
  <defs>
    <linearGradient id="bg-ohlc_bar" x1="0" x2="1" y1="0" y2="1">
      <stop offset="0" stop-color="#f8fafc"/>
      <stop offset="1" stop-color="#eef6f8"/>
    </linearGradient>
    <linearGradient id="accent-ohlc_bar" x1="0" x2="1" y1="0" y2="0">
      <stop offset="0" stop-color="#2563eb"/>
      <stop offset="0.52" stop-color="#14b8a6"/>
      <stop offset="1" stop-color="#f59e0b"/>
    </linearGradient>
    <filter id="shadow-ohlc_bar" x="-20%" y="-20%" width="140%" height="140%">
      <feDropShadow dx="0" dy="10" stdDeviation="14" flood-color="#0f172a" flood-opacity="0.12"/>
    </filter>
  </defs>
  <rect width="640" height="420" rx="30" fill="url(#bg-ohlc_bar)"/>
  <rect x="34" y="28" width="572" height="348" rx="26" fill="#ffffff" filter="url(#shadow-ohlc_bar)"/>
  <text x="58" y="68" font-family="Inter, ui-sans-serif, system-ui, sans-serif" font-size="22" font-weight="720" fill="#0f172a">OHLC bar</text>
  <text x="58" y="94" font-family="Inter, ui-sans-serif, system-ui, sans-serif" font-size="13" fill="#64748b">Statistical and finance</text>
  <g transform="translate(58 112)">
    <g><line x1="48" y1="24" x2="462" y2="24" stroke="#dbe4ef" stroke-width="1"/><line x1="48" y1="72" x2="462" y2="72" stroke="#dbe4ef" stroke-width="1"/><line x1="48" y1="120" x2="462" y2="120" stroke="#dbe4ef" stroke-width="1"/><line x1="48" y1="168" x2="462" y2="168" stroke="#dbe4ef" stroke-width="1"/><line x1="48" y1="216" x2="462" y2="216" stroke="#dbe4ef" stroke-width="1"/><line x1="48" y1="216" x2="462" y2="216" stroke="#94a3b8"/><line x1="48" y1="24" x2="48" y2="216" stroke="#94a3b8"/></g><line x1="64" y1="79.21089779864997" x2="64" y2="181.01250363280997" stroke="#14b8a6" stroke-width="2"/><line x1="54" y1="149.77117263060063" x2="64" y2="149.77117263060063" stroke="#14b8a6" stroke-width="2"/><line x1="64" y1="134.83962884917855" x2="74" y2="134.83962884917855" stroke="#14b8a6" stroke-width="2"/><line x1="96" y1="65.0966328876093" x2="96" y2="184.97920168144628" stroke="#14b8a6" stroke-width="2"/><line x1="86" y1="114.43375258985907" x2="96" y2="114.43375258985907" stroke="#14b8a6" stroke-width="2"/><line x1="96" y1="88.43309854902327" x2="106" y2="88.43309854902327" stroke="#14b8a6" stroke-width="2"/><line x1="128" y1="79.22428621258587" x2="128" y2="162.84613988315687" stroke="#ef4444" stroke-width="2"/><line x1="118" y1="114.34547266270965" x2="128" y2="114.34547266270965" stroke="#ef4444" stroke-width="2"/><line x1="128" y1="126.26425687968731" x2="138" y2="126.26425687968731" stroke="#ef4444" stroke-width="2"/><line x1="160" y1="59.782279499806464" x2="160" y2="155.12888935534284" stroke="#14b8a6" stroke-width="2"/><line x1="150" y1="131.25687596667558" x2="160" y2="131.25687596667558" stroke="#14b8a6" stroke-width="2"/><line x1="160" y1="126.6303731855005" x2="170" y2="126.6303731855005" stroke="#14b8a6" stroke-width="2"/><line x1="192" y1="89.75521520059556" x2="192" y2="156.11761075397953" stroke="#ef4444" stroke-width="2"/><line x1="182" y1="123.95826239418238" x2="192" y2="123.95826239418238" stroke="#ef4444" stroke-width="2"/><line x1="192" y1="131.04919868335128" x2="202" y2="131.04919868335128" stroke="#ef4444" stroke-width="2"/><line x1="224" y1="77.01726028043777" x2="224" y2="163.04490095330402" stroke="#14b8a6" stroke-width="2"/><line x1="214" y1="122.56130482349545" x2="224" y2="122.56130482349545" stroke="#14b8a6" stroke-width="2"/><line x1="224" y1="111.92437173612416" x2="234" y2="111.92437173612416" stroke="#14b8a6" stroke-width="2"/><line x1="256" y1="70.21654563304037" x2="256" y2="151.20481160050258" stroke="#ef4444" stroke-width="2"/><line x1="246" y1="116.9896497046575" x2="256" y2="116.9896497046575" stroke="#ef4444" stroke-width="2"/><line x1="256" y1="145.43543250113726" x2="266" y2="145.43543250113726" stroke="#ef4444" stroke-width="2"/><line x1="288" y1="51.85683111939579" x2="288" y2="146.4917895453982" stroke="#ef4444" stroke-width="2"/><line x1="278" y1="78.2722520204261" x2="288" y2="78.2722520204261" stroke="#ef4444" stroke-width="2"/><line x1="288" y1="94.49619695357978" x2="298" y2="94.49619695357978" stroke="#ef4444" stroke-width="2"/><line x1="320" y1="62.48268623184413" x2="320" y2="148.32828914513811" stroke="#14b8a6" stroke-width="2"/><line x1="310" y1="138.73319462221116" x2="320" y2="138.73319462221116" stroke="#14b8a6" stroke-width="2"/><line x1="320" y1="114.12524028494954" x2="330" y2="114.12524028494954" stroke="#14b8a6" stroke-width="2"/><line x1="352" y1="72.37443638313562" x2="352" y2="167.44980644388124" stroke="#14b8a6" stroke-width="2"/><line x1="342" y1="134.67174194101244" x2="352" y2="134.67174194101244" stroke="#14b8a6" stroke-width="2"/><line x1="352" y1="129.07223967649043" x2="362" y2="129.07223967649043" stroke="#14b8a6" stroke-width="2"/><line x1="384" y1="79.65912482049316" x2="384" y2="162.51608522748575" stroke="#ef4444" stroke-width="2"/><line x1="374" y1="112.62637807335705" x2="384" y2="112.62637807335705" stroke="#ef4444" stroke-width="2"/><line x1="384" y1="151.04392644762993" x2="394" y2="151.04392644762993" stroke="#ef4444" stroke-width="2"/><line x1="416" y1="76.24374016467482" x2="416" y2="171.0172449531965" stroke="#ef4444" stroke-width="2"/><line x1="406" y1="117.81657924223691" x2="416" y2="117.81657924223691" stroke="#ef4444" stroke-width="2"/><line x1="416" y1="140.37339757941663" x2="426" y2="140.37339757941663" stroke="#ef4444" stroke-width="2"/>
  </g>
</svg>
