<?xml version="1.0" encoding="UTF-8"?>
<svg xmlns="http://www.w3.org/2000/svg" width="640" height="420" viewBox="0 0 640 420" role="img" aria-labelledby="title-parallel_basic">
  <title id="title-parallel_basic">Parallel coordinates chart preview</title>
  <defs>
    <linearGradient id="bg-parallel_basic" x1="0" x2="1" y1="0" y2="1">
      <stop offset="0" stop-color="#f8fafc"/>
      <stop offset="1" stop-color="#eef6f8"/>
    </linearGradient>
    <linearGradient id="accent-parallel_basic" x1="0" x2="1" y1="0" y2="0">
      <stop offset="0" stop-color="#2563eb"/>
      <stop offset="0.52" stop-color="#14b8a6"/>
      <stop offset="1" stop-color="#f59e0b"/>
    </linearGradient>
    <filter id="shadow-parallel_basic" x="-20%" y="-20%" width="140%" height="140%">
      <feDropShadow dx="0" dy="10" stdDeviation="14" flood-color="#0f172a" flood-opacity="0.12"/>
    </filter>
  </defs>
  <rect width="640" height="420" rx="30" fill="url(#bg-parallel_basic)"/>
  <rect x="34" y="28" width="572" height="348" rx="26" fill="#ffffff" filter="url(#shadow-parallel_basic)"/>
  <text x="58" y="68" font-family="Inter, ui-sans-serif, system-ui, sans-serif" font-size="22" font-weight="720" fill="#0f172a">Parallel coordinates</text>
  <text x="58" y="94" font-family="Inter, ui-sans-serif, system-ui, sans-serif" font-size="13" fill="#64748b">Relationships and hierarchy</text>
  <g transform="translate(58 112)">
    <line x1="70" y1="28" x2="70" y2="210" stroke="#94a3b8"/><line x1="160" y1="28" x2="160" y2="210" stroke="#94a3b8"/><line x1="250" y1="28" x2="250" y2="210" stroke="#94a3b8"/><line x1="340" y1="28" x2="340" y2="210" stroke="#94a3b8"/><line x1="430" y1="28" x2="430" y2="210" stroke="#94a3b8"/><polyline points="70,74.12624676525593 160,168.30713355029002 250,108.88299241941422 340,140.36712138494477 430,160.13347111456096" fill="none" stroke="#2563eb" stroke-width="2" opacity=".65"/><polyline points="70,143.4171605114825 160,126.51057134661824 250,186.18092564446852 340,182.66855488345027 430,153.72757098684087" fill="none" stroke="#14b8a6" stroke-width="2" opacity=".65"/><polyline points="70,112.50706723239273 160,103.49519443279132 250,65.92343790270388 340,137.8851941046305 430,80.12720600981265" fill="none" stroke="#f59e0b" stroke-width="2" opacity=".65"/><polyline points="70,114.99367933301255 160,181.50197864323854 250,108.41133256489411 340,150.74777629505843 430,69.74772805860266" fill="none" stroke="#ef4444" stroke-width="2" opacity=".65"/><polyline points="70,64.45694152079523 160,67.99509760038927 250,117.24348387960345 340,137.4148928518407 430,101.93440607562661" fill="none" stroke="#8b5cf6" stroke-width="2" opacity=".65"/><polyline points="70,94.6832283125259 160,78.01710309740156 250,45.94339825725183 340,112.3943480271846 430,129.56014538230374" fill="none" stroke="#22c55e" stroke-width="2" opacity=".65"/><polyline points="70,128.4026750670746 160,90.12621827004477 250,170.87614220380783 340,88.01198915624991 430,133.66050280909985" fill="none" stroke="#0ea5e9" stroke-width="2" opacity=".65"/><polyline points="70,125.84851285954937 160,73.27773734740913 250,53.16839210735634 340,45.28269323799759 430,152.37217386765406" fill="none" stroke="#f97316" stroke-width="2" opacity=".65"/>
  </g>
</svg>
