<?xml version="1.0" encoding="UTF-8"?>
<svg xmlns="http://www.w3.org/2000/svg" width="640" height="420" viewBox="0 0 640 420" role="img" aria-labelledby="title-pictorial_bar">
  <title id="title-pictorial_bar">Pictorial bar chart preview</title>
  <defs>
    <linearGradient id="bg-pictorial_bar" x1="0" x2="1" y1="0" y2="1">
      <stop offset="0" stop-color="#f8fafc"/>
      <stop offset="1" stop-color="#eef6f8"/>
    </linearGradient>
    <linearGradient id="accent-pictorial_bar" x1="0" x2="1" y1="0" y2="0">
      <stop offset="0" stop-color="#2563eb"/>
      <stop offset="0.52" stop-color="#14b8a6"/>
      <stop offset="1" stop-color="#f59e0b"/>
    </linearGradient>
    <filter id="shadow-pictorial_bar" x="-20%" y="-20%" width="140%" height="140%">
      <feDropShadow dx="0" dy="10" stdDeviation="14" flood-color="#0f172a" flood-opacity="0.12"/>
    </filter>
  </defs>
  <rect width="640" height="420" rx="30" fill="url(#bg-pictorial_bar)"/>
  <rect x="34" y="28" width="572" height="348" rx="26" fill="#ffffff" filter="url(#shadow-pictorial_bar)"/>
  <text x="58" y="68" font-family="Inter, ui-sans-serif, system-ui, sans-serif" font-size="22" font-weight="720" fill="#0f172a">Pictorial bar</text>
  <text x="58" y="94" font-family="Inter, ui-sans-serif, system-ui, sans-serif" font-size="13" fill="#64748b">Cartesian</text>
  <g transform="translate(58 112)">
    <g><line x1="48" y1="24" x2="462" y2="24" stroke="#dbe4ef" stroke-width="1"/><line x1="48" y1="72" x2="462" y2="72" stroke="#dbe4ef" stroke-width="1"/><line x1="48" y1="120" x2="462" y2="120" stroke="#dbe4ef" stroke-width="1"/><line x1="48" y1="168" x2="462" y2="168" stroke="#dbe4ef" stroke-width="1"/><line x1="48" y1="216" x2="462" y2="216" stroke="#dbe4ef" stroke-width="1"/><line x1="48" y1="216" x2="462" y2="216" stroke="#94a3b8"/><line x1="48" y1="24" x2="48" y2="216" stroke="#94a3b8"/></g><circle cx="86" cy="204" r="9" fill="#2563eb" opacity=".88"/><circle cx="86" cy="182" r="9" fill="#2563eb" opacity=".88"/><circle cx="86" cy="160" r="9" fill="#2563eb" opacity=".88"/><circle cx="86" cy="138" r="9" fill="#2563eb" opacity=".88"/><circle cx="140" cy="204" r="9" fill="#14b8a6" opacity=".88"/><circle cx="140" cy="182" r="9" fill="#14b8a6" opacity=".88"/><circle cx="140" cy="160" r="9" fill="#14b8a6" opacity=".88"/><circle cx="140" cy="138" r="9" fill="#14b8a6" opacity=".88"/><circle cx="140" cy="116" r="9" fill="#14b8a6" opacity=".88"/><circle cx="140" cy="94" r="9" fill="#14b8a6" opacity=".88"/><circle cx="140" cy="72" r="9" fill="#14b8a6" opacity=".88"/><circle cx="194" cy="204" r="9" fill="#f59e0b" opacity=".88"/><circle cx="194" cy="182" r="9" fill="#f59e0b" opacity=".88"/><circle cx="194" cy="160" r="9" fill="#f59e0b" opacity=".88"/><circle cx="194" cy="138" r="9" fill="#f59e0b" opacity=".88"/><circle cx="194" cy="116" r="9" fill="#f59e0b" opacity=".88"/><circle cx="194" cy="94" r="9" fill="#f59e0b" opacity=".88"/><circle cx="194" cy="72" r="9" fill="#f59e0b" opacity=".88"/><circle cx="248" cy="204" r="9" fill="#ef4444" opacity=".88"/><circle cx="248" cy="182" r="9" fill="#ef4444" opacity=".88"/><circle cx="248" cy="160" r="9" fill="#ef4444" opacity=".88"/><circle cx="248" cy="138" r="9" fill="#ef4444" opacity=".88"/><circle cx="248" cy="116" r="9" fill="#ef4444" opacity=".88"/><circle cx="302" cy="204" r="9" fill="#8b5cf6" opacity=".88"/><circle cx="302" cy="182" r="9" fill="#8b5cf6" opacity=".88"/><circle cx="302" cy="160" r="9" fill="#8b5cf6" opacity=".88"/><circle cx="356" cy="204" r="9" fill="#22c55e" opacity=".88"/><circle cx="356" cy="182" r="9" fill="#22c55e" opacity=".88"/><circle cx="356" cy="160" r="9" fill="#22c55e" opacity=".88"/><circle cx="356" cy="138" r="9" fill="#22c55e" opacity=".88"/><circle cx="356" cy="116" r="9" fill="#22c55e" opacity=".88"/><circle cx="356" cy="94" r="9" fill="#22c55e" opacity=".88"/><circle cx="356" cy="72" r="9" fill="#22c55e" opacity=".88"/><circle cx="410" cy="204" r="9" fill="#0ea5e9" opacity=".88"/><circle cx="410" cy="182" r="9" fill="#0ea5e9" opacity=".88"/><circle cx="410" cy="160" r="9" fill="#0ea5e9" opacity=".88"/><circle cx="410" cy="138" r="9" fill="#0ea5e9" opacity=".88"/><circle cx="410" cy="116" r="9" fill="#0ea5e9" opacity=".88"/><circle cx="410" cy="94" r="9" fill="#0ea5e9" opacity=".88"/><circle cx="410" cy="72" r="9" fill="#0ea5e9" opacity=".88"/>
  </g>
</svg>
