<?xml version="1.0" encoding="UTF-8"?>
<svg xmlns="http://www.w3.org/2000/svg" width="640" height="420" viewBox="0 0 640 420" role="img" aria-labelledby="title-pie_basic">
  <title id="title-pie_basic">Pie chart preview</title>
  <defs>
    <linearGradient id="bg-pie_basic" x1="0" x2="1" y1="0" y2="1">
      <stop offset="0" stop-color="#f8fafc"/>
      <stop offset="1" stop-color="#eef6f8"/>
    </linearGradient>
    <linearGradient id="accent-pie_basic" x1="0" x2="1" y1="0" y2="0">
      <stop offset="0" stop-color="#2563eb"/>
      <stop offset="0.52" stop-color="#14b8a6"/>
      <stop offset="1" stop-color="#f59e0b"/>
    </linearGradient>
    <filter id="shadow-pie_basic" x="-20%" y="-20%" width="140%" height="140%">
      <feDropShadow dx="0" dy="10" stdDeviation="14" flood-color="#0f172a" flood-opacity="0.12"/>
    </filter>
  </defs>
  <rect width="640" height="420" rx="30" fill="url(#bg-pie_basic)"/>
  <rect x="34" y="28" width="572" height="348" rx="26" fill="#ffffff" filter="url(#shadow-pie_basic)"/>
  <text x="58" y="68" font-family="Inter, ui-sans-serif, system-ui, sans-serif" font-size="22" font-weight="720" fill="#0f172a">Pie</text>
  <text x="58" y="94" font-family="Inter, ui-sans-serif, system-ui, sans-serif" font-size="13" fill="#64748b">Radial and polar</text>
  <g transform="translate(58 112)">
    <path d="M 159.93335800641836 66 A 104 104 0 0 1 252.75208328829217 14.036419657774843 L 250 118 A 0 0 0 0 0 250 118 Z" fill="#2563eb" opacity=".9"/><path d="M 256.3786834228454 14.19579778356217 A 104 104 0 0 1 307.30071584777704 204.7907135777343 L 250 118 A 0 0 0 0 0 250 118 Z" fill="#14b8a6" opacity=".9"/><path d="M 304.23685757758227 206.7376091638098 A 104 104 0 0 1 216.67445529488427 216.51602950843753 L 250 118 A 0 0 0 0 0 250 118 Z" fill="#f59e0b" opacity=".9"/><path d="M 213.2565964693193 215.29297146752975 A 104 104 0 0 1 156.0212423233138 162.5420375100499 L 250 118 A 0 0 0 0 0 250 118 Z" fill="#ef4444" opacity=".9"/><path d="M 154.52399695206472 159.23509236064172 A 104 104 0 0 1 158.1734503426716 69.17495747026734 L 250 118 A 0 0 0 0 0 250 118 Z" fill="#8b5cf6" opacity=".9"/>
  </g>
</svg>
