<?xml version="1.0" encoding="UTF-8"?>
<svg xmlns="http://www.w3.org/2000/svg" width="640" height="420" viewBox="0 0 640 420" role="img" aria-labelledby="title-pie_nested">
  <title id="title-pie_nested">Nested donut chart preview</title>
  <defs>
    <linearGradient id="bg-pie_nested" x1="0" x2="1" y1="0" y2="1">
      <stop offset="0" stop-color="#f8fafc"/>
      <stop offset="1" stop-color="#eef6f8"/>
    </linearGradient>
    <linearGradient id="accent-pie_nested" x1="0" x2="1" y1="0" y2="0">
      <stop offset="0" stop-color="#2563eb"/>
      <stop offset="0.52" stop-color="#14b8a6"/>
      <stop offset="1" stop-color="#f59e0b"/>
    </linearGradient>
    <filter id="shadow-pie_nested" x="-20%" y="-20%" width="140%" height="140%">
      <feDropShadow dx="0" dy="10" stdDeviation="14" flood-color="#0f172a" flood-opacity="0.12"/>
    </filter>
  </defs>
  <rect width="640" height="420" rx="30" fill="url(#bg-pie_nested)"/>
  <rect x="34" y="28" width="572" height="348" rx="26" fill="#ffffff" filter="url(#shadow-pie_nested)"/>
  <text x="58" y="68" font-family="Inter, ui-sans-serif, system-ui, sans-serif" font-size="22" font-weight="720" fill="#0f172a">Nested donut</text>
  <text x="58" y="94" font-family="Inter, ui-sans-serif, system-ui, sans-serif" font-size="13" fill="#64748b">Radial and polar</text>
  <g transform="translate(58 112)">
    <path d="M 159.93335800641836 66 A 104 104 0 0 1 257.63679233355714 14.280766475768232 L 253.81839616677857 66.14038323788412 A 52 52 0 0 0 204.96667900320918 92 Z" fill="#2563eb" opacity=".9"/><path d="M 261.25188925437163 14.610469639293953 A 104 104 0 0 1 353.81062959531647 111.72678846012651 L 319.8725391506938 113.77764607893131 A 70 70 0 0 0 257.57338699813477 48.41089302644785 Z" fill="#14b8a6" opacity=".9"/><path d="M 353.96632289008625 115.35354865634639 A 104 104 0 0 1 337.50314357522564 174.20675995334943 L 293.7515717876128 146.10337997667472 A 52 52 0 0 0 301.98316144504315 116.6767743281732 Z" fill="#f59e0b" opacity=".9"/><path d="M 335.4882513907653 177.22633598450372 A 104 104 0 0 1 162.49798832906433 174.20852207218616 L 191.10441522148562 155.83265908704837 A 70 70 0 0 0 307.5401692053228 157.86387998956982 Z" fill="#ef4444" opacity=".9"/><path d="M 160.58964305963832 171.12050519147118 A 104 104 0 0 1 158.1734503426716 69.17495747026734 L 204.0867251713358 93.58747873513367 A 52 52 0 0 0 205.29482152981916 144.5602525957356 Z" fill="#8b5cf6" opacity=".9"/><circle cx="250" cy="118" r="42" fill="#fff"/>
  </g>
</svg>
