<?xml version="1.0" encoding="UTF-8"?>
<svg xmlns="http://www.w3.org/2000/svg" width="640" height="420" viewBox="0 0 640 420" role="img" aria-labelledby="title-pie_rose_radius">
  <title id="title-pie_rose_radius">Rose by radius chart preview</title>
  <defs>
    <linearGradient id="bg-pie_rose_radius" x1="0" x2="1" y1="0" y2="1">
      <stop offset="0" stop-color="#f8fafc"/>
      <stop offset="1" stop-color="#eef6f8"/>
    </linearGradient>
    <linearGradient id="accent-pie_rose_radius" x1="0" x2="1" y1="0" y2="0">
      <stop offset="0" stop-color="#2563eb"/>
      <stop offset="0.52" stop-color="#14b8a6"/>
      <stop offset="1" stop-color="#f59e0b"/>
    </linearGradient>
    <filter id="shadow-pie_rose_radius" x="-20%" y="-20%" width="140%" height="140%">
      <feDropShadow dx="0" dy="10" stdDeviation="14" flood-color="#0f172a" flood-opacity="0.12"/>
    </filter>
  </defs>
  <rect width="640" height="420" rx="30" fill="url(#bg-pie_rose_radius)"/>
  <rect x="34" y="28" width="572" height="348" rx="26" fill="#ffffff" filter="url(#shadow-pie_rose_radius)"/>
  <text x="58" y="68" font-family="Inter, ui-sans-serif, system-ui, sans-serif" font-size="22" font-weight="720" fill="#0f172a">Rose by radius</text>
  <text x="58" y="94" font-family="Inter, ui-sans-serif, system-ui, sans-serif" font-size="13" fill="#64748b">Radial and polar</text>
  <g transform="translate(58 112)">
    <path d="M 150.49094546185717 60.548420575598094 A 114.90315884880383 114.90315884880383 0 0 1 273.58813538774234 5.544071822055628 L 250 118 A 0 0 0 0 0 250 118 Z" fill="#2563eb" opacity=".9"/><path d="M 281.11137083963143 -8.22235382244672 A 130 130 0 0 1 375.401680994043 152.26978850048957 L 250 118 A 0 0 0 0 0 250 118 Z" fill="#14b8a6" opacity=".9"/><path d="M 347.7931469501695 148.43033785009754 A 102.4182847546693 102.4182847546693 0 0 1 280.0662249985627 215.9057054845341 L 250 118 A 0 0 0 0 0 250 118 Z" fill="#f59e0b" opacity=".9"/><path d="M 280.22117471234094 230.22741867817794 A 116.22526792466809 116.22526792466809 0 0 1 150.91154163180883 178.74364429614118 L 250 118 A 0 0 0 0 0 250 118 Z" fill="#ef4444" opacity=".9"/><path d="M 159.61698641240318 169.15564624890632 A 103.85561750968964 103.85561750968964 0 0 1 158.30093251494213 69.24274094363227 L 250 118 A 0 0 0 0 0 250 118 Z" fill="#8b5cf6" opacity=".9"/>
  </g>
</svg>
