<?xml version="1.0" encoding="UTF-8"?>
<svg xmlns="http://www.w3.org/2000/svg" width="640" height="420" viewBox="0 0 640 420" role="img" aria-labelledby="title-pie_rose_area">
  <title id="title-pie_rose_area">Rose by area chart preview</title>
  <defs>
    <linearGradient id="bg-pie_rose_area" x1="0" x2="1" y1="0" y2="1">
      <stop offset="0" stop-color="#f8fafc"/>
      <stop offset="1" stop-color="#eef6f8"/>
    </linearGradient>
    <linearGradient id="accent-pie_rose_area" x1="0" x2="1" y1="0" y2="0">
      <stop offset="0" stop-color="#2563eb"/>
      <stop offset="0.52" stop-color="#14b8a6"/>
      <stop offset="1" stop-color="#f59e0b"/>
    </linearGradient>
    <filter id="shadow-pie_rose_area" x="-20%" y="-20%" width="140%" height="140%">
      <feDropShadow dx="0" dy="10" stdDeviation="14" flood-color="#0f172a" flood-opacity="0.12"/>
    </filter>
  </defs>
  <rect width="640" height="420" rx="30" fill="url(#bg-pie_rose_area)"/>
  <rect x="34" y="28" width="572" height="348" rx="26" fill="#ffffff" filter="url(#shadow-pie_rose_area)"/>
  <text x="58" y="68" font-family="Inter, ui-sans-serif, system-ui, sans-serif" font-size="22" font-weight="720" fill="#0f172a">Rose by area</text>
  <text x="58" y="94" font-family="Inter, ui-sans-serif, system-ui, sans-serif" font-size="13" fill="#64748b">Radial and polar</text>
  <g transform="translate(58 112)">
    <path d="M 157.4878127296621 64.58806377614935 A 106.8238724477013 106.8238724477013 0 0 1 291.4742531667225 19.555975046804576 L 250 118 A 0 0 0 0 0 250 118 Z" fill="#2563eb" opacity=".9"/><path d="M 304.6226459390429 0.03234955879659651 A 130 130 0 0 1 318.95416322387723 228.2058227776323 L 250 118 A 0 0 0 0 0 250 118 Z" fill="#14b8a6" opacity=".9"/><path d="M 295.34570566922184 196.43477448567492 A 90.59937566704517 90.59937566704517 0 0 1 212.26045698000326 200.36488186053683 L 250 118 A 0 0 0 0 0 250 118 Z" fill="#f59e0b" opacity=".9"/><path d="M 205.53616964197525 206.72558419763607 A 99.24344563405187 99.24344563405187 0 0 1 151.35392029386531 107.12744464580962 L 250 118 A 0 0 0 0 0 250 118 Z" fill="#ef4444" opacity=".9"/><path d="M 180.2434187436519 107.83651038128264 A 70.49310001555665 70.49310001555665 0 0 1 187.75828702810068 84.90549417007452 L 250 118 A 0 0 0 0 0 250 118 Z" fill="#8b5cf6" opacity=".9"/>
  </g>
</svg>
