<?xml version="1.0" encoding="UTF-8"?>
<svg xmlns="http://www.w3.org/2000/svg" width="640" height="420" viewBox="0 0 640 420" role="img" aria-labelledby="title-point_cloud">
  <title id="title-point_cloud">Point cloud chart preview</title>
  <defs>
    <linearGradient id="bg-point_cloud" x1="0" x2="1" y1="0" y2="1">
      <stop offset="0" stop-color="#f8fafc"/>
      <stop offset="1" stop-color="#eef6f8"/>
    </linearGradient>
    <linearGradient id="accent-point_cloud" x1="0" x2="1" y1="0" y2="0">
      <stop offset="0" stop-color="#2563eb"/>
      <stop offset="0.52" stop-color="#14b8a6"/>
      <stop offset="1" stop-color="#f59e0b"/>
    </linearGradient>
    <filter id="shadow-point_cloud" x="-20%" y="-20%" width="140%" height="140%">
      <feDropShadow dx="0" dy="10" stdDeviation="14" flood-color="#0f172a" flood-opacity="0.12"/>
    </filter>
  </defs>
  <rect width="640" height="420" rx="30" fill="url(#bg-point_cloud)"/>
  <rect x="34" y="28" width="572" height="348" rx="26" fill="#ffffff" filter="url(#shadow-point_cloud)"/>
  <text x="58" y="68" font-family="Inter, ui-sans-serif, system-ui, sans-serif" font-size="22" font-weight="720" fill="#0f172a">Point cloud</text>
  <text x="58" y="94" font-family="Inter, ui-sans-serif, system-ui, sans-serif" font-size="13" fill="#64748b">3D and GL</text>
  <g transform="translate(58 112)">
    <path d="M 74 206 L 420 206 L 486 162 M 74 206 L 136 62 M 136 62 L 486 62 L 486 162" fill="none" stroke="#94a3b8" stroke-width="2" opacity=".65"/><path d="M 74 158 L 420 158 L 486 114 M 106 110 L 454 110" fill="none" stroke="#dbe4ef" stroke-width="1"/><circle cx="283.6610150001943" cy="133.92964865081012" r="10.434945164248347" fill="#2563eb" opacity="0.7631970754265784"/><circle cx="407.40674640098587" cy="82.15425645047799" r="7.5122489056084305" fill="#14b8a6" opacity="0.6073199416324496"/><circle cx="427.15405474882573" cy="117.8848826745525" r="9.042723532300442" fill="#f59e0b" opacity="0.6889452550560236"/><circle cx="438.2085909708403" cy="89.42589034279808" r="10.656302792718634" fill="#ef4444" opacity="0.7750028156116604"/><circle cx="373.11240805871785" cy="76.81671952828765" r="6.964848977513611" fill="#8b5cf6" opacity="0.578125278800726"/><circle cx="129.05708002718166" cy="184.63343834178522" r="4.207653162302449" fill="#22c55e" opacity="0.4310748353227973"/><circle cx="325.99952291790396" cy="117.89817212428898" r="11.696748959366232" fill="#0ea5e9" opacity="0.8304932778328658"/><circle cx="160.9289069022052" cy="146.38684854609892" r="9.16014711628668" fill="#f97316" opacity="0.6952078462019562"/><circle cx="298.59560499340296" cy="110.25598348118365" r="7.818269472569227" fill="#2563eb" opacity="0.6236410385370255"/><circle cx="130.17856730008498" cy="100.85717716673389" r="9.275568701559678" fill="#14b8a6" opacity="0.7013636640831828"/><circle cx="177.05373564269394" cy="119.09002293366939" r="12.891065412666649" fill="#f59e0b" opacity="0.8941901553422212"/><circle cx="225.3120523816906" cy="93.9709206498228" r="9.489139321958646" fill="#ef4444" opacity="0.7127540971711277"/><circle cx="189.58443841151893" cy="63.8690068051219" r="4.834216649644077" fill="#8b5cf6" opacity="0.4644915546476841"/><circle cx="341.2274913121946" cy="50.36731777014211" r="12.82846114342101" fill="#22c55e" opacity="0.8908512609824537"/><circle cx="203.10634050238878" cy="67.4118697149679" r="7.2169125829823315" fill="#0ea5e9" opacity="0.591568671092391"/><circle cx="417.60706944344565" cy="121.58322130469605" r="6.67097673448734" fill="#f97316" opacity="0.5624520925059915"/><circle cx="443.7025288231671" cy="104.45512831769884" r="11.591618264093995" fill="#2563eb" opacity="0.8248863074183463"/><circle cx="132.935563927982" cy="63.79146702075377" r="4.665994746843353" fill="#14b8a6" opacity="0.45551971983164546"/><circle cx="395.5835283501074" cy="96.6444698954001" r="8.136642984580249" fill="#f59e0b" opacity="0.6406209591776133"/><circle cx="312.95872918656096" cy="118.76437083771452" r="8.82799550308846" fill="#ef4444" opacity="0.6774930934980512"/><circle cx="221.60353366471827" cy="40.39856385067105" r="12.29597754124552" fill="#8b5cf6" opacity="0.8624521355330943"/><circle cx="388.90453027607873" cy="75.68906314717606" r="9.230781921418384" fill="#22c55e" opacity="0.6989750358089805"/><circle cx="185.3316026488319" cy="92.39973477181047" r="9.109149201307446" fill="#0ea5e9" opacity="0.6924879574030638"/><circle cx="312.096862829756" cy="72.15082240058109" r="7.959580269409344" fill="#f97316" opacity="0.6311776143684983"/><circle cx="398.36897444725037" cy="119.1946513671428" r="11.327163703739643" fill="#2563eb" opacity="0.8107820641994476"/><circle cx="246.31991386646405" cy="51.149398198816925" r="12.572921801591292" fill="#14b8a6" opacity="0.8772224960848689"/><circle cx="384.15250193234533" cy="98.16357619035989" r="4.524861445184797" fill="#f59e0b" opacity="0.44799261040985583"/><circle cx="297.06670839106664" cy="107.54651724314317" r="10.850550397997722" fill="#ef4444" opacity="0.7853626878932118"/><circle cx="429.0173920299858" cy="159.56398670375347" r="10.057710311375558" fill="#8b5cf6" opacity="0.7430778832733631"/><circle cx="374.25265233265236" cy="112.98534363182262" r="10.120202883379534" fill="#22c55e" opacity="0.7464108204469084"/><circle cx="317.9350253911689" cy="121.09851885121316" r="6.184690427500755" fill="#0ea5e9" opacity="0.5365168228000402"/><circle cx="411.7190229925327" cy="113.1996181118302" r="4.527397769270465" fill="#f97316" opacity="0.4481278810277581"/><circle cx="260.21858001872897" cy="124.12319993786514" r="9.800996413454413" fill="#2563eb" opacity="0.7293864753842354"/><circle cx="441.5173737988807" cy="44.86652902001515" r="10.300844723591581" fill="#14b8a6" opacity="0.7560450519248842"/><circle cx="242.7255115834996" cy="95.82482823822647" r="11.307290542405099" fill="#f59e0b" opacity="0.8097221622616053"/><circle cx="445.1787107898854" cy="94.87807077309117" r="11.934251134982333" fill="#ef4444" opacity="0.843160060532391"/><circle cx="364.8066462893039" cy="97.08112237975001" r="6.998685513623059" fill="#8b5cf6" opacity="0.5799298940598965"/><circle cx="160.55606387229636" cy="58.23572389082983" r="11.31565370154567" fill="#22c55e" opacity="0.8101681974157691"/><circle cx="201.5817202711478" cy="180.89890417363495" r="6.299018363002688" fill="#0ea5e9" opacity="0.5426143126934766"/><circle cx="217.01071652723476" cy="71.83774366183206" r="8.750442036194727" fill="#f97316" opacity="0.6733569085970521"/><circle cx="196.18565263599157" cy="57.92909418977797" r="12.006797347217798" fill="#2563eb" opacity="0.8470291918516158"/><circle cx="180.31587326014414" cy="111.35217268625274" r="6.606467843288556" fill="#14b8a6" opacity="0.5590116183087229"/><circle cx="452.5536673804745" cy="45.20768999774009" r="11.770961449947208" fill="#f59e0b" opacity="0.8344512773305177"/><circle cx="159.3019347167574" cy="169.27689565485343" r="5.5215472837444395" fill="#ef4444" opacity="0.5011491884663701"/><circle cx="140.22158254496753" cy="44.59416262060404" r="8.089787471108139" fill="#8b5cf6" opacity="0.6381219984591007"/><circle cx="331.5898160119541" cy="117.30563284875825" r="4.817765708314255" fill="#22c55e" opacity="0.46361417111009356"/><circle cx="230.63516308832914" cy="167.99784737359732" r="5.537412472534925" fill="#0ea5e9" opacity="0.5019953318685293"/><circle cx="117.37788444338366" cy="135.37072196928784" r="7.525783001212403" fill="#f97316" opacity="0.6080417600646615"/><circle cx="262.71438709273934" cy="142.0239208843559" r="12.48200966604054" fill="#2563eb" opacity="0.8723738488554954"/><circle cx="212.7891083867289" cy="140.3448660322465" r="7.298314338782802" fill="#14b8a6" opacity="0.5959100980684161"/><circle cx="361.0298030329868" cy="32.758446716703475" r="12.58016364229843" fill="#f59e0b" opacity="0.8776087275892496"/><circle cx="207.37289979448542" cy="93.47972818603739" r="8.047625230392441" fill="#ef4444" opacity="0.6358733456209302"/><circle cx="133.0438589695841" cy="64.6717376448214" r="7.625936151482165" fill="#8b5cf6" opacity="0.6133832614123821"/><circle cx="272.6158983451314" cy="54.36433243798092" r="5.439731271238998" fill="#22c55e" opacity="0.4967856677994132"/><circle cx="279.575162650086" cy="71.67592324968427" r="5.212996459100395" fill="#0ea5e9" opacity="0.4846931444853544"/><circle cx="219.3725859145634" cy="92.62568239821121" r="10.980532099260017" fill="#f97316" opacity="0.7922950452938675"/><circle cx="249.08308462798595" cy="83.85112713463604" r="7.94651061296463" fill="#2563eb" opacity="0.6304805660247803"/><circle cx="332.60513566667214" cy="81.89283827552572" r="8.398835610831156" fill="#14b8a6" opacity="0.6546045659109949"/><circle cx="284.66894463356584" cy="67.88004868198186" r="5.9307417697273195" fill="#f59e0b" opacity="0.522972894385457"/><circle cx="405.3472906849347" cy="143.82889548456296" r="8.930642552440986" fill="#ef4444" opacity="0.6829676027968525"/><circle cx="398.97322455607355" cy="51.428009897470474" r="7.771009041927755" fill="#8b5cf6" opacity="0.6211204822361469"/><circle cx="211.0043326918967" cy="104.42788634868339" r="6.00066316802986" fill="#22c55e" opacity="0.5267020356282591"/><circle cx="173.54082952160388" cy="133.19966851454228" r="4.6772851389832795" fill="#0ea5e9" opacity="0.4561218740791082"/><circle cx="269.5953420284204" cy="126.40057950792834" r="7.2433266441803426" fill="#f97316" opacity="0.5929774210229516"/><circle cx="329.8533716760576" cy="43.819614155218005" r="8.253783388063312" fill="#2563eb" opacity="0.6468684473633766"/><circle cx="391.95996568957344" cy="55.459479766432196" r="7.869020657846704" fill="#14b8a6" opacity="0.6263477684184908"/><circle cx="274.2137794075534" cy="95.64695496950299" r="6.516892533283681" fill="#f59e0b" opacity="0.5542342684417962"/><circle cx="193.91480083903298" cy="48.78403423866257" r="6.624462393810973" fill="#ef4444" opacity="0.5599713276699185"/><circle cx="398.13923786766827" cy="104.7687678001821" r="8.415263024158776" fill="#8b5cf6" opacity="0.6554806946218014"/><circle cx="144.4792668488808" cy="102.0271287788637" r="5.081453961553052" fill="#22c55e" opacity="0.47767754461616274"/>
  </g>
</svg>
