<?xml version="1.0" encoding="UTF-8"?>
<svg xmlns="http://www.w3.org/2000/svg" width="640" height="420" viewBox="0 0 640 420" role="img" aria-labelledby="title-polar_bar">
  <title id="title-polar_bar">Polar bar chart preview</title>
  <defs>
    <linearGradient id="bg-polar_bar" x1="0" x2="1" y1="0" y2="1">
      <stop offset="0" stop-color="#f8fafc"/>
      <stop offset="1" stop-color="#eef6f8"/>
    </linearGradient>
    <linearGradient id="accent-polar_bar" x1="0" x2="1" y1="0" y2="0">
      <stop offset="0" stop-color="#2563eb"/>
      <stop offset="0.52" stop-color="#14b8a6"/>
      <stop offset="1" stop-color="#f59e0b"/>
    </linearGradient>
    <filter id="shadow-polar_bar" x="-20%" y="-20%" width="140%" height="140%">
      <feDropShadow dx="0" dy="10" stdDeviation="14" flood-color="#0f172a" flood-opacity="0.12"/>
    </filter>
  </defs>
  <rect width="640" height="420" rx="30" fill="url(#bg-polar_bar)"/>
  <rect x="34" y="28" width="572" height="348" rx="26" fill="#ffffff" filter="url(#shadow-polar_bar)"/>
  <text x="58" y="68" font-family="Inter, ui-sans-serif, system-ui, sans-serif" font-size="22" font-weight="720" fill="#0f172a">Polar bar</text>
  <text x="58" y="94" font-family="Inter, ui-sans-serif, system-ui, sans-serif" font-size="13" fill="#64748b">Radial and polar</text>
  <g transform="translate(58 112)">
    <circle cx="250" cy="120" r="98" fill="none" stroke="#dbe4ef"/><circle cx="250" cy="120" r="62" fill="none" stroke="#dbe4ef"/><circle cx="250" cy="120" r="28" fill="none" stroke="#dbe4ef"/><path d="M 252.30216742913865 54.07455039950723 A 65.96563408244401 65.96563408244401 0 0 1 282.982817041222 62.8720851078549 L 268 88.82308546376021 A 36 36 0 0 0 251.25638188129003 84.02193022731255 Z" fill="#2563eb" opacity=".85"/><path d="M 315.66126067072474 35.95741884525735 A 106.65156632708386 106.65156632708386 0 0 1 347.431053968576 76.62089993334587 L 282.8876364751336 105.3574808492712 A 36 36 0 0 0 272.1638131117237 91.63161287015801 Z" fill="#14b8a6" opacity=".85"/><path d="M 307.69596079153064 103.45594946610748 A 60.021075462922454 60.021075462922454 0 0 1 308.7094709575203 132.47908328419652 L 285.213313626417 127.48482086943933 A 36 36 0 0 0 284.6054210537795 110.07705519058803 Z" fill="#f59e0b" opacity=".85"/><path d="M 336.6541376735692 151.53952678918475 A 92.21540720527992 92.21540720527992 0 0 1 311.704151338898 188.52940269389458 L 274.0887018289189 146.75321371718618 A 36 36 0 0 0 283.8289343482927 132.31272515972407 Z" fill="#ef4444" opacity=".85"/><path d="M 282.57793814656577 168.29877953072074 A 58.25885476078838 58.25885476078838 0 0 1 256.0897085598786 177.9397066586842 L 253.7630246776355 155.80278823325784 A 36 36 0 0 0 270.13094452494687 149.8453526119815 Z" fill="#8b5cf6" opacity=".85"/><path d="M 247.56397368743941 189.7586664903322 A 69.80118748778477 69.80118748778477 0 0 1 215.0994062561076 180.44960157874212 L 232 151.1769145362398 A 36 36 0 0 0 248.74361811870997 155.97806977268743 Z" fill="#22c55e" opacity=".85"/><path d="M 186.47383803875996 201.30977942763144 A 103.18359115719795 103.18359115719795 0 0 1 155.7370989950906 161.96854748778455 L 217.11236352486637 134.64251915072882 A 36 36 0 0 0 227.8361868882763 148.368387129842 Z" fill="#0ea5e9" opacity=".85"/><path d="M 166.70530796984337 143.8843685978484 A 86.65142112923786 86.65142112923786 0 0 1 165.24212032226137 101.98415652125846 L 214.786686373583 112.51517913056067 A 36 36 0 0 0 215.39457894622052 129.922944809412 Z" fill="#f97316" opacity=".85"/><path d="M 204.579364362283 103.46824060642032 A 48.335630857385695 48.335630857385695 0 0 1 217.65715001565957 84.07962604214836 L 225.91129817108109 93.24678628281382 A 36 36 0 0 0 216.1710656517073 107.68727484027593 Z" fill="#2563eb" opacity=".85"/><path d="M 190.98648498785965 32.50886602826016 A 105.53337613167241 105.53337613167241 0 0 1 238.96875836950903 15.044746744916253 L 246.2369753223645 84.19721176674216 A 36 36 0 0 0 229.8690554750531 90.1546473880185 Z" fill="#14b8a6" opacity=".85"/>
  </g>
</svg>
