<?xml version="1.0" encoding="UTF-8"?>
<svg xmlns="http://www.w3.org/2000/svg" width="640" height="420" viewBox="0 0 640 420" role="img" aria-labelledby="title-radar_basic">
  <title id="title-radar_basic">Radar chart preview</title>
  <defs>
    <linearGradient id="bg-radar_basic" x1="0" x2="1" y1="0" y2="1">
      <stop offset="0" stop-color="#f8fafc"/>
      <stop offset="1" stop-color="#eef6f8"/>
    </linearGradient>
    <linearGradient id="accent-radar_basic" x1="0" x2="1" y1="0" y2="0">
      <stop offset="0" stop-color="#2563eb"/>
      <stop offset="0.52" stop-color="#14b8a6"/>
      <stop offset="1" stop-color="#f59e0b"/>
    </linearGradient>
    <filter id="shadow-radar_basic" x="-20%" y="-20%" width="140%" height="140%">
      <feDropShadow dx="0" dy="10" stdDeviation="14" flood-color="#0f172a" flood-opacity="0.12"/>
    </filter>
  </defs>
  <rect width="640" height="420" rx="30" fill="url(#bg-radar_basic)"/>
  <rect x="34" y="28" width="572" height="348" rx="26" fill="#ffffff" filter="url(#shadow-radar_basic)"/>
  <text x="58" y="68" font-family="Inter, ui-sans-serif, system-ui, sans-serif" font-size="22" font-weight="720" fill="#0f172a">Radar</text>
  <text x="58" y="94" font-family="Inter, ui-sans-serif, system-ui, sans-serif" font-size="13" fill="#64748b">Radial and polar</text>
  <g transform="translate(58 112)">
    <polygon points="250,96.5 270.3515969889343,108.25 270.3515969889343,131.75 250,143.5 229.64840301106568,131.75 229.64840301106568,108.25" fill="none" stroke="#dbe4ef"/><polygon points="250,73 290.70319397786864,96.5 290.70319397786864,143.5 250,167 209.29680602213136,143.5 209.2968060221314,96.5" fill="none" stroke="#dbe4ef"/><polygon points="250,49.5 311.0547909668029,84.75 311.0547909668029,155.25 250,190.5 188.94520903319707,155.25 188.94520903319707,84.75" fill="none" stroke="#dbe4ef"/><polygon points="250,26 331.4063879557373,73 331.4063879557373,167 250,214 168.59361204426276,167 168.59361204426278,73" fill="none" stroke="#dbe4ef"/><line x1="250" y1="120" x2="250" y2="26" stroke="#dbe4ef"/><line x1="250" y1="120" x2="331.4063879557373" y2="73" stroke="#dbe4ef"/><line x1="250" y1="120" x2="331.4063879557373" y2="167" stroke="#dbe4ef"/><line x1="250" y1="120" x2="250" y2="214" stroke="#dbe4ef"/><line x1="250" y1="120" x2="168.59361204426276" y2="167" stroke="#dbe4ef"/><line x1="250" y1="120" x2="168.59361204426278" y2="73" stroke="#dbe4ef"/><polygon points="250,68.57389556451702 308.94226666711836,85.96966647309253 313.5688160343184,156.70147304947952 250,197.43056457538157 190.1792677431977,154.53751587158533 180.0359762231427,79.60625203884206" fill="#2563eb" fill-opacity=".16" stroke="#2563eb" stroke-width="3"/><polygon points="250,43.774712459864105 293.5766138221697,94.84103027939797 303.45417524155806,150.86178246502297 250,185.49037950394674 179.4024736453212,160.75950084499547 200.75500090828297,91.56838651815428" fill="#14b8a6" fill-opacity=".16" stroke="#14b8a6" stroke-width="3"/>
  </g>
</svg>
