<?xml version="1.0" encoding="UTF-8"?>
<svg xmlns="http://www.w3.org/2000/svg" width="640" height="420" viewBox="0 0 640 420" role="img" aria-labelledby="title-radial_bar">
  <title id="title-radial_bar">Radial progress bars chart preview</title>
  <defs>
    <linearGradient id="bg-radial_bar" x1="0" x2="1" y1="0" y2="1">
      <stop offset="0" stop-color="#f8fafc"/>
      <stop offset="1" stop-color="#eef6f8"/>
    </linearGradient>
    <linearGradient id="accent-radial_bar" x1="0" x2="1" y1="0" y2="0">
      <stop offset="0" stop-color="#2563eb"/>
      <stop offset="0.52" stop-color="#14b8a6"/>
      <stop offset="1" stop-color="#f59e0b"/>
    </linearGradient>
    <filter id="shadow-radial_bar" x="-20%" y="-20%" width="140%" height="140%">
      <feDropShadow dx="0" dy="10" stdDeviation="14" flood-color="#0f172a" flood-opacity="0.12"/>
    </filter>
  </defs>
  <rect width="640" height="420" rx="30" fill="url(#bg-radial_bar)"/>
  <rect x="34" y="28" width="572" height="348" rx="26" fill="#ffffff" filter="url(#shadow-radial_bar)"/>
  <text x="58" y="68" font-family="Inter, ui-sans-serif, system-ui, sans-serif" font-size="22" font-weight="720" fill="#0f172a">Radial progress bars</text>
  <text x="58" y="94" font-family="Inter, ui-sans-serif, system-ui, sans-serif" font-size="13" fill="#64748b">Radial and polar</text>
  <g transform="translate(58 112)">
    <circle cx="250" cy="120" r="98" fill="none" stroke="#dbe4ef"/><circle cx="250" cy="120" r="62" fill="none" stroke="#dbe4ef"/><circle cx="250" cy="120" r="28" fill="none" stroke="#dbe4ef"/><path d="M 252.56893681998957 46.43527455497086 A 73.60956640401855 73.60956640401855 0 0 1 286.8047832020093 56.25224553256239 L 268 88.82308546376021 A 36 36 0 0 0 251.25638188129003 84.02193022731255 Z" fill="#2563eb" opacity=".85"/><path d="M 297.46696731526725 59.245052379241315 A 77.0991351865232 77.0991351865232 0 0 1 320.4335647378211 88.64095657018625 L 282.8876364751336 105.3574808492712 A 36 36 0 0 0 272.1638131117237 91.63161287015801 Z" fill="#14b8a6" opacity=".85"/><path d="M 336.10677911355015 95.3092784066366 A 89.5768337356858 89.5768337356858 0 0 1 337.61936499989207 138.62407096008775 L 285.213313626417 127.48482086943933 A 36 36 0 0 0 284.6054210537795 110.07705519058803 Z" fill="#f59e0b" opacity=".85"/><path d="M 303.33167077387907 139.41114070537674 A 56.7543786065653 56.7543786065653 0 0 1 287.97609177053124 162.17672278465392 L 274.0887018289189 146.75321371718618 A 36 36 0 0 0 283.8289343482927 132.31272515972407 Z" fill="#ef4444" opacity=".85"/><path d="M 288.93692581366946 177.72636644522254 A 69.63057930814102 69.63057930814102 0 0 1 257.27837745151646 189.24913570912327 L 253.7630246776355 155.80278823325784 A 36 36 0 0 0 270.13094452494687 149.8453526119815 Z" fill="#8b5cf6" opacity=".85"/><path d="M 248.12926937786938 173.57071591943924 A 53.60336964391172 53.60336964391172 0 0 1 223.19831517804414 166.42187984007518 L 232 151.1769145362398 A 36 36 0 0 0 248.74361811870997 155.97806977268743 Z" fill="#22c55e" opacity=".85"/><path d="M 194.32141185098837 191.26534299365215 A 90.43701836233959 90.43701836233959 0 0 1 167.3816726723442 156.78404925848253 L 217.11236352486637 134.64251915072882 A 36 36 0 0 0 227.8361868882763 148.368387129842 Z" fill="#0ea5e9" opacity=".85"/><path d="M 200.42767713851322 134.21463484187723 A 51.57005950715393 51.57005950715393 0 0 1 199.5568700233778 109.27798173229517 L 214.786686373583 112.51517913056067 A 36 36 0 0 0 215.39457894622052 129.922944809412 Z" fill="#f97316" opacity=".85"/><path d="M 179.63428335287858 94.38897362763802 A 74.88163160020486 74.88163160020486 0 0 1 199.89440844221429 64.35210295300325 L 225.91129817108109 93.24678628281382 A 36 36 0 0 0 216.1710656517073 107.68727484027593 Z" fill="#2563eb" opacity=".85"/><path d="M 222.364788934102 79.0291147170883 A 49.41981719434261 49.41981719434261 0 0 1 244.834222453707 70.8509097351288 L 246.2369753223645 84.19721176674216 A 36 36 0 0 0 229.8690554750531 90.1546473880185 Z" fill="#14b8a6" opacity=".85"/>
  </g>
</svg>
