<?xml version="1.0" encoding="UTF-8"?>
<svg xmlns="http://www.w3.org/2000/svg" width="640" height="420" viewBox="0 0 640 420" role="img" aria-labelledby="title-scatter_basic">
  <title id="title-scatter_basic">Scatter chart preview</title>
  <defs>
    <linearGradient id="bg-scatter_basic" x1="0" x2="1" y1="0" y2="1">
      <stop offset="0" stop-color="#f8fafc"/>
      <stop offset="1" stop-color="#eef6f8"/>
    </linearGradient>
    <linearGradient id="accent-scatter_basic" x1="0" x2="1" y1="0" y2="0">
      <stop offset="0" stop-color="#2563eb"/>
      <stop offset="0.52" stop-color="#14b8a6"/>
      <stop offset="1" stop-color="#f59e0b"/>
    </linearGradient>
    <filter id="shadow-scatter_basic" x="-20%" y="-20%" width="140%" height="140%">
      <feDropShadow dx="0" dy="10" stdDeviation="14" flood-color="#0f172a" flood-opacity="0.12"/>
    </filter>
  </defs>
  <rect width="640" height="420" rx="30" fill="url(#bg-scatter_basic)"/>
  <rect x="34" y="28" width="572" height="348" rx="26" fill="#ffffff" filter="url(#shadow-scatter_basic)"/>
  <text x="58" y="68" font-family="Inter, ui-sans-serif, system-ui, sans-serif" font-size="22" font-weight="720" fill="#0f172a">Scatter</text>
  <text x="58" y="94" font-family="Inter, ui-sans-serif, system-ui, sans-serif" font-size="13" fill="#64748b">Statistical and finance</text>
  <g transform="translate(58 112)">
    <g><line x1="48" y1="24" x2="462" y2="24" stroke="#dbe4ef" stroke-width="1"/><line x1="48" y1="72" x2="462" y2="72" stroke="#dbe4ef" stroke-width="1"/><line x1="48" y1="120" x2="462" y2="120" stroke="#dbe4ef" stroke-width="1"/><line x1="48" y1="168" x2="462" y2="168" stroke="#dbe4ef" stroke-width="1"/><line x1="48" y1="216" x2="462" y2="216" stroke="#dbe4ef" stroke-width="1"/><line x1="48" y1="216" x2="462" y2="216" stroke="#94a3b8"/><line x1="48" y1="24" x2="48" y2="216" stroke="#94a3b8"/></g><circle cx="133.7353118848987" cy="71.11843747459352" r="6" fill="#2563eb" opacity=".78"/><circle cx="82.60980424424633" cy="149.05191419739276" r="6" fill="#14b8a6" opacity=".78"/><circle cx="357.0656189233996" cy="85.5771814994514" r="6" fill="#f59e0b" opacity=".78"/><circle cx="241.15802546171471" cy="169.48631066363305" r="6" fill="#ef4444" opacity=".78"/><circle cx="249.0295169283636" cy="132.78345249779522" r="6" fill="#8b5cf6" opacity=".78"/><circle cx="75.60193715011701" cy="52.461170190013945" r="6" fill="#22c55e" opacity=".78"/><circle cx="190.52645095670596" cy="82.89209809154272" r="6" fill="#0ea5e9" opacity=".78"/><circle cx="137.42773439688608" cy="168.3669322868809" r="6" fill="#f97316" opacity=".78"/><circle cx="397.34009000333026" cy="120.76874318532646" r="6" fill="#2563eb" opacity=".78"/><circle cx="236.79764530947432" cy="167.941959743388" r="6" fill="#14b8a6" opacity=".78"/><circle cx="369.43337094644085" cy="42.367109302431345" r="6" fill="#f59e0b" opacity=".78"/><circle cx="340.28735777316615" cy="100.66450640093535" r="6" fill="#ef4444" opacity=".78"/><circle cx="430.44862061785534" cy="114.59656829573214" r="6" fill="#8b5cf6" opacity=".78"/><circle cx="365.2816493338905" cy="164.99429430160671" r="6" fill="#22c55e" opacity=".78"/><circle cx="152.44400599831715" cy="133.77368043363094" r="6" fill="#0ea5e9" opacity=".78"/><circle cx="83.30947020603344" cy="169.30745021160692" r="6" fill="#f97316" opacity=".78"/><circle cx="137.39756253780797" cy="151.2514668609947" r="6" fill="#2563eb" opacity=".78"/><circle cx="441.0997294052504" cy="137.8685515196994" r="6" fill="#14b8a6" opacity=".78"/><circle cx="213.51005060086027" cy="54.32016643509269" r="6" fill="#f59e0b" opacity=".78"/><circle cx="370.63903400627896" cy="59.68353151064366" r="6" fill="#ef4444" opacity=".78"/><circle cx="324.8378900368698" cy="127.97322693653405" r="6" fill="#8b5cf6" opacity=".78"/><circle cx="240.0126315257512" cy="135.57719401363283" r="6" fill="#22c55e" opacity=".78"/><circle cx="67.28742287540808" cy="180.63228065520525" r="6" fill="#0ea5e9" opacity=".78"/><circle cx="419.30980543000624" cy="74.33908742573112" r="6" fill="#f97316" opacity=".78"/><circle cx="254.50175414653495" cy="70.42485435120761" r="6" fill="#2563eb" opacity=".78"/><circle cx="130.3749737679027" cy="136.28148811031133" r="6" fill="#14b8a6" opacity=".78"/><circle cx="343.671420826111" cy="84.1085635907948" r="6" fill="#f59e0b" opacity=".78"/><circle cx="301.6857409286313" cy="184.05324317049235" r="6" fill="#ef4444" opacity=".78"/><circle cx="315.8001389061101" cy="134.23554145731032" r="6" fill="#8b5cf6" opacity=".78"/><circle cx="350.13915252452716" cy="150.05322259757668" r="6" fill="#22c55e" opacity=".78"/><circle cx="261.4568785899319" cy="97.65085163712502" r="6" fill="#0ea5e9" opacity=".78"/><circle cx="138.0274033988826" cy="155.2871307944879" r="6" fill="#f97316" opacity=".78"/>
  </g>
</svg>
