<?xml version="1.0" encoding="UTF-8"?>
<svg xmlns="http://www.w3.org/2000/svg" width="640" height="420" viewBox="0 0 640 420" role="img" aria-labelledby="title-scatter_effect">
  <title id="title-scatter_effect">Effect scatter chart preview</title>
  <defs>
    <linearGradient id="bg-scatter_effect" x1="0" x2="1" y1="0" y2="1">
      <stop offset="0" stop-color="#f8fafc"/>
      <stop offset="1" stop-color="#eef6f8"/>
    </linearGradient>
    <linearGradient id="accent-scatter_effect" x1="0" x2="1" y1="0" y2="0">
      <stop offset="0" stop-color="#2563eb"/>
      <stop offset="0.52" stop-color="#14b8a6"/>
      <stop offset="1" stop-color="#f59e0b"/>
    </linearGradient>
    <filter id="shadow-scatter_effect" x="-20%" y="-20%" width="140%" height="140%">
      <feDropShadow dx="0" dy="10" stdDeviation="14" flood-color="#0f172a" flood-opacity="0.12"/>
    </filter>
  </defs>
  <rect width="640" height="420" rx="30" fill="url(#bg-scatter_effect)"/>
  <rect x="34" y="28" width="572" height="348" rx="26" fill="#ffffff" filter="url(#shadow-scatter_effect)"/>
  <text x="58" y="68" font-family="Inter, ui-sans-serif, system-ui, sans-serif" font-size="22" font-weight="720" fill="#0f172a">Effect scatter</text>
  <text x="58" y="94" font-family="Inter, ui-sans-serif, system-ui, sans-serif" font-size="13" fill="#64748b">Statistical and finance</text>
  <g transform="translate(58 112)">
    <g><line x1="48" y1="24" x2="462" y2="24" stroke="#dbe4ef" stroke-width="1"/><line x1="48" y1="72" x2="462" y2="72" stroke="#dbe4ef" stroke-width="1"/><line x1="48" y1="120" x2="462" y2="120" stroke="#dbe4ef" stroke-width="1"/><line x1="48" y1="168" x2="462" y2="168" stroke="#dbe4ef" stroke-width="1"/><line x1="48" y1="216" x2="462" y2="216" stroke="#dbe4ef" stroke-width="1"/><line x1="48" y1="216" x2="462" y2="216" stroke="#94a3b8"/><line x1="48" y1="24" x2="48" y2="216" stroke="#94a3b8"/></g><circle cx="82.55848095193505" cy="98.74441357376054" r="6" fill="#2563eb" opacity=".78"/><circle cx="82.55848095193505" cy="98.74441357376054" r="16" fill="none" stroke="#ef4444" stroke-width="2" opacity=".45"/><circle cx="385.2202844293788" cy="196.34146058512852" r="6" fill="#14b8a6" opacity=".78"/><circle cx="308.6960220914334" cy="187.431214901153" r="6" fill="#f59e0b" opacity=".78"/><circle cx="248.36002165731043" cy="128.84734922414646" r="6" fill="#ef4444" opacity=".78"/><circle cx="182.35886054486036" cy="143.29628510819748" r="6" fill="#8b5cf6" opacity=".78"/><circle cx="214.12421758566052" cy="123.20995708880946" r="6" fill="#22c55e" opacity=".78"/><circle cx="279.7284066248685" cy="134.16373184183612" r="6" fill="#0ea5e9" opacity=".78"/><circle cx="152.49689864646643" cy="147.33677729358897" r="6" fill="#f97316" opacity=".78"/><circle cx="390.6456546895206" cy="117.92772347899154" r="6" fill="#2563eb" opacity=".78"/><circle cx="216.45523244608194" cy="107.04587881965563" r="6" fill="#14b8a6" opacity=".78"/><circle cx="216.45523244608194" cy="107.04587881965563" r="16" fill="none" stroke="#ef4444" stroke-width="2" opacity=".45"/><circle cx="259.253395056352" cy="105.2525623687543" r="6" fill="#f59e0b" opacity=".78"/><circle cx="439.8783412417397" cy="150.50328444456682" r="6" fill="#ef4444" opacity=".78"/><circle cx="410.96069154143333" cy="170.61455494957045" r="6" fill="#8b5cf6" opacity=".78"/><circle cx="255.91900604311377" cy="154.42402054695413" r="6" fill="#22c55e" opacity=".78"/><circle cx="345.63587462343276" cy="115.404428741429" r="6" fill="#0ea5e9" opacity=".78"/><circle cx="281.99451133888215" cy="132.50558878621086" r="6" fill="#f97316" opacity=".78"/><circle cx="351.43430023267865" cy="148.30904621304944" r="6" fill="#2563eb" opacity=".78"/><circle cx="322.0528804482892" cy="186.06260965717956" r="6" fill="#14b8a6" opacity=".78"/><circle cx="166.16712416522205" cy="195.69116552406922" r="6" fill="#f59e0b" opacity=".78"/><circle cx="166.16712416522205" cy="195.69116552406922" r="16" fill="none" stroke="#ef4444" stroke-width="2" opacity=".45"/><circle cx="371.27075149770826" cy="78.33138791983947" r="6" fill="#ef4444" opacity=".78"/><circle cx="161.61734212189913" cy="76.18599814223126" r="6" fill="#8b5cf6" opacity=".78"/><circle cx="310.839144022204" cy="133.41314990399405" r="6" fill="#22c55e" opacity=".78"/><circle cx="400.7093453723937" cy="127.23331333557144" r="6" fill="#0ea5e9" opacity=".78"/><circle cx="252.99336619209498" cy="144.3247026889585" r="6" fill="#f97316" opacity=".78"/><circle cx="347.93824204429984" cy="172.76383953960612" r="6" fill="#2563eb" opacity=".78"/><circle cx="118.94331266451627" cy="124.1252651582472" r="6" fill="#14b8a6" opacity=".78"/><circle cx="179.96519403718412" cy="132.75871259951964" r="6" fill="#f59e0b" opacity=".78"/><circle cx="216.86040305998176" cy="137.5882209292613" r="6" fill="#ef4444" opacity=".78"/><circle cx="216.86040305998176" cy="137.5882209292613" r="16" fill="none" stroke="#ef4444" stroke-width="2" opacity=".45"/><circle cx="107.78501956164837" cy="84.90072088735178" r="6" fill="#8b5cf6" opacity=".78"/><circle cx="437.5774110639468" cy="124.38654315797612" r="6" fill="#22c55e" opacity=".78"/><circle cx="394.37231130339205" cy="156.0360972941853" r="6" fill="#0ea5e9" opacity=".78"/><circle cx="414.15743415337056" cy="190.26064121862873" r="6" fill="#f97316" opacity=".78"/>
  </g>
</svg>
