<?xml version="1.0" encoding="UTF-8"?>
<svg xmlns="http://www.w3.org/2000/svg" width="640" height="420" viewBox="0 0 640 420" role="img" aria-labelledby="title-scatter_bubble">
  <title id="title-scatter_bubble">Bubble scatter chart preview</title>
  <defs>
    <linearGradient id="bg-scatter_bubble" x1="0" x2="1" y1="0" y2="1">
      <stop offset="0" stop-color="#f8fafc"/>
      <stop offset="1" stop-color="#eef6f8"/>
    </linearGradient>
    <linearGradient id="accent-scatter_bubble" x1="0" x2="1" y1="0" y2="0">
      <stop offset="0" stop-color="#2563eb"/>
      <stop offset="0.52" stop-color="#14b8a6"/>
      <stop offset="1" stop-color="#f59e0b"/>
    </linearGradient>
    <filter id="shadow-scatter_bubble" x="-20%" y="-20%" width="140%" height="140%">
      <feDropShadow dx="0" dy="10" stdDeviation="14" flood-color="#0f172a" flood-opacity="0.12"/>
    </filter>
  </defs>
  <rect width="640" height="420" rx="30" fill="url(#bg-scatter_bubble)"/>
  <rect x="34" y="28" width="572" height="348" rx="26" fill="#ffffff" filter="url(#shadow-scatter_bubble)"/>
  <text x="58" y="68" font-family="Inter, ui-sans-serif, system-ui, sans-serif" font-size="22" font-weight="720" fill="#0f172a">Bubble scatter</text>
  <text x="58" y="94" font-family="Inter, ui-sans-serif, system-ui, sans-serif" font-size="13" fill="#64748b">Statistical and finance</text>
  <g transform="translate(58 112)">
    <g><line x1="48" y1="24" x2="462" y2="24" stroke="#dbe4ef" stroke-width="1"/><line x1="48" y1="72" x2="462" y2="72" stroke="#dbe4ef" stroke-width="1"/><line x1="48" y1="120" x2="462" y2="120" stroke="#dbe4ef" stroke-width="1"/><line x1="48" y1="168" x2="462" y2="168" stroke="#dbe4ef" stroke-width="1"/><line x1="48" y1="216" x2="462" y2="216" stroke="#dbe4ef" stroke-width="1"/><line x1="48" y1="216" x2="462" y2="216" stroke="#94a3b8"/><line x1="48" y1="24" x2="48" y2="216" stroke="#94a3b8"/></g><circle cx="187.29834513412789" cy="182.42214050330222" r="5.680506210774183" fill="#2563eb" opacity=".78"/><circle cx="143.4840321680531" cy="44.360489746090025" r="19.733503818511963" fill="#14b8a6" opacity=".78"/><circle cx="91.44688309682533" cy="87.93010090943426" r="11.330634508281946" fill="#f59e0b" opacity=".78"/><circle cx="428.265401924029" cy="183.32397263357416" r="18.047760985791683" fill="#ef4444" opacity=".78"/><circle cx="258.1835945160128" cy="67.69915179535747" r="20.791484262794256" fill="#8b5cf6" opacity=".78"/><circle cx="354.3857160927728" cy="182.48146761907265" r="5.829101428389549" fill="#22c55e" opacity=".78"/><circle cx="443.9512865296565" cy="74.88242542091757" r="13.756708104163408" fill="#0ea5e9" opacity=".78"/><circle cx="142.43685517460108" cy="95.00029787467793" r="16.151249416172504" fill="#f97316" opacity=".78"/><circle cx="91.22845324547961" cy="100.23105123452842" r="13.289103101938963" fill="#2563eb" opacity=".78"/><circle cx="426.71795074176043" cy="186.1159204035066" r="19.35021635890007" fill="#14b8a6" opacity=".78"/><circle cx="295.0929926293902" cy="102.03945692908019" r="5.237328294664621" fill="#f59e0b" opacity=".78"/><circle cx="126.09443618915975" cy="182.20248649502173" r="20.91208767145872" fill="#ef4444" opacity=".78"/><circle cx="243.140690239612" cy="126.54364190995693" r="18.2505226098001" fill="#8b5cf6" opacity=".78"/><circle cx="204.92048249486834" cy="166.94566658465192" r="19.07296784222126" fill="#22c55e" opacity=".78"/><circle cx="317.1136944158934" cy="192.35372200328857" r="20.029495049268007" fill="#0ea5e9" opacity=".78"/><circle cx="400.3282857872546" cy="92.35626490833238" r="19.293193079531193" fill="#f97316" opacity=".78"/><circle cx="182.33053565816954" cy="120.58602860756218" r="13.968784015625715" fill="#2563eb" opacity=".78"/><circle cx="85.9005641406402" cy="77.8768212175928" r="11.596045911312103" fill="#14b8a6" opacity=".78"/><circle cx="233.22994605405256" cy="44.897154866717756" r="15.734507653862238" fill="#f59e0b" opacity=".78"/><circle cx="161.62738664634526" cy="125.86269369581714" r="5.964331112802029" fill="#ef4444" opacity=".78"/><circle cx="183.170812739525" cy="195.9875758178532" r="12.588552083820105" fill="#8b5cf6" opacity=".78"/><circle cx="313.7300984309986" cy="53.13903909130022" r="15.566297337412834" fill="#22c55e" opacity=".78"/><circle cx="396.1950525022112" cy="171.7108288416639" r="16.410269398242235" fill="#0ea5e9" opacity=".78"/><circle cx="314.0386209189892" cy="120.02065295772627" r="10.535513825714588" fill="#f97316" opacity=".78"/><circle cx="180.88402276160195" cy="166.0707251187414" r="11.382482301443815" fill="#2563eb" opacity=".78"/><circle cx="378.7587972609326" cy="119.00780476769432" r="5.357436567544937" fill="#14b8a6" opacity=".78"/><circle cx="203.8472872856073" cy="186.48867216985673" r="18.19921726360917" fill="#f59e0b" opacity=".78"/><circle cx="421.2887184750289" cy="161.21299953991547" r="11.61852329224348" fill="#ef4444" opacity=".78"/><circle cx="381.9001331278123" cy="150.15092193335295" r="17.418213065713644" fill="#8b5cf6" opacity=".78"/><circle cx="396.8621064731851" cy="92.306019495707" r="13.951881662011147" fill="#22c55e" opacity=".78"/><circle cx="317.738188394811" cy="187.37641820777208" r="8.221876610070467" fill="#0ea5e9" opacity=".78"/><circle cx="108.83784576877952" cy="91.26264613540843" r="15.466560043394566" fill="#f97316" opacity=".78"/>
  </g>
</svg>
