<?xml version="1.0" encoding="UTF-8"?>
<svg xmlns="http://www.w3.org/2000/svg" width="640" height="420" viewBox="0 0 640 420" role="img" aria-labelledby="title-scatter3d_basic">
  <title id="title-scatter3d_basic">3D scatter chart preview</title>
  <defs>
    <linearGradient id="bg-scatter3d_basic" x1="0" x2="1" y1="0" y2="1">
      <stop offset="0" stop-color="#f8fafc"/>
      <stop offset="1" stop-color="#eef6f8"/>
    </linearGradient>
    <linearGradient id="accent-scatter3d_basic" x1="0" x2="1" y1="0" y2="0">
      <stop offset="0" stop-color="#2563eb"/>
      <stop offset="0.52" stop-color="#14b8a6"/>
      <stop offset="1" stop-color="#f59e0b"/>
    </linearGradient>
    <filter id="shadow-scatter3d_basic" x="-20%" y="-20%" width="140%" height="140%">
      <feDropShadow dx="0" dy="10" stdDeviation="14" flood-color="#0f172a" flood-opacity="0.12"/>
    </filter>
  </defs>
  <rect width="640" height="420" rx="30" fill="url(#bg-scatter3d_basic)"/>
  <rect x="34" y="28" width="572" height="348" rx="26" fill="#ffffff" filter="url(#shadow-scatter3d_basic)"/>
  <text x="58" y="68" font-family="Inter, ui-sans-serif, system-ui, sans-serif" font-size="22" font-weight="720" fill="#0f172a">3D scatter</text>
  <text x="58" y="94" font-family="Inter, ui-sans-serif, system-ui, sans-serif" font-size="13" fill="#64748b">3D and GL</text>
  <g transform="translate(58 112)">
    <path d="M 74 206 L 420 206 L 486 162 M 74 206 L 136 62 M 136 62 L 486 62 L 486 162" fill="none" stroke="#94a3b8" stroke-width="2" opacity=".65"/><path d="M 74 158 L 420 158 L 486 114 M 106 110 L 454 110" fill="none" stroke="#dbe4ef" stroke-width="1"/><circle cx="301.59742101840675" cy="172.9689425751567" r="5.4708325220271945" fill="#2563eb" opacity="0.49844440117478367"/><circle cx="426.8504983712919" cy="131.60894379438832" r="7.241171929286793" fill="#14b8a6" opacity="0.5928625028952956"/><circle cx="389.3480885969475" cy="140.80489439796656" r="8.476993993390352" fill="#f59e0b" opacity="0.6587730129808187"/><circle cx="268.3307826030068" cy="95.67771254805848" r="10.989330029813573" fill="#ef4444" opacity="0.7927642682567239"/><circle cx="442.632103074342" cy="148.63503158651292" r="10.924757802858949" fill="#8b5cf6" opacity="0.7893204161524772"/><circle cx="171.3553353608586" cy="107.41504723811522" r="8.336317761102691" fill="#22c55e" opacity="0.6512702805921435"/><circle cx="135.00996501278132" cy="136.5014037275687" r="4.143251113127917" fill="#0ea5e9" opacity="0.4276400593668222"/><circle cx="402.75377337029204" cy="100.33874718239531" r="4.8622282387223095" fill="#f97316" opacity="0.46598550606518985"/><circle cx="251.51885239221156" cy="121.33720659092069" r="5.821520873345435" fill="#2563eb" opacity="0.5171477799117565"/><circle cx="395.45608805539086" cy="77.48787148343399" r="6.497981080086902" fill="#14b8a6" opacity="0.5532256576046347"/><circle cx="250.51725180540234" cy="124.69964269455522" r="9.928232534322888" fill="#f59e0b" opacity="0.736172401830554"/><circle cx="161.34855297906324" cy="74.49201011611149" r="12.364141908241436" fill="#ef4444" opacity="0.8660875684395433"/><circle cx="247.08821392059326" cy="59.17529773898423" r="7.948705799877644" fill="#8b5cf6" opacity="0.630597642660141"/><circle cx="278.442772152368" cy="118.4860445172526" r="12.275772739434615" fill="#22c55e" opacity="0.8613745461031794"/><circle cx="120.7412234460935" cy="94.21657783258706" r="5.399614562746137" fill="#0ea5e9" opacity="0.4946461100131273"/><circle cx="114.99141413485631" cy="113.76859103655443" r="7.4395583716686815" fill="#f97316" opacity="0.603443113155663"/><circle cx="159.68587695620954" cy="162.61501805484295" r="10.21937348600477" fill="#2563eb" opacity="0.7516999192535877"/><circle cx="200.63144247280434" cy="78.74489873321727" r="9.386055453913286" fill="#14b8a6" opacity="0.7072562908753752"/><circle cx="222.59314006287605" cy="152.561413529329" r="10.105866503436118" fill="#f59e0b" opacity="0.7456462135165929"/><circle cx="405.37979364721105" cy="143.57192612765357" r="4.251199978170916" fill="#ef4444" opacity="0.4333973321691155"/><circle cx="300.63690854236484" cy="85.90873980335891" r="4.995242824777961" fill="#8b5cf6" opacity="0.47307961732149123"/><circle cx="311.972469328437" cy="53.15964964265004" r="11.209685499081388" fill="#22c55e" opacity="0.8045165599510073"/><circle cx="392.844926151447" cy="36.46671995613724" r="9.95851384429261" fill="#0ea5e9" opacity="0.7377874050289392"/><circle cx="243.25090035935864" cy="107.90335959335789" r="12.730988448252901" fill="#f97316" opacity="0.8856527172401547"/>
  </g>
</svg>
