<?xml version="1.0" encoding="UTF-8"?>
<svg xmlns="http://www.w3.org/2000/svg" width="640" height="420" viewBox="0 0 640 420" role="img" aria-labelledby="title-sunburst_basic">
  <title id="title-sunburst_basic">Sunburst chart preview</title>
  <defs>
    <linearGradient id="bg-sunburst_basic" x1="0" x2="1" y1="0" y2="1">
      <stop offset="0" stop-color="#f8fafc"/>
      <stop offset="1" stop-color="#eef6f8"/>
    </linearGradient>
    <linearGradient id="accent-sunburst_basic" x1="0" x2="1" y1="0" y2="0">
      <stop offset="0" stop-color="#2563eb"/>
      <stop offset="0.52" stop-color="#14b8a6"/>
      <stop offset="1" stop-color="#f59e0b"/>
    </linearGradient>
    <filter id="shadow-sunburst_basic" x="-20%" y="-20%" width="140%" height="140%">
      <feDropShadow dx="0" dy="10" stdDeviation="14" flood-color="#0f172a" flood-opacity="0.12"/>
    </filter>
  </defs>
  <rect width="640" height="420" rx="30" fill="url(#bg-sunburst_basic)"/>
  <rect x="34" y="28" width="572" height="348" rx="26" fill="#ffffff" filter="url(#shadow-sunburst_basic)"/>
  <text x="58" y="68" font-family="Inter, ui-sans-serif, system-ui, sans-serif" font-size="22" font-weight="720" fill="#0f172a">Sunburst</text>
  <text x="58" y="94" font-family="Inter, ui-sans-serif, system-ui, sans-serif" font-size="13" fill="#64748b">Relationships and hierarchy</text>
  <g transform="translate(58 112)">
    <path d="M 250 65 A 55 55 0 0 1 286.9243100669302 79.23732925725798 L 267.4551283952761 100.73037383070377 A 26 26 0 0 0 250 94 Z" fill="#2563eb" opacity=".82"/><path d="M 293.00073153574164 85.70806089776966 A 55 55 0 0 1 304.89147006355495 123.45347857411222 L 275.94869493913507 121.63255350776214 A 26 26 0 0 0 270.3276185441688 103.78926515167294 Z" fill="#14b8a6" opacity=".82"/><path d="M 303.6210351700003 132.2386513675973 A 55 55 0 0 1 281.52423352039074 165.06908808653526 L 264.90236493691197 141.30538709545303 A 26 26 0 0 0 275.3481257167274 125.78554428286418 Z" fill="#f59e0b" opacity=".82"/><path d="M 273.8636056514657 169.55328773463305 A 55 55 0 0 1 234.4186061591988 172.7467550279431 L 242.6342501843485 144.93482964957312 A 26 26 0 0 0 261.2809772170565 143.42519056546288 Z" fill="#ef4444" opacity=".82"/><path d="M 226.13639434853428 169.55328773463305 A 55 55 0 0 1 199.0460861626412 140.70503959559156 L 225.91269527688493 129.7878368997342 A 26 26 0 0 0 238.71902278294348 143.42519056546288 Z" fill="#8b5cf6" opacity=".82"/><path d="M 196.3789648299997 132.2386513675973 A 55 55 0 0 1 202.04290255603757 93.07200704192209 L 227.32937211739957 107.27040332890863 A 26 26 0 0 0 224.65187428327258 125.78554428286418 Z" fill="#22c55e" opacity=".82"/><path d="M 206.99926846425836 85.70806089776966 A 55 55 0 0 1 241.1523914712466 65.71630241663773 L 245.81749415004384 94.33861568786511 A 26 26 0 0 0 229.67238145583121 103.78926515167294 Z" fill="#0ea5e9" opacity=".82"/><path d="M 250 31 A 89 89 0 0 1 298.21203071516385 45.18957228888411 L 282.5024926169644 69.56600379025895 A 60 60 0 0 0 250 60 Z" fill="#14b8a6" opacity=".82"/><path d="M 307.208097262102 51.82204456241095 A 89 89 0 0 1 335.0197742288886 93.68198354607983 L 307.3167017273406 102.2575169973572 A 60 60 0 0 0 288.56725658119234 74.03733341286133 Z" fill="#f59e0b" opacity=".82"/><path d="M 337.6478900180865 104.5453121876432 A 89 89 0 0 1 332.04582049137656 154.48888719423715 L 305.31178909531 143.25093518712617 A 60 60 0 0 0 309.0884651807325 109.58110933998418 Z" fill="#ef4444" opacity=".82"/><path d="M 327.07626093681506 164.5 A 89 89 0 0 1 290.6817155082238 199.15805722292546 L 277.4258756235217 173.36498239747783 A 60 60 0 0 0 301.9615242270663 150 Z" fill="#8b5cf6" opacity=".82"/><path d="M 280.4397927559845 203.63264324994583 A 89 89 0 0 1 230.2821837118674 206.78829253319512 L 236.70709014283196 178.50896125833378 A 60 60 0 0 0 270.52120859954016 176.3815572471545 Z" fill="#22c55e" opacity=".82"/><path d="M 219.5602072440155 203.63264324994583 A 89 89 0 0 1 179.1088372958465 173.80932122275135 L 202.2082049185482 156.27594689174248 A 60 60 0 0 0 229.47879140045987 176.3815572471545 Z" fill="#0ea5e9" opacity=".82"/><path d="M 172.92373906318494 164.5 A 89 89 0 0 1 161.10625377661236 115.65237048819043 L 190.07163175951396 117.06901381226321 A 60 60 0 0 0 198.03847577293368 150 Z" fill="#f97316" opacity=".82"/><path d="M 162.3521099819135 104.54531218764319 A 89 89 0 0 1 184.69804205924402 59.52972392072503 L 205.97620812982743 79.233521744309 A 60 60 0 0 0 190.9115348192675 109.58110933998417 Z" fill="#2563eb" opacity=".82"/><path d="M 192.791902737898 51.822044562410966 A 89 89 0 0 1 238.84534221277696 31.70179158301147 L 242.48000598614178 60.473117921131326 A 60 60 0 0 0 211.43274341880763 74.03733341286133 Z" fill="#14b8a6" opacity=".82"/><path d="M 250 -3 A 123 123 0 0 1 305.5276049872896 10.247163661363459 L 292.43573064069284 36.1238486517737 A 94 94 0 0 0 250 26 Z" fill="#f59e0b" opacity=".82"/><path d="M 316.4988205470385 16.525815461764722 A 123 123 0 0 1 356.04965702140254 57.6905284435593 L 331.04607934968976 72.3813794609315 A 94 94 0 0 0 300.82023684082617 40.922167913868975 Z" fill="#ef4444" opacity=".82"/><path d="M 361.8847354286057 68.90395340076796 A 123 123 0 0 1 372.90169226229034 124.91671018723709 L 343.92487050939263 123.75748583414867 A 94 94 0 0 0 335.50540756332475 80.95098877782267 Z" fill="#8b5cf6" opacity=".82"/><path d="M 371.7480373513547 137.5047251076141 A 123 123 0 0 1 350.73330859176224 190.5818711862812 L 326.9831789237858 173.94061700414989 A 94 94 0 0 0 343.0432155368077 133.3775947976888 Z" fill="#22c55e" opacity=".82"/><path d="M 342.9571976455738 200.54787027527004 A 123 123 0 0 1 296.5828111908968 233.83778679135176 L 285.59987196702684 206.99798340152086 A 94 94 0 0 0 321.0404599893003 181.55690899085678 Z" fill="#0ea5e9" opacity=".82"/><path d="M 284.65310449149587 238.01763575458318 A 123 123 0 0 1 227.64260037533742 240.95100942953366 L 232.91385719741234 212.43410476728587 A 94 94 0 0 0 276.4828603430944 210.19233951976275 Z" fill="#f97316" opacity=".82"/><path d="M 215.34689550850413 238.01763575458318 A 123 123 0 0 1 165.80070597077128 209.6631411728336 L 185.65257204270324 188.52305097761268 A 94 94 0 0 0 223.5171396569056 210.19233951976275 Z" fill="#2563eb" opacity=".82"/><path d="M 157.04280235442624 200.5478702752701 A 123 123 0 0 1 130.69149249670255 149.90785912324077 L 158.8211406072361 142.8564126632897 A 94 94 0 0 0 178.95954001069973 181.5569089908568 Z" fill="#14b8a6" opacity=".82"/><path d="M 128.25196264864528 137.50472510761406 A 123 123 0 0 1 133.46188716129979 80.65704312085353 L 160.93835278993643 89.93302482406692 A 94 94 0 0 0 156.95678446319232 133.3775947976888 Z" fill="#f59e0b" opacity=".82"/><path d="M 138.11526457139425 68.90395340076796 A 123 123 0 0 1 173.23230923322666 23.897337943545693 L 191.3320086823033 46.55568916010809 A 94 94 0 0 0 164.49459243667528 80.95098877782267 Z" fill="#ef4444" opacity=".82"/><path d="M 183.50117945296142 16.525815461764765 A 123 123 0 0 1 237.37593070902085 -2.3504510598001787 L 240.3523372898208 26.496403255112057 A 94 94 0 0 0 199.17976315917377 40.922167913869 Z" fill="#8b5cf6" opacity=".82"/>
  </g>
</svg>
