<?xml version="1.0" encoding="UTF-8"?>
<svg xmlns="http://www.w3.org/2000/svg" width="640" height="420" viewBox="0 0 640 420" role="img" aria-labelledby="title-surface3d_basic">
  <title id="title-surface3d_basic">3D surface chart preview</title>
  <defs>
    <linearGradient id="bg-surface3d_basic" x1="0" x2="1" y1="0" y2="1">
      <stop offset="0" stop-color="#f8fafc"/>
      <stop offset="1" stop-color="#eef6f8"/>
    </linearGradient>
    <linearGradient id="accent-surface3d_basic" x1="0" x2="1" y1="0" y2="0">
      <stop offset="0" stop-color="#2563eb"/>
      <stop offset="0.52" stop-color="#14b8a6"/>
      <stop offset="1" stop-color="#f59e0b"/>
    </linearGradient>
    <filter id="shadow-surface3d_basic" x="-20%" y="-20%" width="140%" height="140%">
      <feDropShadow dx="0" dy="10" stdDeviation="14" flood-color="#0f172a" flood-opacity="0.12"/>
    </filter>
  </defs>
  <rect width="640" height="420" rx="30" fill="url(#bg-surface3d_basic)"/>
  <rect x="34" y="28" width="572" height="348" rx="26" fill="#ffffff" filter="url(#shadow-surface3d_basic)"/>
  <text x="58" y="68" font-family="Inter, ui-sans-serif, system-ui, sans-serif" font-size="22" font-weight="720" fill="#0f172a">3D surface</text>
  <text x="58" y="94" font-family="Inter, ui-sans-serif, system-ui, sans-serif" font-size="13" fill="#64748b">3D and GL</text>
  <g transform="translate(58 112)">
    <polygon points="80,55.08863864140585 118,63.08863864140585 136,83.08863864140585 98,75.08863864140585" fill="#2563eb" opacity=".58" stroke="#fff"/><polygon points="118,51.98536256235093 156,59.98536256235093 174,79.98536256235093 136,71.98536256235093" fill="#14b8a6" opacity=".58" stroke="#fff"/><polygon points="156,49.36987366853282 194,57.36987366853282 212,77.36987366853282 174,69.36987366853282" fill="#f59e0b" opacity=".58" stroke="#fff"/><polygon points="194,54.71889107860625 232,62.71889107860625 250,82.71889107860625 212,74.71889107860625" fill="#ef4444" opacity=".58" stroke="#fff"/><polygon points="232,53.92339355358854 270,61.92339355358854 288,81.92339355358854 250,73.92339355358854" fill="#8b5cf6" opacity=".58" stroke="#fff"/><polygon points="270,44.40556345228106 308,52.40556345228106 326,72.40556345228106 288,64.40556345228106" fill="#22c55e" opacity=".58" stroke="#fff"/><polygon points="308,42.25618461659178 346,50.25618461659178 364,70.25618461659178 326,62.25618461659178" fill="#0ea5e9" opacity=".58" stroke="#fff"/><polygon points="346,45.44970892369747 384,53.44970892369747 402,73.44970892369747 364,65.44970892369747" fill="#f97316" opacity=".58" stroke="#fff"/><polygon points="384,40.49699402274564 422,48.49699402274564 440,68.49699402274564 402,60.49699402274564" fill="#2563eb" opacity=".58" stroke="#fff"/><polygon points="98,70.72648717369884 136,78.72648717369884 154,98.72648717369884 116,90.72648717369884" fill="#14b8a6" opacity=".58" stroke="#fff"/><polygon points="136,73.81357755465433 174,81.81357755465433 192,101.81357755465433 154,93.81357755465433" fill="#f59e0b" opacity=".58" stroke="#fff"/><polygon points="174,62.92993748746812 212,70.92993748746812 230,90.92993748746812 192,82.92993748746812" fill="#ef4444" opacity=".58" stroke="#fff"/><polygon points="212,71.94710436696187 250,79.94710436696187 268,99.94710436696187 230,91.94710436696187" fill="#8b5cf6" opacity=".58" stroke="#fff"/><polygon points="250,71.6471936898306 288,79.6471936898306 306,99.6471936898306 268,91.6471936898306" fill="#22c55e" opacity=".58" stroke="#fff"/><polygon points="288,74.8273417702876 326,82.8273417702876 344,102.8273417702876 306,94.8273417702876" fill="#0ea5e9" opacity=".58" stroke="#fff"/><polygon points="326,70.810964461416 364,78.810964461416 382,98.810964461416 344,90.810964461416" fill="#f97316" opacity=".58" stroke="#fff"/><polygon points="364,72.37091496633366 402,80.37091496633366 420,100.37091496633366 382,92.37091496633366" fill="#2563eb" opacity=".58" stroke="#fff"/><polygon points="402,76.985113020055 440,84.985113020055 458,104.985113020055 420,96.985113020055" fill="#14b8a6" opacity=".58" stroke="#fff"/><polygon points="116,89.00048353103921 154,97.00048353103921 172,117.00048353103921 134,109.00048353103921" fill="#f59e0b" opacity=".58" stroke="#fff"/><polygon points="154,97.60027952678502 192,105.60027952678502 210,125.60027952678502 172,117.60027952678502" fill="#ef4444" opacity=".58" stroke="#fff"/><polygon points="192,83.03009831765667 230,91.03009831765667 248,111.03009831765667 210,103.03009831765667" fill="#8b5cf6" opacity=".58" stroke="#fff"/><polygon points="230,96.15297395084053 268,104.15297395084053 286,124.15297395084053 248,116.15297395084053" fill="#22c55e" opacity=".58" stroke="#fff"/><polygon points="268,90.71629932662472 306,98.71629932662472 324,118.71629932662472 286,110.71629932662472" fill="#0ea5e9" opacity=".58" stroke="#fff"/><polygon points="306,91.88742650300264 344,99.88742650300264 362,119.88742650300264 324,111.88742650300264" fill="#f97316" opacity=".58" stroke="#fff"/><polygon points="344,80.35068696411327 382,88.35068696411327 400,108.35068696411327 362,100.35068696411327" fill="#2563eb" opacity=".58" stroke="#fff"/><polygon points="382,80.96971712168306 420,88.96971712168306 438,108.96971712168306 400,100.96971712168306" fill="#14b8a6" opacity=".58" stroke="#fff"/><polygon points="420,80.14274598611519 458,88.14274598611519 476,108.14274598611519 438,100.14274598611519" fill="#f59e0b" opacity=".58" stroke="#fff"/><polygon points="134,100.01331487111747 172,108.01331487111747 190,128.01331487111747 152,120.01331487111747" fill="#ef4444" opacity=".58" stroke="#fff"/><polygon points="172,100.68662329996005 210,108.68662329996005 228,128.68662329996005 190,120.68662329996005" fill="#8b5cf6" opacity=".58" stroke="#fff"/><polygon points="210,105.39914248604327 248,113.39914248604327 266,133.39914248604327 228,125.39914248604327" fill="#22c55e" opacity=".58" stroke="#fff"/><polygon points="248,117.39735767012462 286,125.39735767012462 304,145.39735767012462 266,137.39735767012462" fill="#0ea5e9" opacity=".58" stroke="#fff"/><polygon points="286,104.52664067223668 324,112.52664067223668 342,132.52664067223668 304,124.52664067223668" fill="#f97316" opacity=".58" stroke="#fff"/><polygon points="324,110.31573125021532 362,118.31573125021532 380,138.31573125021532 342,130.31573125021532" fill="#2563eb" opacity=".58" stroke="#fff"/><polygon points="362,112.31004114728421 400,120.31004114728421 418,140.3100411472842 380,132.3100411472842" fill="#14b8a6" opacity=".58" stroke="#fff"/><polygon points="400,112.9914597379975 438,120.9914597379975 456,140.9914597379975 418,132.9914597379975" fill="#f59e0b" opacity=".58" stroke="#fff"/><polygon points="438,117.27116678096354 476,125.27116678096354 494,145.27116678096354 456,137.27116678096354" fill="#ef4444" opacity=".58" stroke="#fff"/><polygon points="152,136.63685982534662 190,144.63685982534662 208,164.63685982534662 170,156.63685982534662" fill="#8b5cf6" opacity=".58" stroke="#fff"/><polygon points="190,124.85156156960875 228,132.85156156960875 246,152.85156156960875 208,144.85156156960875" fill="#22c55e" opacity=".58" stroke="#fff"/><polygon points="228,123.27242948999628 266,131.27242948999628 284,151.27242948999628 246,143.27242948999628" fill="#0ea5e9" opacity=".58" stroke="#fff"/><polygon points="266,122.44761255383492 304,130.44761255383492 322,150.44761255383492 284,142.44761255383492" fill="#f97316" opacity=".58" stroke="#fff"/><polygon points="304,126.03694855095819 342,134.0369485509582 360,154.0369485509582 322,146.0369485509582" fill="#2563eb" opacity=".58" stroke="#fff"/><polygon points="342,123.53756016399711 380,131.5375601639971 398,151.5375601639971 360,143.5375601639971" fill="#14b8a6" opacity=".58" stroke="#fff"/><polygon points="380,133.0827537844889 418,141.0827537844889 436,161.0827537844889 398,153.0827537844889" fill="#f59e0b" opacity=".58" stroke="#fff"/><polygon points="418,124.49390285275877 456,132.49390285275877 474,152.49390285275877 436,144.49390285275877" fill="#ef4444" opacity=".58" stroke="#fff"/><polygon points="456,123.39676477247849 494,131.3967647724785 512,151.3967647724785 474,143.3967647724785" fill="#8b5cf6" opacity=".58" stroke="#fff"/><polygon points="170,155.63368624914438 208,163.63368624914438 226,183.63368624914438 188,175.63368624914438" fill="#22c55e" opacity=".58" stroke="#fff"/><polygon points="208,143.3546335301362 246,151.3546335301362 264,171.3546335301362 226,163.3546335301362" fill="#0ea5e9" opacity=".58" stroke="#fff"/><polygon points="246,155.12752644345164 284,163.12752644345164 302,183.12752644345164 264,175.12752644345164" fill="#f97316" opacity=".58" stroke="#fff"/><polygon points="284,153.70406283484772 322,161.70406283484772 340,181.70406283484772 302,173.70406283484772" fill="#2563eb" opacity=".58" stroke="#fff"/><polygon points="322,156.94095138739794 360,164.94095138739794 378,184.94095138739794 340,176.94095138739794" fill="#14b8a6" opacity=".58" stroke="#fff"/><polygon points="360,152.85888505307958 398,160.85888505307958 416,180.85888505307958 378,172.85888505307958" fill="#f59e0b" opacity=".58" stroke="#fff"/><polygon points="398,145.3937537688762 436,153.3937537688762 454,173.3937537688762 416,165.3937537688762" fill="#ef4444" opacity=".58" stroke="#fff"/><polygon points="436,151.74291513720527 474,159.74291513720527 492,179.74291513720527 454,171.74291513720527" fill="#8b5cf6" opacity=".58" stroke="#fff"/><polygon points="474,149.56953309569508 512,157.56953309569508 530,177.56953309569508 492,169.56953309569508" fill="#22c55e" opacity=".58" stroke="#fff"/><polygon points="188,160.82688833912835 226,168.82688833912835 244,188.82688833912835 206,180.82688833912835" fill="#0ea5e9" opacity=".58" stroke="#fff"/><polygon points="226,162.06346409767866 264,170.06346409767866 282,190.06346409767866 244,182.06346409767866" fill="#f97316" opacity=".58" stroke="#fff"/><polygon points="264,173.32796506257728 302,181.32796506257728 320,201.32796506257728 282,193.32796506257728" fill="#2563eb" opacity=".58" stroke="#fff"/><polygon points="302,174.79656293150038 340,182.79656293150038 358,202.79656293150038 320,194.79656293150038" fill="#14b8a6" opacity=".58" stroke="#fff"/><polygon points="340,166.6643321509473 378,174.6643321509473 396,194.6643321509473 358,186.6643321509473" fill="#f59e0b" opacity=".58" stroke="#fff"/><polygon points="378,171.22433204762638 416,179.22433204762638 434,199.22433204762638 396,191.22433204762638" fill="#ef4444" opacity=".58" stroke="#fff"/><polygon points="416,165.05235178256407 454,173.05235178256407 472,193.05235178256407 434,185.05235178256407" fill="#8b5cf6" opacity=".58" stroke="#fff"/><polygon points="454,177.60164895374328 492,185.60164895374328 510,205.60164895374328 472,197.60164895374328" fill="#22c55e" opacity=".58" stroke="#fff"/><polygon points="492,174.4755060202442 530,182.4755060202442 548,202.4755060202442 510,194.4755060202442" fill="#0ea5e9" opacity=".58" stroke="#fff"/>
  </g>
</svg>
