<?xml version="1.0" encoding="UTF-8"?>
<svg xmlns="http://www.w3.org/2000/svg" width="640" height="420" viewBox="0 0 640 420" role="img" aria-labelledby="title-terrain_surface">
  <title id="title-terrain_surface">Terrain surface chart preview</title>
  <defs>
    <linearGradient id="bg-terrain_surface" x1="0" x2="1" y1="0" y2="1">
      <stop offset="0" stop-color="#f8fafc"/>
      <stop offset="1" stop-color="#eef6f8"/>
    </linearGradient>
    <linearGradient id="accent-terrain_surface" x1="0" x2="1" y1="0" y2="0">
      <stop offset="0" stop-color="#2563eb"/>
      <stop offset="0.52" stop-color="#14b8a6"/>
      <stop offset="1" stop-color="#f59e0b"/>
    </linearGradient>
    <filter id="shadow-terrain_surface" x="-20%" y="-20%" width="140%" height="140%">
      <feDropShadow dx="0" dy="10" stdDeviation="14" flood-color="#0f172a" flood-opacity="0.12"/>
    </filter>
  </defs>
  <rect width="640" height="420" rx="30" fill="url(#bg-terrain_surface)"/>
  <rect x="34" y="28" width="572" height="348" rx="26" fill="#ffffff" filter="url(#shadow-terrain_surface)"/>
  <text x="58" y="68" font-family="Inter, ui-sans-serif, system-ui, sans-serif" font-size="22" font-weight="720" fill="#0f172a">Terrain surface</text>
  <text x="58" y="94" font-family="Inter, ui-sans-serif, system-ui, sans-serif" font-size="13" fill="#64748b">3D and GL</text>
  <g transform="translate(58 112)">
    <polygon points="80,44.83810653211549 118,52.83810653211549 136,72.83810653211549 98,64.83810653211549" fill="#2563eb" opacity=".58" stroke="#fff"/><polygon points="118,57.02614602353424 156,65.02614602353424 174,85.02614602353424 136,77.02614602353424" fill="#14b8a6" opacity=".58" stroke="#fff"/><polygon points="156,57.460599816869944 194,65.46059981686994 212,85.46059981686994 174,77.46059981686994" fill="#f59e0b" opacity=".58" stroke="#fff"/><polygon points="194,48.6609519328922 232,56.6609519328922 250,76.6609519328922 212,68.6609519328922" fill="#ef4444" opacity=".58" stroke="#fff"/><polygon points="232,44.766873883549124 270,52.766873883549124 288,72.76687388354912 250,64.76687388354912" fill="#8b5cf6" opacity=".58" stroke="#fff"/><polygon points="270,54.50179109442979 308,62.50179109442979 326,82.50179109442979 288,74.50179109442979" fill="#22c55e" opacity=".58" stroke="#fff"/><polygon points="308,53.57223223662004 346,61.57223223662004 364,81.57223223662004 326,73.57223223662004" fill="#0ea5e9" opacity=".58" stroke="#fff"/><polygon points="346,41.61443645879626 384,49.61443645879626 402,69.61443645879626 364,61.61443645879626" fill="#f97316" opacity=".58" stroke="#fff"/><polygon points="384,49.59735433803871 422,57.59735433803871 440,77.59735433803871 402,69.59735433803871" fill="#2563eb" opacity=".58" stroke="#fff"/><polygon points="98,73.98030037712306 136,81.98030037712306 154,101.98030037712306 116,93.98030037712306" fill="#14b8a6" opacity=".58" stroke="#fff"/><polygon points="136,71.23600724665448 174,79.23600724665448 192,99.23600724665448 154,91.23600724665448" fill="#f59e0b" opacity=".58" stroke="#fff"/><polygon points="174,76.71301403827965 212,84.71301403827965 230,104.71301403827965 192,96.71301403827965" fill="#ef4444" opacity=".58" stroke="#fff"/><polygon points="212,69.44284392753616 250,77.44284392753616 268,97.44284392753616 230,89.44284392753616" fill="#8b5cf6" opacity=".58" stroke="#fff"/><polygon points="250,71.5392586151138 288,79.5392586151138 306,99.5392586151138 268,91.5392586151138" fill="#22c55e" opacity=".58" stroke="#fff"/><polygon points="288,72.1970987780951 326,80.1970987780951 344,100.1970987780951 306,92.1970987780951" fill="#0ea5e9" opacity=".58" stroke="#fff"/><polygon points="326,69.59438522905111 364,77.59438522905111 382,97.59438522905111 344,89.59438522905111" fill="#f97316" opacity=".58" stroke="#fff"/><polygon points="364,63.82416279288009 402,71.82416279288009 420,91.82416279288009 382,83.82416279288009" fill="#2563eb" opacity=".58" stroke="#fff"/><polygon points="402,76.3235952174291 440,84.3235952174291 458,104.3235952174291 420,96.3235952174291" fill="#14b8a6" opacity=".58" stroke="#fff"/><polygon points="116,90.08006766391918 154,98.08006766391918 172,118.08006766391918 134,110.08006766391918" fill="#f59e0b" opacity=".58" stroke="#fff"/><polygon points="154,80.37906156294048 192,88.37906156294048 210,108.37906156294048 172,100.37906156294048" fill="#ef4444" opacity=".58" stroke="#fff"/><polygon points="192,97.19882998848334 230,105.19882998848334 248,125.19882998848334 210,117.19882998848334" fill="#8b5cf6" opacity=".58" stroke="#fff"/><polygon points="230,92.23735671956092 268,100.23735671956092 286,120.23735671956092 248,112.23735671956092" fill="#22c55e" opacity=".58" stroke="#fff"/><polygon points="268,85.944403631147 306,93.944403631147 324,113.944403631147 286,105.944403631147" fill="#0ea5e9" opacity=".58" stroke="#fff"/><polygon points="306,84.20491144433618 344,92.20491144433618 362,112.20491144433618 324,104.20491144433618" fill="#f97316" opacity=".58" stroke="#fff"/><polygon points="344,81.97266016202047 382,89.97266016202047 400,109.97266016202047 362,101.97266016202047" fill="#2563eb" opacity=".58" stroke="#fff"/><polygon points="382,93.90696361940354 420,101.90696361940354 438,121.90696361940354 400,113.90696361940354" fill="#14b8a6" opacity=".58" stroke="#fff"/><polygon points="420,96.36936416802928 458,104.36936416802928 476,124.36936416802928 438,116.36936416802928" fill="#f59e0b" opacity=".58" stroke="#fff"/><polygon points="134,117.64256542362273 172,125.64256542362273 190,145.64256542362273 152,137.64256542362273" fill="#ef4444" opacity=".58" stroke="#fff"/><polygon points="172,108.96253210911527 210,116.96253210911527 228,136.96253210911527 190,128.96253210911527" fill="#8b5cf6" opacity=".58" stroke="#fff"/><polygon points="210,108.50970158819109 248,116.50970158819109 266,136.5097015881911 228,128.5097015881911" fill="#22c55e" opacity=".58" stroke="#fff"/><polygon points="248,110.78686026623473 286,118.78686026623473 304,138.78686026623473 266,130.78686026623473" fill="#0ea5e9" opacity=".58" stroke="#fff"/><polygon points="286,112.33543084561825 324,120.33543084561825 342,140.33543084561825 304,132.33543084561825" fill="#f97316" opacity=".58" stroke="#fff"/><polygon points="324,110.77907920302823 362,118.77907920302823 380,138.77907920302823 342,130.77907920302823" fill="#2563eb" opacity=".58" stroke="#fff"/><polygon points="362,102.56119705643505 400,110.56119705643505 418,130.56119705643505 380,122.56119705643505" fill="#14b8a6" opacity=".58" stroke="#fff"/><polygon points="400,116.28113903803751 438,124.28113903803751 456,144.2811390380375 418,136.2811390380375" fill="#f59e0b" opacity=".58" stroke="#fff"/><polygon points="438,108.70806587301195 476,116.70806587301195 494,136.70806587301195 456,128.70806587301195" fill="#ef4444" opacity=".58" stroke="#fff"/><polygon points="152,121.09805169934407 190,129.09805169934407 208,149.09805169934407 170,141.09805169934407" fill="#8b5cf6" opacity=".58" stroke="#fff"/><polygon points="190,130.25562717486173 228,138.25562717486173 246,158.25562717486173 208,150.25562717486173" fill="#22c55e" opacity=".58" stroke="#fff"/><polygon points="228,131.57401320850477 266,139.57401320850477 284,159.57401320850477 246,151.57401320850477" fill="#0ea5e9" opacity=".58" stroke="#fff"/><polygon points="266,130.08666288480163 304,138.08666288480163 322,158.08666288480163 284,150.08666288480163" fill="#f97316" opacity=".58" stroke="#fff"/><polygon points="304,136.28910091565922 342,144.28910091565922 360,164.28910091565922 322,156.28910091565922" fill="#2563eb" opacity=".58" stroke="#fff"/><polygon points="342,133.4524141503498 380,141.4524141503498 398,161.4524141503498 360,153.4524141503498" fill="#14b8a6" opacity=".58" stroke="#fff"/><polygon points="380,121.4143874826841 418,129.4143874826841 436,149.4143874826841 398,141.4143874826841" fill="#f59e0b" opacity=".58" stroke="#fff"/><polygon points="418,125.07539124973118 456,133.07539124973118 474,153.07539124973118 436,145.07539124973118" fill="#ef4444" opacity=".58" stroke="#fff"/><polygon points="456,129.37073528626934 494,137.37073528626934 512,157.37073528626934 474,149.37073528626934" fill="#8b5cf6" opacity=".58" stroke="#fff"/><polygon points="170,148.90315395686775 208,156.90315395686775 226,176.90315395686775 188,168.90315395686775" fill="#22c55e" opacity=".58" stroke="#fff"/><polygon points="208,150.0908317877911 246,158.0908317877911 264,178.0908317877911 226,170.0908317877911" fill="#0ea5e9" opacity=".58" stroke="#fff"/><polygon points="246,147.5323494747281 284,155.5323494747281 302,175.5323494747281 264,167.5323494747281" fill="#f97316" opacity=".58" stroke="#fff"/><polygon points="284,145.7601982918568 322,153.7601982918568 340,173.7601982918568 302,165.7601982918568" fill="#2563eb" opacity=".58" stroke="#fff"/><polygon points="322,141.81252942141145 360,149.81252942141145 378,169.81252942141145 340,161.81252942141145" fill="#14b8a6" opacity=".58" stroke="#fff"/><polygon points="360,156.2859513903968 398,164.2859513903968 416,184.2859513903968 378,176.2859513903968" fill="#f59e0b" opacity=".58" stroke="#fff"/><polygon points="398,148.98887672834098 436,156.98887672834098 454,176.98887672834098 416,168.98887672834098" fill="#ef4444" opacity=".58" stroke="#fff"/><polygon points="436,151.7870182641782 474,159.7870182641782 492,179.7870182641782 454,171.7870182641782" fill="#8b5cf6" opacity=".58" stroke="#fff"/><polygon points="474,156.3269576849416 512,164.3269576849416 530,184.3269576849416 492,176.3269576849416" fill="#22c55e" opacity=".58" stroke="#fff"/><polygon points="188,168.99130388861522 226,176.99130388861522 244,196.99130388861522 206,188.99130388861522" fill="#0ea5e9" opacity=".58" stroke="#fff"/><polygon points="226,161.855973739177 264,169.855973739177 282,189.855973739177 244,181.855973739177" fill="#f97316" opacity=".58" stroke="#fff"/><polygon points="264,166.43898006575182 302,174.43898006575182 320,194.43898006575182 282,186.43898006575182" fill="#2563eb" opacity=".58" stroke="#fff"/><polygon points="302,169.0447220383212 340,177.0447220383212 358,197.0447220383212 320,189.0447220383212" fill="#14b8a6" opacity=".58" stroke="#fff"/><polygon points="340,175.70161307929084 378,183.70161307929084 396,203.70161307929084 358,195.70161307929084" fill="#f59e0b" opacity=".58" stroke="#fff"/><polygon points="378,171.2615830693394 416,179.2615830693394 434,199.2615830693394 396,191.2615830693394" fill="#ef4444" opacity=".58" stroke="#fff"/><polygon points="416,160.30926864454523 454,168.30926864454523 472,188.30926864454523 434,180.30926864454523" fill="#8b5cf6" opacity=".58" stroke="#fff"/><polygon points="454,177.14133813325316 492,185.14133813325316 510,205.14133813325316 472,197.14133813325316" fill="#22c55e" opacity=".58" stroke="#fff"/><polygon points="492,163.6070297001861 530,171.6070297001861 548,191.6070297001861 510,183.6070297001861" fill="#0ea5e9" opacity=".58" stroke="#fff"/>
  </g>
</svg>
