<?xml version="1.0" encoding="UTF-8"?>
<svg xmlns="http://www.w3.org/2000/svg" width="640" height="420" viewBox="0 0 640 420" role="img" aria-labelledby="title-theme_river">
  <title id="title-theme_river">Stream river chart preview</title>
  <defs>
    <linearGradient id="bg-theme_river" x1="0" x2="1" y1="0" y2="1">
      <stop offset="0" stop-color="#f8fafc"/>
      <stop offset="1" stop-color="#eef6f8"/>
    </linearGradient>
    <linearGradient id="accent-theme_river" x1="0" x2="1" y1="0" y2="0">
      <stop offset="0" stop-color="#2563eb"/>
      <stop offset="0.52" stop-color="#14b8a6"/>
      <stop offset="1" stop-color="#f59e0b"/>
    </linearGradient>
    <filter id="shadow-theme_river" x="-20%" y="-20%" width="140%" height="140%">
      <feDropShadow dx="0" dy="10" stdDeviation="14" flood-color="#0f172a" flood-opacity="0.12"/>
    </filter>
  </defs>
  <rect width="640" height="420" rx="30" fill="url(#bg-theme_river)"/>
  <rect x="34" y="28" width="572" height="348" rx="26" fill="#ffffff" filter="url(#shadow-theme_river)"/>
  <text x="58" y="68" font-family="Inter, ui-sans-serif, system-ui, sans-serif" font-size="22" font-weight="720" fill="#0f172a">Stream river</text>
  <text x="58" y="94" font-family="Inter, ui-sans-serif, system-ui, sans-serif" font-size="13" fill="#64748b">Relationships and hierarchy</text>
  <g transform="translate(58 112)">
    <path d="M 52 150 C 130 80 188 170 264 104 C 330 50 380 128 450 78 L 450 188 C 372 216 318 166 262 206 C 176 254 116 192 52 222 Z" fill="url(#accent-theme_river)" opacity=".55"/><path d="M 52 104 C 128 64 194 132 268 78 C 340 28 392 80 450 48 L 450 96 C 380 126 328 82 268 124 C 188 180 130 104 52 152 Z" fill="#8b5cf6" opacity=".32"/>
  </g>
</svg>
