<?xml version="1.0" encoding="UTF-8"?>
<svg xmlns="http://www.w3.org/2000/svg" width="640" height="420" viewBox="0 0 640 420" role="img" aria-labelledby="title-timeline_events">
  <title id="title-timeline_events">Timeline events chart preview</title>
  <defs>
    <linearGradient id="bg-timeline_events" x1="0" x2="1" y1="0" y2="1">
      <stop offset="0" stop-color="#f8fafc"/>
      <stop offset="1" stop-color="#eef6f8"/>
    </linearGradient>
    <linearGradient id="accent-timeline_events" x1="0" x2="1" y1="0" y2="0">
      <stop offset="0" stop-color="#2563eb"/>
      <stop offset="0.52" stop-color="#14b8a6"/>
      <stop offset="1" stop-color="#f59e0b"/>
    </linearGradient>
    <filter id="shadow-timeline_events" x="-20%" y="-20%" width="140%" height="140%">
      <feDropShadow dx="0" dy="10" stdDeviation="14" flood-color="#0f172a" flood-opacity="0.12"/>
    </filter>
  </defs>
  <rect width="640" height="420" rx="30" fill="url(#bg-timeline_events)"/>
  <rect x="34" y="28" width="572" height="348" rx="26" fill="#ffffff" filter="url(#shadow-timeline_events)"/>
  <text x="58" y="68" font-family="Inter, ui-sans-serif, system-ui, sans-serif" font-size="22" font-weight="720" fill="#0f172a">Timeline events</text>
  <text x="58" y="94" font-family="Inter, ui-sans-serif, system-ui, sans-serif" font-size="13" fill="#64748b">Geographic and calendar</text>
  <g transform="translate(58 112)">
    <line x1="60" y1="118" x2="454" y2="118" stroke="#94a3b8" stroke-width="3"/><circle cx="74" cy="118" r="9" fill="#2563eb"/><line x1="74" y1="118" x2="74" y2="98.23027496226132" stroke="#2563eb" opacity=".5"/><circle cx="126" cy="118" r="9" fill="#14b8a6"/><line x1="126" y1="118" x2="126" y2="176.75971476361156" stroke="#14b8a6" opacity=".5"/><circle cx="178" cy="118" r="9" fill="#f59e0b"/><line x1="178" y1="118" x2="178" y2="72.54505726508796" stroke="#f59e0b" opacity=".5"/><circle cx="230" cy="118" r="9" fill="#ef4444"/><line x1="230" y1="118" x2="230" y2="89.77232728153467" stroke="#ef4444" opacity=".5"/><circle cx="282" cy="118" r="9" fill="#8b5cf6"/><line x1="282" y1="118" x2="282" y2="111.39645324088633" stroke="#8b5cf6" opacity=".5"/><circle cx="334" cy="118" r="9" fill="#22c55e"/><line x1="334" y1="118" x2="334" y2="129.65894306078553" stroke="#22c55e" opacity=".5"/><circle cx="386" cy="118" r="9" fill="#0ea5e9"/><line x1="386" y1="118" x2="386" y2="100.52641077898443" stroke="#0ea5e9" opacity=".5"/><circle cx="438" cy="118" r="9" fill="#f97316"/><line x1="438" y1="118" x2="438" y2="152.23004579544067" stroke="#f97316" opacity=".5"/>
  </g>
</svg>
