<?xml version="1.0" encoding="UTF-8"?>
<svg xmlns="http://www.w3.org/2000/svg" width="640" height="420" viewBox="0 0 640 420" role="img" aria-labelledby="title-tooltip_axis">
  <title id="title-tooltip_axis">Axis tooltip chart preview</title>
  <defs>
    <linearGradient id="bg-tooltip_axis" x1="0" x2="1" y1="0" y2="1">
      <stop offset="0" stop-color="#f8fafc"/>
      <stop offset="1" stop-color="#eef6f8"/>
    </linearGradient>
    <linearGradient id="accent-tooltip_axis" x1="0" x2="1" y1="0" y2="0">
      <stop offset="0" stop-color="#2563eb"/>
      <stop offset="0.52" stop-color="#14b8a6"/>
      <stop offset="1" stop-color="#f59e0b"/>
    </linearGradient>
    <filter id="shadow-tooltip_axis" x="-20%" y="-20%" width="140%" height="140%">
      <feDropShadow dx="0" dy="10" stdDeviation="14" flood-color="#0f172a" flood-opacity="0.12"/>
    </filter>
  </defs>
  <rect width="640" height="420" rx="30" fill="url(#bg-tooltip_axis)"/>
  <rect x="34" y="28" width="572" height="348" rx="26" fill="#ffffff" filter="url(#shadow-tooltip_axis)"/>
  <text x="58" y="68" font-family="Inter, ui-sans-serif, system-ui, sans-serif" font-size="22" font-weight="720" fill="#0f172a">Axis tooltip</text>
  <text x="58" y="94" font-family="Inter, ui-sans-serif, system-ui, sans-serif" font-size="13" fill="#64748b">Data pipeline and interaction</text>
  <g transform="translate(58 112)">
    <g><line x1="48" y1="24" x2="462" y2="24" stroke="#dbe4ef" stroke-width="1"/><line x1="48" y1="72" x2="462" y2="72" stroke="#dbe4ef" stroke-width="1"/><line x1="48" y1="120" x2="462" y2="120" stroke="#dbe4ef" stroke-width="1"/><line x1="48" y1="168" x2="462" y2="168" stroke="#dbe4ef" stroke-width="1"/><line x1="48" y1="216" x2="462" y2="216" stroke="#dbe4ef" stroke-width="1"/><line x1="48" y1="216" x2="462" y2="216" stroke="#94a3b8"/><line x1="48" y1="24" x2="48" y2="216" stroke="#94a3b8"/></g><path d="M 48 62.20626433007419 L 99.75 150.4621734842658 L 151.5 133.64705427922308 L 203.25 115.35228054597974 L 255 103.10395366512239 L 306.75 152.80259458720684 L 358.5 151.08342720754445 L 410.25 130.00079466030002 L 462 177.06009262613952" fill="none" stroke="#2563eb" stroke-width="4" stroke-linecap="round" stroke-linejoin="round"/><circle cx="48" cy="62.20626433007419" r="4" fill="#fff" stroke="#2563eb" stroke-width="3"/><circle cx="99.75" cy="150.4621734842658" r="4" fill="#fff" stroke="#2563eb" stroke-width="3"/><circle cx="151.5" cy="133.64705427922308" r="4" fill="#fff" stroke="#2563eb" stroke-width="3"/><circle cx="203.25" cy="115.35228054597974" r="4" fill="#fff" stroke="#2563eb" stroke-width="3"/><circle cx="255" cy="103.10395366512239" r="4" fill="#fff" stroke="#2563eb" stroke-width="3"/><circle cx="306.75" cy="152.80259458720684" r="4" fill="#fff" stroke="#2563eb" stroke-width="3"/><circle cx="358.5" cy="151.08342720754445" r="4" fill="#fff" stroke="#2563eb" stroke-width="3"/><circle cx="410.25" cy="130.00079466030002" r="4" fill="#fff" stroke="#2563eb" stroke-width="3"/><circle cx="462" cy="177.06009262613952" r="4" fill="#fff" stroke="#2563eb" stroke-width="3"/><line x1="282" y1="22" x2="282" y2="222" stroke="#0f172a" stroke-dasharray="4 4"/><rect x="296" y="54" width="106" height="52" rx="10" fill="#0f172a" opacity=".9"/><text x="310" y="78" font-size="12" fill="#fff">Fri 24</text><text x="310" y="96" font-size="12" fill="#a7f3d0">Value 82</text>
  </g>
</svg>
