<?xml version="1.0" encoding="UTF-8"?>
<svg xmlns="http://www.w3.org/2000/svg" width="640" height="420" viewBox="0 0 640 420" role="img" aria-labelledby="title-treemap_basic">
  <title id="title-treemap_basic">Treemap chart preview</title>
  <defs>
    <linearGradient id="bg-treemap_basic" x1="0" x2="1" y1="0" y2="1">
      <stop offset="0" stop-color="#f8fafc"/>
      <stop offset="1" stop-color="#eef6f8"/>
    </linearGradient>
    <linearGradient id="accent-treemap_basic" x1="0" x2="1" y1="0" y2="0">
      <stop offset="0" stop-color="#2563eb"/>
      <stop offset="0.52" stop-color="#14b8a6"/>
      <stop offset="1" stop-color="#f59e0b"/>
    </linearGradient>
    <filter id="shadow-treemap_basic" x="-20%" y="-20%" width="140%" height="140%">
      <feDropShadow dx="0" dy="10" stdDeviation="14" flood-color="#0f172a" flood-opacity="0.12"/>
    </filter>
  </defs>
  <rect width="640" height="420" rx="30" fill="url(#bg-treemap_basic)"/>
  <rect x="34" y="28" width="572" height="348" rx="26" fill="#ffffff" filter="url(#shadow-treemap_basic)"/>
  <text x="58" y="68" font-family="Inter, ui-sans-serif, system-ui, sans-serif" font-size="22" font-weight="720" fill="#0f172a">Treemap</text>
  <text x="58" y="94" font-family="Inter, ui-sans-serif, system-ui, sans-serif" font-size="13" fill="#64748b">Relationships and hierarchy</text>
  <g transform="translate(58 112)">
    <rect x="52" y="24" width="190" height="120" rx="12" fill="#2563eb" opacity=".86"/><text x="64" y="48" font-size="13" fill="#fff" font-weight="700">228</text><rect x="52" y="150" width="190" height="66" rx="12" fill="#14b8a6" opacity=".86"/><text x="64" y="174" font-size="13" fill="#fff" font-weight="700">125</text><rect x="250" y="24" width="112" height="86" rx="12" fill="#f59e0b" opacity=".86"/><text x="262" y="48" font-size="13" fill="#fff" font-weight="700">96</text><rect x="368" y="24" width="80" height="86" rx="12" fill="#ef4444" opacity=".86"/><text x="380" y="48" font-size="13" fill="#fff" font-weight="700">69</text><rect x="250" y="118" width="198" height="98" rx="12" fill="#8b5cf6" opacity=".86"/><text x="262" y="142" font-size="13" fill="#fff" font-weight="700">194</text>
  </g>
</svg>
