<?xml version="1.0" encoding="UTF-8"?>
<svg xmlns="http://www.w3.org/2000/svg" width="640" height="420" viewBox="0 0 640 420" role="img" aria-labelledby="title-tree_radial">
  <title id="title-tree_radial">Radial tree chart preview</title>
  <defs>
    <linearGradient id="bg-tree_radial" x1="0" x2="1" y1="0" y2="1">
      <stop offset="0" stop-color="#f8fafc"/>
      <stop offset="1" stop-color="#eef6f8"/>
    </linearGradient>
    <linearGradient id="accent-tree_radial" x1="0" x2="1" y1="0" y2="0">
      <stop offset="0" stop-color="#2563eb"/>
      <stop offset="0.52" stop-color="#14b8a6"/>
      <stop offset="1" stop-color="#f59e0b"/>
    </linearGradient>
    <filter id="shadow-tree_radial" x="-20%" y="-20%" width="140%" height="140%">
      <feDropShadow dx="0" dy="10" stdDeviation="14" flood-color="#0f172a" flood-opacity="0.12"/>
    </filter>
  </defs>
  <rect width="640" height="420" rx="30" fill="url(#bg-tree_radial)"/>
  <rect x="34" y="28" width="572" height="348" rx="26" fill="#ffffff" filter="url(#shadow-tree_radial)"/>
  <text x="58" y="68" font-family="Inter, ui-sans-serif, system-ui, sans-serif" font-size="22" font-weight="720" fill="#0f172a">Radial tree</text>
  <text x="58" y="94" font-family="Inter, ui-sans-serif, system-ui, sans-serif" font-size="13" fill="#64748b">Relationships and hierarchy</text>
  <g transform="translate(58 112)">
    <line x1="250" y1="34" x2="334.6934667590499" y2="105.06625672064399" stroke="#94a3b8" opacity=".55"/><line x1="250" y1="34" x2="175.52181527453826" y2="163" stroke="#94a3b8" opacity=".55"/><line x1="305.2797344330424" y1="54.120177891767895" x2="220.5862676739925" y2="200.81356538758814" stroke="#94a3b8" opacity=".55"/><line x1="334.6934667590499" y1="105.06625672064399" x2="279.4137323260075" y2="200.8135653875881" stroke="#94a3b8" opacity=".55"/><line x1="334.6934667590499" y1="105.06625672064399" x2="194.7202655669576" y2="54.120177891767895" stroke="#94a3b8" opacity=".55"/><line x1="324.47818472546174" y1="163" x2="165.3065332409501" y2="105.06625672064398" stroke="#94a3b8" opacity=".55"/><line x1="279.4137323260075" y1="200.8135653875881" x2="175.52181527453826" y2="163" stroke="#94a3b8" opacity=".55"/><line x1="175.52181527453826" y1="163" x2="194.7202655669576" y2="54.120177891767895" stroke="#94a3b8" opacity=".55"/><circle cx="250" cy="34" r="9" fill="#2563eb"/><circle cx="305.2797344330424" cy="54.120177891767895" r="13" fill="#14b8a6"/><circle cx="334.6934667590499" cy="105.06625672064399" r="17" fill="#f59e0b"/><circle cx="324.47818472546174" cy="163" r="9" fill="#ef4444"/><circle cx="279.4137323260075" cy="200.8135653875881" r="13" fill="#8b5cf6"/><circle cx="220.5862676739925" cy="200.81356538758814" r="17" fill="#22c55e"/><circle cx="175.52181527453826" cy="163" r="9" fill="#0ea5e9"/><circle cx="165.3065332409501" cy="105.06625672064398" r="13" fill="#f97316"/><circle cx="194.7202655669576" cy="54.120177891767895" r="17" fill="#2563eb"/>
  </g>
</svg>
