<?xml version="1.0" encoding="UTF-8"?>
<svg xmlns="http://www.w3.org/2000/svg" width="640" height="420" viewBox="0 0 640 420" role="img" aria-labelledby="title-vector_field">
  <title id="title-vector_field">Vector field chart preview</title>
  <defs>
    <linearGradient id="bg-vector_field" x1="0" x2="1" y1="0" y2="1">
      <stop offset="0" stop-color="#f8fafc"/>
      <stop offset="1" stop-color="#eef6f8"/>
    </linearGradient>
    <linearGradient id="accent-vector_field" x1="0" x2="1" y1="0" y2="0">
      <stop offset="0" stop-color="#2563eb"/>
      <stop offset="0.52" stop-color="#14b8a6"/>
      <stop offset="1" stop-color="#f59e0b"/>
    </linearGradient>
    <filter id="shadow-vector_field" x="-20%" y="-20%" width="140%" height="140%">
      <feDropShadow dx="0" dy="10" stdDeviation="14" flood-color="#0f172a" flood-opacity="0.12"/>
    </filter>
  </defs>
  <rect width="640" height="420" rx="30" fill="url(#bg-vector_field)"/>
  <rect x="34" y="28" width="572" height="348" rx="26" fill="#ffffff" filter="url(#shadow-vector_field)"/>
  <text x="58" y="68" font-family="Inter, ui-sans-serif, system-ui, sans-serif" font-size="22" font-weight="720" fill="#0f172a">Vector field</text>
  <text x="58" y="94" font-family="Inter, ui-sans-serif, system-ui, sans-serif" font-size="13" fill="#64748b">3D and GL</text>
  <g transform="translate(58 112)">
    <line x1="70" y1="44" x2="50.55215994334578" y2="61.84492837126615" stroke="#2563eb" stroke-width="3" stroke-linecap="round"/><line x1="114" y1="44" x2="119.483909393614" y2="27.806592736041534" stroke="#14b8a6" stroke-width="3" stroke-linecap="round"/><line x1="158" y1="44" x2="174.11104664426125" y2="24.045313384234056" stroke="#f59e0b" stroke-width="3" stroke-linecap="round"/><line x1="202" y1="44" x2="216.37907696189743" y2="54.96495858683747" stroke="#ef4444" stroke-width="3" stroke-linecap="round"/><line x1="246" y1="44" x2="239.0147676359455" y2="25.65759951780427" stroke="#8b5cf6" stroke-width="3" stroke-linecap="round"/><line x1="290" y1="44" x2="274.97724211362265" y2="30.370210456667614" stroke="#22c55e" stroke-width="3" stroke-linecap="round"/><line x1="334" y1="44" x2="337.91142084584754" y2="62.74701349093322" stroke="#0ea5e9" stroke-width="3" stroke-linecap="round"/><line x1="378" y1="44" x2="396.24275267988344" y2="27.4880334074045" stroke="#f97316" stroke-width="3" stroke-linecap="round"/><line x1="422" y1="44" x2="441.0101143495222" y2="64.30496873032136" stroke="#2563eb" stroke-width="3" stroke-linecap="round"/><line x1="70" y1="74" x2="61.064600654295866" y2="58.15307921061657" stroke="#14b8a6" stroke-width="3" stroke-linecap="round"/><line x1="114" y1="74" x2="131.05110167234994" y2="94.23237488147953" stroke="#f59e0b" stroke-width="3" stroke-linecap="round"/><line x1="158" y1="74" x2="138.9025065796643" y2="54.0621225216948" stroke="#ef4444" stroke-width="3" stroke-linecap="round"/><line x1="202" y1="74" x2="213.06530852584373" y2="98.96094836247212" stroke="#8b5cf6" stroke-width="3" stroke-linecap="round"/><line x1="246" y1="74" x2="255.6175760697792" y2="92.52383304958462" stroke="#22c55e" stroke-width="3" stroke-linecap="round"/><line x1="290" y1="74" x2="299.3876542039321" y2="53.007006064249126" stroke="#0ea5e9" stroke-width="3" stroke-linecap="round"/><line x1="334" y1="74" x2="334.1060896598975" y2="98.3143931503532" stroke="#f97316" stroke-width="3" stroke-linecap="round"/><line x1="378" y1="74" x2="356.24740413969346" y2="65.70187691934697" stroke="#2563eb" stroke-width="3" stroke-linecap="round"/><line x1="422" y1="74" x2="447.49122637761207" y2="70.424398895903" stroke="#14b8a6" stroke-width="3" stroke-linecap="round"/><line x1="70" y1="104" x2="60.39410894850893" y2="127.63294675606335" stroke="#f59e0b" stroke-width="3" stroke-linecap="round"/><line x1="114" y1="104" x2="98.2801977881842" y2="120.57600140405299" stroke="#ef4444" stroke-width="3" stroke-linecap="round"/><line x1="158" y1="104" x2="167.74346432675927" y2="122.27764541433368" stroke="#8b5cf6" stroke-width="3" stroke-linecap="round"/><line x1="202" y1="104" x2="183.97554728548397" y2="96.92430331584528" stroke="#22c55e" stroke-width="3" stroke-linecap="round"/><line x1="246" y1="104" x2="255.532230529815" y2="130.80051516996113" stroke="#0ea5e9" stroke-width="3" stroke-linecap="round"/><line x1="290" y1="104" x2="289.9630676197795" y2="130.93136482448756" stroke="#f97316" stroke-width="3" stroke-linecap="round"/><line x1="334" y1="104" x2="350.6987472684224" y2="100.11959854947801" stroke="#2563eb" stroke-width="3" stroke-linecap="round"/><line x1="378" y1="104" x2="364.4096377857258" y2="121.42954915729356" stroke="#14b8a6" stroke-width="3" stroke-linecap="round"/><line x1="422" y1="104" x2="440.03737620792015" y2="106.31334379042103" stroke="#f59e0b" stroke-width="3" stroke-linecap="round"/><line x1="70" y1="134" x2="91.49639250407225" y2="134.761621986841" stroke="#ef4444" stroke-width="3" stroke-linecap="round"/><line x1="114" y1="134" x2="96.63923640549598" y2="132.99108009437074" stroke="#8b5cf6" stroke-width="3" stroke-linecap="round"/><line x1="158" y1="134" x2="140.9837230475775" y2="147.37278965872392" stroke="#22c55e" stroke-width="3" stroke-linecap="round"/><line x1="202" y1="134" x2="182.362384403323" y2="121.68923422242177" stroke="#0ea5e9" stroke-width="3" stroke-linecap="round"/><line x1="246" y1="134" x2="262.1393423482627" y2="158.31258799092558" stroke="#f97316" stroke-width="3" stroke-linecap="round"/><line x1="290" y1="134" x2="263.0069255077869" y2="141.78238880540604" stroke="#2563eb" stroke-width="3" stroke-linecap="round"/><line x1="334" y1="134" x2="334.82298990002164" y2="153.38166874731354" stroke="#14b8a6" stroke-width="3" stroke-linecap="round"/><line x1="378" y1="134" x2="395.17361130370193" y2="139.14458936880507" stroke="#f59e0b" stroke-width="3" stroke-linecap="round"/><line x1="422" y1="134" x2="394.6980859044366" y2="137.73183419897384" stroke="#ef4444" stroke-width="3" stroke-linecap="round"/><line x1="70" y1="164" x2="71.45037107862377" y2="145.90629128744166" stroke="#8b5cf6" stroke-width="3" stroke-linecap="round"/><line x1="114" y1="164" x2="111.23604468059453" y2="185.6154975937108" stroke="#22c55e" stroke-width="3" stroke-linecap="round"/><line x1="158" y1="164" x2="160.8679075667057" y2="147.37451365233062" stroke="#0ea5e9" stroke-width="3" stroke-linecap="round"/><line x1="202" y1="164" x2="212.73041771049284" y2="182.5866527808599" stroke="#f97316" stroke-width="3" stroke-linecap="round"/><line x1="246" y1="164" x2="248.2354132037045" y2="137.0561373211078" stroke="#2563eb" stroke-width="3" stroke-linecap="round"/><line x1="290" y1="164" x2="294.1873952940485" y2="181.9124291490246" stroke="#14b8a6" stroke-width="3" stroke-linecap="round"/><line x1="334" y1="164" x2="350.0368966432094" y2="179.2329606290767" stroke="#f59e0b" stroke-width="3" stroke-linecap="round"/><line x1="378" y1="164" x2="370.5854295215186" y2="180.44706726496617" stroke="#ef4444" stroke-width="3" stroke-linecap="round"/><line x1="422" y1="164" x2="450.5063834219771" y2="169.14667829585653" stroke="#8b5cf6" stroke-width="3" stroke-linecap="round"/><line x1="70" y1="194" x2="85.46710591432674" y2="200.98517001410175" stroke="#22c55e" stroke-width="3" stroke-linecap="round"/><line x1="114" y1="194" x2="130.73496863200697" y2="181.18599921973825" stroke="#0ea5e9" stroke-width="3" stroke-linecap="round"/><line x1="158" y1="194" x2="154.5728693175515" y2="177.64352893724222" stroke="#f97316" stroke-width="3" stroke-linecap="round"/><line x1="202" y1="194" x2="229.44499243415223" y2="203.29191117008156" stroke="#2563eb" stroke-width="3" stroke-linecap="round"/><line x1="246" y1="194" x2="241.54998062097647" y2="216.93887256066245" stroke="#14b8a6" stroke-width="3" stroke-linecap="round"/><line x1="290" y1="194" x2="288.51661578671866" y2="174.106794864673" stroke="#f59e0b" stroke-width="3" stroke-linecap="round"/><line x1="334" y1="194" x2="360.44676223939587" y2="184.78223506187933" stroke="#ef4444" stroke-width="3" stroke-linecap="round"/><line x1="378" y1="194" x2="376.82924436214853" y2="167.18995685443704" stroke="#8b5cf6" stroke-width="3" stroke-linecap="round"/><line x1="422" y1="194" x2="420.088212215899" y2="216.2104604093496" stroke="#22c55e" stroke-width="3" stroke-linecap="round"/>
  </g>
</svg>
