<?xml version="1.0" encoding="UTF-8"?>
<svg xmlns="http://www.w3.org/2000/svg" width="640" height="420" viewBox="0 0 640 420" role="img" aria-labelledby="title-violin_plot">
  <title id="title-violin_plot">Violin plot chart preview</title>
  <defs>
    <linearGradient id="bg-violin_plot" x1="0" x2="1" y1="0" y2="1">
      <stop offset="0" stop-color="#f8fafc"/>
      <stop offset="1" stop-color="#eef6f8"/>
    </linearGradient>
    <linearGradient id="accent-violin_plot" x1="0" x2="1" y1="0" y2="0">
      <stop offset="0" stop-color="#2563eb"/>
      <stop offset="0.52" stop-color="#14b8a6"/>
      <stop offset="1" stop-color="#f59e0b"/>
    </linearGradient>
    <filter id="shadow-violin_plot" x="-20%" y="-20%" width="140%" height="140%">
      <feDropShadow dx="0" dy="10" stdDeviation="14" flood-color="#0f172a" flood-opacity="0.12"/>
    </filter>
  </defs>
  <rect width="640" height="420" rx="30" fill="url(#bg-violin_plot)"/>
  <rect x="34" y="28" width="572" height="348" rx="26" fill="#ffffff" filter="url(#shadow-violin_plot)"/>
  <text x="58" y="68" font-family="Inter, ui-sans-serif, system-ui, sans-serif" font-size="22" font-weight="720" fill="#0f172a">Violin plot</text>
  <text x="58" y="94" font-family="Inter, ui-sans-serif, system-ui, sans-serif" font-size="13" fill="#64748b">Statistical and finance</text>
  <g transform="translate(58 112)">
    <g><line x1="48" y1="24" x2="462" y2="24" stroke="#dbe4ef" stroke-width="1"/><line x1="48" y1="72" x2="462" y2="72" stroke="#dbe4ef" stroke-width="1"/><line x1="48" y1="120" x2="462" y2="120" stroke="#dbe4ef" stroke-width="1"/><line x1="48" y1="168" x2="462" y2="168" stroke="#dbe4ef" stroke-width="1"/><line x1="48" y1="216" x2="462" y2="216" stroke="#dbe4ef" stroke-width="1"/><line x1="48" y1="216" x2="462" y2="216" stroke="#94a3b8"/><line x1="48" y1="24" x2="48" y2="216" stroke="#94a3b8"/></g><path d="M 118 44 C 92.4487212379463 76 84.4487212379463 126 118 202 C 151.5512787620537 126 143.5512787620537 76 118 44 Z" fill="#2563eb" opacity=".35" stroke="#2563eb" stroke-width="3"/><line x1="118" y1="50" x2="118" y2="198" stroke="#0f172a" opacity=".5"/><path d="M 206 44 C 169.4693690566346 76 161.4693690566346 126 206 202 C 250.5306309433654 126 242.5306309433654 76 206 44 Z" fill="#14b8a6" opacity=".35" stroke="#14b8a6" stroke-width="3"/><line x1="206" y1="50" x2="206" y2="198" stroke="#0f172a" opacity=".5"/><path d="M 294 44 C 269.27977120457217 76 261.27977120457217 126 294 202 C 326.72022879542783 126 318.72022879542783 76 294 44 Z" fill="#f59e0b" opacity=".35" stroke="#f59e0b" stroke-width="3"/><line x1="294" y1="50" x2="294" y2="198" stroke="#0f172a" opacity=".5"/><path d="M 382 44 C 348.91506698168814 76 340.91506698168814 126 382 202 C 423.08493301831186 126 415.08493301831186 76 382 44 Z" fill="#ef4444" opacity=".35" stroke="#ef4444" stroke-width="3"/><line x1="382" y1="50" x2="382" y2="198" stroke="#0f172a" opacity=".5"/>
  </g>
</svg>
