{
  "asset": {
    "version": "2.0",
    "generator": "Fission scene3d qualification example"
  },
  "buffers": [
    {
      "byteLength": 140,
      "uri": "data:application/octet-stream;base64,"
    }
  ],
  "bufferViews": [
    { "buffer": 0, "byteOffset": 0, "byteLength": 48, "target": 34962 },
    { "buffer": 0, "byteOffset": 48, "byteLength": 48, "target": 34962 },
    { "buffer": 0, "byteOffset": 96, "byteLength": 32, "target": 34962 },
    { "buffer": 0, "byteOffset": 128, "byteLength": 12, "target": 34963 }
  ],
  "accessors": [
    {
      "bufferView": 0,
      "componentType": 5126,
      "count": 4,
      "type": "VEC3",
      "min": [-1.0, 0.0, 0.0],
      "max": [1.0, 2.0, 0.0]
    },
    { "bufferView": 1, "componentType": 5126, "count": 4, "type": "VEC3" },
    { "bufferView": 2, "componentType": 5126, "count": 4, "type": "VEC2" },
    { "bufferView": 3, "componentType": 5123, "count": 6, "type": "SCALAR" }
  ],
  "images": [
    { "uri": "beacon.ppm" }
  ],
  "samplers": [
    { "magFilter": 9728, "minFilter": 9728, "wrapS": 33071, "wrapT": 33071 }
  ],
  "textures": [
    { "sampler": 0, "source": 0 }
  ],
  "materials": [
    {
      "name": "Beacon screen",
      "pbrMetallicRoughness": {
        "baseColorTexture": { "index": 0 },
        "metallicFactor": 0.05,
        "roughnessFactor": 0.72
      },
      "emissiveFactor": [0.12, 0.2, 0.3],
      "doubleSided": true
    }
  ],
  "meshes": [
    {
      "name": "Beacon panel",
      "primitives": [
        {
          "attributes": { "POSITION": 0, "NORMAL": 1, "TEXCOORD_0": 2 },
          "indices": 3,
          "material": 0
        }
      ]
    }
  ],
  "nodes": [
    { "name": "Beacon", "mesh": 0 }
  ],
  "scenes": [
    { "nodes": [0] }
  ],
  "scene": 0
}

